M48
; DRILL file {KiCad (6.0.0-rc1-dev-1614-ge850a482d)} date 2/15/2019 8:23:30 AM
; FORMAT={-:-/ absolute / inch / decimal}
; #@! TF.CreationDate,2019-02-15T08:23:30-08:00
; #@! TF.GenerationSoftware,Kicad,Pcbnew,(6.0.0-rc1-dev-1614-ge850a482d)
FMAT,2
INCH
T1C0.0118
T2C0.0236
T3C0.0354
T4C0.0394
T5C0.0472
T6C0.1102
%
G90
G05
T1
X3.285Y-3.3125
X3.2875Y-3.0025
X3.2875Y-3.04
X3.295Y-3.5675
X3.3137Y-3.02
X3.3137Y-3.1263
X3.314Y-2.984
X3.314Y-3.059
X3.317Y-3.6075
X3.3175Y-3.28
X3.3175Y-3.5325
X3.3176Y-3.34
X3.35Y-3.3125
X3.3708Y-4.0506
X3.3729Y-3.9741
X3.373Y-4.0004
X3.4435Y-3.8174
X3.4585Y-3.7777
X3.4675Y-4.0309
X3.4702Y-3.9103
X3.498Y-4.15
X3.5269Y-3.7779
X3.5441Y-4.0879
X3.5496Y-3.8375
X3.5721Y-4.1902
X3.5744Y-3.7973
X3.5757Y-3.8592
X3.5757Y-3.7756
X3.5759Y-3.8372
X3.589Y-4.0324
X3.5915Y-3.9375
X3.5928Y-3.7368
X3.5989Y-3.836
X3.5989Y-3.7988
X3.5991Y-3.7754
X3.5991Y-3.8594
X3.6015Y-3.8994
X3.6142Y-4.035
X3.6383Y-3.9008
X3.6429Y-3.82
X3.6432Y-3.7821
X3.644Y-3.8568
X3.65Y-4.18
X3.6639Y-3.8013
X3.71Y-3.67
X3.712Y-4.056
X3.72Y-4.002
X3.72Y-3.975
X3.7209Y-3.8886
X3.7213Y-3.863
X3.724Y-3.8071
X3.7247Y-3.8364
X3.7346Y-4.1264
X3.7347Y-4.1902
X3.7547Y-4.0683
X3.7866Y-4.0174
X3.8Y-4.1691
X3.8074Y-3.7526
X3.8132Y-3.6434
X3.8374Y-3.7202
X3.8438Y-3.6418
X3.8508Y-4.1309
X3.8508Y-4.1691
X3.88Y-4.033
X3.89Y-4.1
X3.8955Y-3.6687
X3.898Y-4.1696
X3.8988Y-4.1316
X3.9003Y-3.8287
X3.9025Y-3.7204
X3.9418Y-3.7441
X3.9529Y-3.6819
X3.9666Y-3.7546
X3.9861Y-4.0997
X3.9936Y-3.7565
X3.996Y-3.959
X4.0175Y-4.0953
X4.026Y-4.059
X4.0594Y-3.9496
X4.0615Y-4.038
X4.062Y-3.975
X4.0645Y-3.8986
X4.0645Y-3.9247
X4.0776Y-3.8297
X4.0777Y-3.8547
X4.0803Y-4.0063
X4.0807Y-4.1063
X4.0854Y-3.793
X4.0957Y-3.9492
X4.1109Y-3.8105
X4.1183Y-3.9096
X4.1185Y-4.037
X4.1283Y-3.8848
X4.1421Y-4.0685
X4.1585Y-4.1054
X4.1701Y-4.0083
X4.1705Y-3.9433
X4.1709Y-3.8162
X4.176Y-3.0
X4.2026Y-4.1445
X4.2028Y-3.9736
X4.21Y-2.9725
X4.218Y-3.8156
X4.2343Y-4.0079
X4.2354Y-3.9433
X4.251Y-3.0
X4.2511Y-4.1442
X4.2661Y-3.9024
X4.2678Y-3.8156
X4.277Y-4.0451
X4.2775Y-3.7225
X4.29Y-2.9725
X4.2933Y-4.1455
X4.2975Y-3.69
X4.315Y-3.7225
X4.3178Y-3.8156
X4.328Y-3.0
X4.3366Y-3.9142
T2
X4.3821Y-4.1473
X4.3908Y-4.1965
X4.3994Y-4.2458
X4.4458Y-4.0835
X4.4951Y-4.0922
X4.5443Y-4.1009
T3
X3.4163Y-3.9016
X3.4163Y-4.0984
T4
X4.4335Y-3.266
X4.5335Y-3.266
X4.7105Y-3.366
X4.8105Y-3.366
X4.9105Y-3.366
X5.0105Y-3.366
X4.96Y-2.9793
X4.7105Y-3.266
X4.8105Y-3.266
X4.9105Y-3.266
X5.0105Y-3.266
X4.7105Y-3.166
X4.8105Y-3.166
X4.9105Y-3.166
X5.0105Y-3.166
X4.4835Y-3.9526
X4.7105Y-3.566
X4.8105Y-3.566
X4.9105Y-3.566
X5.0105Y-3.566
X4.7105Y-3.866
X4.4335Y-3.366
X4.5335Y-3.366
X4.76Y-2.9793
X4.7105Y-3.666
X4.8105Y-3.666
X4.9105Y-3.666
X5.0105Y-3.666
X4.7105Y-3.766
X4.8105Y-3.766
X4.9105Y-3.766
X5.0105Y-3.766
X4.86Y-2.9793
X4.4335Y-3.866
X4.5335Y-3.866
X4.4335Y-3.666
X4.5335Y-3.666
X4.8605Y-3.9526
X4.4335Y-3.766
X4.5335Y-3.766
X4.4335Y-3.566
X4.5335Y-3.566
X4.8105Y-3.866
X4.7105Y-3.466
X4.8105Y-3.466
X4.9105Y-3.466
X5.0105Y-3.466
X4.4335Y-3.466
X4.5335Y-3.466
X4.7605Y-3.9526
X4.71Y-3.0657
X4.81Y-3.0657
X4.91Y-3.0657
X5.01Y-3.0657
X4.4835Y-3.1794
X3.8255Y-4.2398
X3.9255Y-4.2398
X4.0255Y-4.2398
X4.1255Y-4.2398
X4.9105Y-3.866
T5
X3.31Y-3.8622
X3.31Y-4.1378
T6
X4.4803Y-3.0292
T0
M30
