%TF.GenerationSoftware,KiCad,Pcbnew,(6.0.0-rc1-dev-1614-ge850a482d)*%
%TF.CreationDate,2019-02-12T09:03:15-08:00*%
%TF.ProjectId,spriteSAMD,73707269-7465-4534-914d-442e6b696361,rev?*%
%TF.SameCoordinates,Original*%
%TF.FileFunction,Soldermask,Bot*%
%TF.FilePolarity,Negative*%
%FSLAX46Y46*%
G04 Gerber Fmt 4.6, Leading zero omitted, Abs format (unit mm)*
G04 Created by KiCad (PCBNEW (6.0.0-rc1-dev-1614-ge850a482d)) date 2019-02-12 09:03:15*
%MOMM*%
%LPD*%
G04 APERTURE LIST*
%ADD10C,0.025400*%
%ADD11C,0.150000*%
%ADD12C,0.222250*%
%ADD13C,0.100000*%
G04 APERTURE END LIST*
D10*
G36*
X110172500Y-95250000D02*
G01*
X108077000Y-95250000D01*
X108077000Y-93027500D01*
X110172500Y-93027500D01*
X110172500Y-95250000D01*
G37*
X110172500Y-95250000D02*
X108077000Y-95250000D01*
X108077000Y-93027500D01*
X110172500Y-93027500D01*
X110172500Y-95250000D01*
G36*
X109474000Y-77089000D02*
G01*
X106426000Y-77089000D01*
X106426000Y-74930000D01*
X109474000Y-74930000D01*
X109474000Y-77089000D01*
G37*
X109474000Y-77089000D02*
X106426000Y-77089000D01*
X106426000Y-74930000D01*
X109474000Y-74930000D01*
X109474000Y-77089000D01*
G36*
X85153500Y-92202000D02*
G01*
X83058000Y-92202000D01*
X83058000Y-89154000D01*
X85153500Y-89154000D01*
X85153500Y-92202000D01*
G37*
X85153500Y-92202000D02*
X83058000Y-92202000D01*
X83058000Y-89154000D01*
X85153500Y-89154000D01*
X85153500Y-92202000D01*
G36*
X85026500Y-78422500D02*
G01*
X82867500Y-78422500D01*
X82867500Y-75374500D01*
X85026500Y-75374500D01*
X85026500Y-78422500D01*
G37*
X85026500Y-78422500D02*
X82867500Y-78422500D01*
X82867500Y-75374500D01*
X85026500Y-75374500D01*
X85026500Y-78422500D01*
D11*
X116701044Y-84099400D02*
G75*
G02X117842556Y-84099400I570756J0D01*
G01*
X117842556Y-81635600D02*
G75*
G02X116701044Y-81635600I-570756J0D01*
G01*
X116701044Y-94513400D02*
G75*
G02X117842556Y-94513400I570756J0D01*
G01*
X117842556Y-92049600D02*
G75*
G02X116701044Y-92049600I-570756J0D01*
G01*
X116700300Y-104775000D02*
X112522000Y-109041600D01*
X117843300Y-84099400D02*
X117843300Y-92049600D01*
X117843300Y-74041000D02*
X117843300Y-81610200D01*
X117843300Y-94513400D02*
X117843300Y-102108000D01*
X116700300Y-104775000D02*
X116700300Y-94538800D01*
X116700300Y-92024200D02*
X116700300Y-84124800D01*
X116700300Y-81635600D02*
X116700300Y-74041000D01*
X124891800Y-102108000D02*
X117856000Y-102108000D01*
X128955800Y-98044000D02*
X124891800Y-102108000D01*
X128955800Y-74041600D02*
X128955800Y-98044000D01*
X117843300Y-74041000D02*
X128955800Y-74041000D01*
X82550000Y-98044000D02*
X81725100Y-97536000D01*
X82550000Y-105156000D02*
X81725100Y-105664000D01*
X81725100Y-105664000D02*
X81725100Y-109041600D01*
X82550000Y-98044000D02*
X82550000Y-105156000D01*
D12*
X89890070Y-107221866D02*
X89890070Y-106332866D01*
X89382070Y-107221866D02*
X89763070Y-106713866D01*
X89382070Y-106332866D02*
X89890070Y-106840866D01*
X89001070Y-107221866D02*
X89001070Y-106332866D01*
X88069737Y-107137200D02*
X88112070Y-107179533D01*
X88239070Y-107221866D01*
X88323737Y-107221866D01*
X88450737Y-107179533D01*
X88535404Y-107094866D01*
X88577737Y-107010200D01*
X88620070Y-106840866D01*
X88620070Y-106713866D01*
X88577737Y-106544533D01*
X88535404Y-106459866D01*
X88450737Y-106375200D01*
X88323737Y-106332866D01*
X88239070Y-106332866D01*
X88112070Y-106375200D01*
X88069737Y-106417533D01*
X87688737Y-107221866D02*
X87688737Y-106332866D01*
X87180737Y-107221866D02*
X87561737Y-106713866D01*
X87180737Y-106332866D02*
X87688737Y-106840866D01*
X86842070Y-107179533D02*
X86715070Y-107221866D01*
X86503404Y-107221866D01*
X86418737Y-107179533D01*
X86376404Y-107137200D01*
X86334070Y-107052533D01*
X86334070Y-106967866D01*
X86376404Y-106883200D01*
X86418737Y-106840866D01*
X86503404Y-106798533D01*
X86672737Y-106756200D01*
X86757404Y-106713866D01*
X86799737Y-106671533D01*
X86842070Y-106586866D01*
X86842070Y-106502200D01*
X86799737Y-106417533D01*
X86757404Y-106375200D01*
X86672737Y-106332866D01*
X86461070Y-106332866D01*
X86334070Y-106375200D01*
X85995404Y-106967866D02*
X85572070Y-106967866D01*
X86080070Y-107221866D02*
X85783737Y-106332866D01*
X85487404Y-107221866D01*
X85318070Y-106332866D02*
X84810070Y-106332866D01*
X85064070Y-107221866D02*
X85064070Y-106332866D01*
D11*
X81725100Y-109041600D02*
X112522000Y-109041600D01*
X116700300Y-74041600D02*
X81725100Y-74041600D01*
X81725100Y-74041600D02*
X81725100Y-97536000D01*
D13*
G36*
X99884288Y-106802234D02*
G01*
X99884291Y-106802235D01*
X100054088Y-106853742D01*
X100210578Y-106937388D01*
X100347743Y-107049957D01*
X100460312Y-107187122D01*
X100543958Y-107343612D01*
X100589575Y-107493992D01*
X100595466Y-107513412D01*
X100612858Y-107690000D01*
X100595466Y-107866588D01*
X100595465Y-107866591D01*
X100543958Y-108036388D01*
X100460312Y-108192878D01*
X100347743Y-108330043D01*
X100210578Y-108442612D01*
X100054088Y-108526258D01*
X99903708Y-108571875D01*
X99884288Y-108577766D01*
X99751949Y-108590800D01*
X99663451Y-108590800D01*
X99531112Y-108577766D01*
X99511692Y-108571875D01*
X99361312Y-108526258D01*
X99204822Y-108442612D01*
X99067657Y-108330043D01*
X98955088Y-108192878D01*
X98871442Y-108036388D01*
X98819935Y-107866591D01*
X98819934Y-107866588D01*
X98802542Y-107690000D01*
X98819934Y-107513412D01*
X98825825Y-107493992D01*
X98871442Y-107343612D01*
X98955088Y-107187122D01*
X99067657Y-107049957D01*
X99204822Y-106937388D01*
X99361312Y-106853742D01*
X99531109Y-106802235D01*
X99531112Y-106802234D01*
X99663451Y-106789200D01*
X99751949Y-106789200D01*
X99884288Y-106802234D01*
X99884288Y-106802234D01*
G37*
G36*
X102424288Y-106802234D02*
G01*
X102424291Y-106802235D01*
X102594088Y-106853742D01*
X102750578Y-106937388D01*
X102887743Y-107049957D01*
X103000312Y-107187122D01*
X103083958Y-107343612D01*
X103129575Y-107493992D01*
X103135466Y-107513412D01*
X103152858Y-107690000D01*
X103135466Y-107866588D01*
X103135465Y-107866591D01*
X103083958Y-108036388D01*
X103000312Y-108192878D01*
X102887743Y-108330043D01*
X102750578Y-108442612D01*
X102594088Y-108526258D01*
X102443708Y-108571875D01*
X102424288Y-108577766D01*
X102291949Y-108590800D01*
X102203451Y-108590800D01*
X102071112Y-108577766D01*
X102051692Y-108571875D01*
X101901312Y-108526258D01*
X101744822Y-108442612D01*
X101607657Y-108330043D01*
X101495088Y-108192878D01*
X101411442Y-108036388D01*
X101359935Y-107866591D01*
X101359934Y-107866588D01*
X101342542Y-107690000D01*
X101359934Y-107513412D01*
X101365825Y-107493992D01*
X101411442Y-107343612D01*
X101495088Y-107187122D01*
X101607657Y-107049957D01*
X101744822Y-106937388D01*
X101901312Y-106853742D01*
X102071109Y-106802235D01*
X102071112Y-106802234D01*
X102203451Y-106789200D01*
X102291949Y-106789200D01*
X102424288Y-106802234D01*
X102424288Y-106802234D01*
G37*
G36*
X104964288Y-106802234D02*
G01*
X104964291Y-106802235D01*
X105134088Y-106853742D01*
X105290578Y-106937388D01*
X105427743Y-107049957D01*
X105540312Y-107187122D01*
X105623958Y-107343612D01*
X105669575Y-107493992D01*
X105675466Y-107513412D01*
X105692858Y-107690000D01*
X105675466Y-107866588D01*
X105675465Y-107866591D01*
X105623958Y-108036388D01*
X105540312Y-108192878D01*
X105427743Y-108330043D01*
X105290578Y-108442612D01*
X105134088Y-108526258D01*
X104983708Y-108571875D01*
X104964288Y-108577766D01*
X104831949Y-108590800D01*
X104743451Y-108590800D01*
X104611112Y-108577766D01*
X104591692Y-108571875D01*
X104441312Y-108526258D01*
X104284822Y-108442612D01*
X104147657Y-108330043D01*
X104035088Y-108192878D01*
X103951442Y-108036388D01*
X103899935Y-107866591D01*
X103899934Y-107866588D01*
X103882542Y-107690000D01*
X103899934Y-107513412D01*
X103905825Y-107493992D01*
X103951442Y-107343612D01*
X104035088Y-107187122D01*
X104147657Y-107049957D01*
X104284822Y-106937388D01*
X104441312Y-106853742D01*
X104611109Y-106802235D01*
X104611112Y-106802234D01*
X104743451Y-106789200D01*
X104831949Y-106789200D01*
X104964288Y-106802234D01*
X104964288Y-106802234D01*
G37*
G36*
X98068500Y-108590800D02*
G01*
X96266900Y-108590800D01*
X96266900Y-106789200D01*
X98068500Y-106789200D01*
X98068500Y-108590800D01*
X98068500Y-108590800D01*
G37*
G36*
X111512016Y-104657025D02*
G01*
X111641446Y-104710637D01*
X111757930Y-104788469D01*
X111856992Y-104887531D01*
X111934824Y-105004015D01*
X111988436Y-105133445D01*
X112015767Y-105270847D01*
X112015767Y-105410941D01*
X111988436Y-105548343D01*
X111934824Y-105677773D01*
X111877421Y-105763683D01*
X111875076Y-105768070D01*
X111873631Y-105772835D01*
X111873143Y-105777790D01*
X111873631Y-105782745D01*
X111875076Y-105787510D01*
X111877424Y-105791901D01*
X111880582Y-105795750D01*
X111884431Y-105798909D01*
X111888822Y-105801256D01*
X111893587Y-105802701D01*
X111898542Y-105803189D01*
X111902952Y-105802803D01*
X111942952Y-105795750D01*
X112101997Y-105767706D01*
X112308244Y-106937389D01*
X112348994Y-107168497D01*
X112148876Y-107203783D01*
X112144085Y-107205123D01*
X112139644Y-107207374D01*
X112135727Y-107210448D01*
X112132485Y-107214227D01*
X112130043Y-107218566D01*
X112128494Y-107223298D01*
X112127898Y-107228241D01*
X112128278Y-107233206D01*
X112129619Y-107238001D01*
X112131870Y-107242442D01*
X112134944Y-107246359D01*
X112139176Y-107249911D01*
X112198996Y-107289881D01*
X112298058Y-107388943D01*
X112375890Y-107505427D01*
X112429502Y-107634857D01*
X112456833Y-107772259D01*
X112456833Y-107912353D01*
X112429502Y-108049755D01*
X112375890Y-108179185D01*
X112298058Y-108295669D01*
X112198996Y-108394731D01*
X112082512Y-108472563D01*
X111953082Y-108526175D01*
X111815680Y-108553506D01*
X111675586Y-108553506D01*
X111538184Y-108526175D01*
X111408754Y-108472563D01*
X111292270Y-108394731D01*
X111193208Y-108295669D01*
X111115376Y-108179185D01*
X111061764Y-108049755D01*
X111034433Y-107912353D01*
X111034433Y-107772259D01*
X111061764Y-107634857D01*
X111115376Y-107505427D01*
X111172779Y-107419517D01*
X111175124Y-107415130D01*
X111176569Y-107410365D01*
X111177057Y-107405410D01*
X111176569Y-107400455D01*
X111175124Y-107395690D01*
X111172776Y-107391299D01*
X111169618Y-107387450D01*
X111165769Y-107384291D01*
X111161378Y-107381944D01*
X111156613Y-107380499D01*
X111151658Y-107380011D01*
X111147248Y-107380397D01*
X110948203Y-107415494D01*
X110701206Y-106014704D01*
X110701206Y-106014703D01*
X110901324Y-105979417D01*
X110906115Y-105978077D01*
X110910556Y-105975826D01*
X110914473Y-105972752D01*
X110917715Y-105968973D01*
X110920157Y-105964634D01*
X110921706Y-105959902D01*
X110922302Y-105954959D01*
X110921922Y-105949994D01*
X110920581Y-105945199D01*
X110918330Y-105940758D01*
X110915256Y-105936841D01*
X110911024Y-105933289D01*
X110851204Y-105893319D01*
X110752142Y-105794257D01*
X110674310Y-105677773D01*
X110620698Y-105548343D01*
X110593367Y-105410941D01*
X110593367Y-105270847D01*
X110620698Y-105133445D01*
X110674310Y-105004015D01*
X110752142Y-104887531D01*
X110851204Y-104788469D01*
X110967688Y-104710637D01*
X111097118Y-104657025D01*
X111234520Y-104629694D01*
X111374614Y-104629694D01*
X111512016Y-104657025D01*
X111512016Y-104657025D01*
G37*
G36*
X83603689Y-106480429D02*
G01*
X83785678Y-106555811D01*
X83949463Y-106665249D01*
X84088751Y-106804537D01*
X84198189Y-106968322D01*
X84273571Y-107150311D01*
X84312000Y-107343509D01*
X84312000Y-107540491D01*
X84273571Y-107733689D01*
X84198189Y-107915678D01*
X84088751Y-108079463D01*
X83949463Y-108218751D01*
X83785678Y-108328189D01*
X83603689Y-108403571D01*
X83410491Y-108442000D01*
X83213509Y-108442000D01*
X83020311Y-108403571D01*
X82838322Y-108328189D01*
X82674537Y-108218751D01*
X82535249Y-108079463D01*
X82425811Y-107915678D01*
X82350429Y-107733689D01*
X82312000Y-107540491D01*
X82312000Y-107343509D01*
X82350429Y-107150311D01*
X82425811Y-106968322D01*
X82535249Y-106804537D01*
X82674537Y-106665249D01*
X82838322Y-106555811D01*
X83020311Y-106480429D01*
X83213509Y-106442000D01*
X83410491Y-106442000D01*
X83603689Y-106480429D01*
X83603689Y-106480429D01*
G37*
G36*
X109350000Y-107144600D02*
G01*
X108748400Y-107144600D01*
X108748400Y-106218000D01*
X109350000Y-106218000D01*
X109350000Y-107144600D01*
X109350000Y-107144600D01*
G37*
G36*
X107050000Y-107144600D02*
G01*
X106448400Y-107144600D01*
X106448400Y-106218000D01*
X107050000Y-106218000D01*
X107050000Y-107144600D01*
X107050000Y-107144600D01*
G37*
G36*
X93919833Y-105804399D02*
G01*
X93949857Y-105813507D01*
X93977533Y-105828300D01*
X94001791Y-105848209D01*
X94021700Y-105872467D01*
X94036493Y-105900143D01*
X94045601Y-105930167D01*
X94048800Y-105962650D01*
X94048800Y-106381350D01*
X94045601Y-106413833D01*
X94036493Y-106443857D01*
X94021700Y-106471533D01*
X94001791Y-106495791D01*
X93977533Y-106515700D01*
X93949857Y-106530493D01*
X93919833Y-106539601D01*
X93887350Y-106542800D01*
X93518650Y-106542800D01*
X93486167Y-106539601D01*
X93456143Y-106530493D01*
X93428467Y-106515700D01*
X93404209Y-106495791D01*
X93384300Y-106471533D01*
X93369507Y-106443857D01*
X93360399Y-106413833D01*
X93357200Y-106381350D01*
X93357200Y-105962650D01*
X93360399Y-105930167D01*
X93369507Y-105900143D01*
X93384300Y-105872467D01*
X93404209Y-105848209D01*
X93428467Y-105828300D01*
X93456143Y-105813507D01*
X93486167Y-105804399D01*
X93518650Y-105801200D01*
X93887350Y-105801200D01*
X93919833Y-105804399D01*
X93919833Y-105804399D01*
G37*
G36*
X92949833Y-105804399D02*
G01*
X92979857Y-105813507D01*
X93007533Y-105828300D01*
X93031791Y-105848209D01*
X93051700Y-105872467D01*
X93066493Y-105900143D01*
X93075601Y-105930167D01*
X93078800Y-105962650D01*
X93078800Y-106381350D01*
X93075601Y-106413833D01*
X93066493Y-106443857D01*
X93051700Y-106471533D01*
X93031791Y-106495791D01*
X93007533Y-106515700D01*
X92979857Y-106530493D01*
X92949833Y-106539601D01*
X92917350Y-106542800D01*
X92548650Y-106542800D01*
X92516167Y-106539601D01*
X92486143Y-106530493D01*
X92458467Y-106515700D01*
X92434209Y-106495791D01*
X92414300Y-106471533D01*
X92399507Y-106443857D01*
X92390399Y-106413833D01*
X92387200Y-106381350D01*
X92387200Y-105962650D01*
X92390399Y-105930167D01*
X92399507Y-105900143D01*
X92414300Y-105872467D01*
X92434209Y-105848209D01*
X92458467Y-105828300D01*
X92486143Y-105813507D01*
X92516167Y-105804399D01*
X92548650Y-105801200D01*
X92917350Y-105801200D01*
X92949833Y-105804399D01*
X92949833Y-105804399D01*
G37*
G36*
X99251033Y-105565099D02*
G01*
X99281057Y-105574207D01*
X99308733Y-105589000D01*
X99332991Y-105608909D01*
X99352900Y-105633167D01*
X99367693Y-105660843D01*
X99376801Y-105690867D01*
X99380000Y-105723350D01*
X99380000Y-106092050D01*
X99376801Y-106124533D01*
X99367693Y-106154557D01*
X99352900Y-106182233D01*
X99332991Y-106206491D01*
X99308733Y-106226400D01*
X99281057Y-106241193D01*
X99251033Y-106250301D01*
X99218550Y-106253500D01*
X98799850Y-106253500D01*
X98767367Y-106250301D01*
X98737343Y-106241193D01*
X98709667Y-106226400D01*
X98685409Y-106206491D01*
X98665500Y-106182233D01*
X98650707Y-106154557D01*
X98641599Y-106124533D01*
X98638400Y-106092050D01*
X98638400Y-105723350D01*
X98641599Y-105690867D01*
X98650707Y-105660843D01*
X98665500Y-105633167D01*
X98685409Y-105608909D01*
X98709667Y-105589000D01*
X98737343Y-105574207D01*
X98767367Y-105565099D01*
X98799850Y-105561900D01*
X99218550Y-105561900D01*
X99251033Y-105565099D01*
X99251033Y-105565099D01*
G37*
G36*
X84351338Y-104185738D02*
G01*
X84524373Y-104257412D01*
X84680100Y-104361465D01*
X84812535Y-104493900D01*
X84916588Y-104649627D01*
X84988262Y-104822662D01*
X85024800Y-105006354D01*
X85024800Y-105193646D01*
X84988262Y-105377338D01*
X84916588Y-105550373D01*
X84812535Y-105706100D01*
X84680100Y-105838535D01*
X84524373Y-105942588D01*
X84351338Y-106014262D01*
X84167646Y-106050800D01*
X83980354Y-106050800D01*
X83796662Y-106014262D01*
X83623627Y-105942588D01*
X83467900Y-105838535D01*
X83335465Y-105706100D01*
X83231412Y-105550373D01*
X83159738Y-105377338D01*
X83123200Y-105193646D01*
X83123200Y-105006354D01*
X83159738Y-104822662D01*
X83231412Y-104649627D01*
X83335465Y-104493900D01*
X83467900Y-104361465D01*
X83623627Y-104257412D01*
X83796662Y-104185738D01*
X83980354Y-104149200D01*
X84167646Y-104149200D01*
X84351338Y-104185738D01*
X84351338Y-104185738D01*
G37*
G36*
X109350000Y-105719600D02*
G01*
X108748400Y-105719600D01*
X108748400Y-104793000D01*
X109350000Y-104793000D01*
X109350000Y-105719600D01*
X109350000Y-105719600D01*
G37*
G36*
X107050000Y-105719600D02*
G01*
X106448400Y-105719600D01*
X106448400Y-104793000D01*
X107050000Y-104793000D01*
X107050000Y-105719600D01*
X107050000Y-105719600D01*
G37*
G36*
X99251033Y-104595099D02*
G01*
X99281057Y-104604207D01*
X99308733Y-104619000D01*
X99332991Y-104638909D01*
X99352900Y-104663167D01*
X99367693Y-104690843D01*
X99376801Y-104720867D01*
X99380000Y-104753350D01*
X99380000Y-105122050D01*
X99376801Y-105154533D01*
X99367693Y-105184557D01*
X99352900Y-105212233D01*
X99332991Y-105236491D01*
X99308733Y-105256400D01*
X99281057Y-105271193D01*
X99251033Y-105280301D01*
X99218550Y-105283500D01*
X98799850Y-105283500D01*
X98767367Y-105280301D01*
X98737343Y-105271193D01*
X98709667Y-105256400D01*
X98685409Y-105236491D01*
X98665500Y-105212233D01*
X98650707Y-105184557D01*
X98641599Y-105154533D01*
X98638400Y-105122050D01*
X98638400Y-104753350D01*
X98641599Y-104720867D01*
X98650707Y-104690843D01*
X98665500Y-104663167D01*
X98685409Y-104638909D01*
X98709667Y-104619000D01*
X98737343Y-104604207D01*
X98767367Y-104595099D01*
X98799850Y-104591900D01*
X99218550Y-104591900D01*
X99251033Y-104595099D01*
X99251033Y-104595099D01*
G37*
G36*
X93919833Y-104534399D02*
G01*
X93949857Y-104543507D01*
X93977533Y-104558300D01*
X94001791Y-104578209D01*
X94021700Y-104602467D01*
X94036493Y-104630143D01*
X94045601Y-104660167D01*
X94048800Y-104692650D01*
X94048800Y-105111350D01*
X94045601Y-105143833D01*
X94036493Y-105173857D01*
X94021700Y-105201533D01*
X94001791Y-105225791D01*
X93977533Y-105245700D01*
X93949857Y-105260493D01*
X93919833Y-105269601D01*
X93887350Y-105272800D01*
X93518650Y-105272800D01*
X93486167Y-105269601D01*
X93456143Y-105260493D01*
X93428467Y-105245700D01*
X93404209Y-105225791D01*
X93384300Y-105201533D01*
X93369507Y-105173857D01*
X93360399Y-105143833D01*
X93357200Y-105111350D01*
X93357200Y-104692650D01*
X93360399Y-104660167D01*
X93369507Y-104630143D01*
X93384300Y-104602467D01*
X93404209Y-104578209D01*
X93428467Y-104558300D01*
X93456143Y-104543507D01*
X93486167Y-104534399D01*
X93518650Y-104531200D01*
X93887350Y-104531200D01*
X93919833Y-104534399D01*
X93919833Y-104534399D01*
G37*
G36*
X92949833Y-104534399D02*
G01*
X92979857Y-104543507D01*
X93007533Y-104558300D01*
X93031791Y-104578209D01*
X93051700Y-104602467D01*
X93066493Y-104630143D01*
X93075601Y-104660167D01*
X93078800Y-104692650D01*
X93078800Y-105111350D01*
X93075601Y-105143833D01*
X93066493Y-105173857D01*
X93051700Y-105201533D01*
X93031791Y-105225791D01*
X93007533Y-105245700D01*
X92979857Y-105260493D01*
X92949833Y-105269601D01*
X92917350Y-105272800D01*
X92548650Y-105272800D01*
X92516167Y-105269601D01*
X92486143Y-105260493D01*
X92458467Y-105245700D01*
X92434209Y-105225791D01*
X92414300Y-105201533D01*
X92399507Y-105173857D01*
X92390399Y-105143833D01*
X92387200Y-105111350D01*
X92387200Y-104692650D01*
X92390399Y-104660167D01*
X92399507Y-104630143D01*
X92414300Y-104602467D01*
X92434209Y-104578209D01*
X92458467Y-104558300D01*
X92486143Y-104543507D01*
X92516167Y-104534399D01*
X92548650Y-104531200D01*
X92917350Y-104531200D01*
X92949833Y-104534399D01*
X92949833Y-104534399D01*
G37*
G36*
X113131843Y-103037198D02*
G01*
X113261273Y-103090810D01*
X113377757Y-103168642D01*
X113476819Y-103267704D01*
X113516790Y-103327525D01*
X113519945Y-103331369D01*
X113523794Y-103334527D01*
X113528185Y-103336875D01*
X113532950Y-103338320D01*
X113537905Y-103338808D01*
X113542860Y-103338320D01*
X113547625Y-103336875D01*
X113552016Y-103334528D01*
X113555865Y-103331369D01*
X113559023Y-103327520D01*
X113561371Y-103323129D01*
X113562918Y-103317820D01*
X113598203Y-103117706D01*
X113598204Y-103117706D01*
X114998994Y-103364703D01*
X114963897Y-103563748D01*
X114963517Y-103568712D01*
X114964113Y-103573655D01*
X114965662Y-103578387D01*
X114968104Y-103582726D01*
X114971346Y-103586505D01*
X114975263Y-103589579D01*
X114979704Y-103591830D01*
X114984500Y-103593171D01*
X114989464Y-103593551D01*
X114994407Y-103592955D01*
X114999139Y-103591406D01*
X115003017Y-103589279D01*
X115088927Y-103531876D01*
X115218357Y-103478264D01*
X115355759Y-103450933D01*
X115495853Y-103450933D01*
X115633255Y-103478264D01*
X115762685Y-103531876D01*
X115879169Y-103609708D01*
X115978231Y-103708770D01*
X116056063Y-103825254D01*
X116109675Y-103954684D01*
X116137006Y-104092086D01*
X116137006Y-104232180D01*
X116109675Y-104369582D01*
X116056063Y-104499012D01*
X115978231Y-104615496D01*
X115879169Y-104714558D01*
X115762685Y-104792390D01*
X115633255Y-104846002D01*
X115495853Y-104873333D01*
X115355759Y-104873333D01*
X115218357Y-104846002D01*
X115088927Y-104792390D01*
X114972443Y-104714558D01*
X114873381Y-104615496D01*
X114833410Y-104555675D01*
X114830255Y-104551831D01*
X114826406Y-104548673D01*
X114822015Y-104546325D01*
X114817250Y-104544880D01*
X114812295Y-104544392D01*
X114807340Y-104544880D01*
X114802575Y-104546325D01*
X114798184Y-104548672D01*
X114794335Y-104551831D01*
X114791177Y-104555680D01*
X114788829Y-104560071D01*
X114787283Y-104565376D01*
X114751997Y-104765494D01*
X114751996Y-104765494D01*
X113351206Y-104518497D01*
X113386303Y-104319452D01*
X113386683Y-104314488D01*
X113386087Y-104309545D01*
X113384538Y-104304813D01*
X113382096Y-104300474D01*
X113378854Y-104296695D01*
X113374937Y-104293621D01*
X113370496Y-104291370D01*
X113365700Y-104290029D01*
X113360736Y-104289649D01*
X113355793Y-104290245D01*
X113351061Y-104291794D01*
X113347183Y-104293921D01*
X113261273Y-104351324D01*
X113131843Y-104404936D01*
X112994441Y-104432267D01*
X112854347Y-104432267D01*
X112716945Y-104404936D01*
X112587515Y-104351324D01*
X112471031Y-104273492D01*
X112371969Y-104174430D01*
X112294137Y-104057946D01*
X112240525Y-103928516D01*
X112213194Y-103791114D01*
X112213194Y-103651020D01*
X112240525Y-103513618D01*
X112294137Y-103384188D01*
X112371969Y-103267704D01*
X112471031Y-103168642D01*
X112587515Y-103090810D01*
X112716945Y-103037198D01*
X112854347Y-103009867D01*
X112994441Y-103009867D01*
X113131843Y-103037198D01*
X113131843Y-103037198D01*
G37*
G36*
X86994167Y-103374207D02*
G01*
X87131532Y-103431105D01*
X87255157Y-103513709D01*
X87360291Y-103618843D01*
X87442895Y-103742468D01*
X87499793Y-103879833D01*
X87528800Y-104025659D01*
X87528800Y-104174341D01*
X87499793Y-104320167D01*
X87442895Y-104457532D01*
X87360291Y-104581157D01*
X87255157Y-104686291D01*
X87131532Y-104768895D01*
X86994167Y-104825793D01*
X86848341Y-104854800D01*
X86699659Y-104854800D01*
X86553833Y-104825793D01*
X86416468Y-104768895D01*
X86292843Y-104686291D01*
X86187709Y-104581157D01*
X86105105Y-104457532D01*
X86048207Y-104320167D01*
X86019200Y-104174341D01*
X86019200Y-104025659D01*
X86048207Y-103879833D01*
X86105105Y-103742468D01*
X86187709Y-103618843D01*
X86292843Y-103513709D01*
X86416468Y-103431105D01*
X86553833Y-103374207D01*
X86699659Y-103345200D01*
X86848341Y-103345200D01*
X86994167Y-103374207D01*
X86994167Y-103374207D01*
G37*
G36*
X98228060Y-102886249D02*
G01*
X98276141Y-102900833D01*
X98320457Y-102924521D01*
X98359300Y-102956400D01*
X98391179Y-102995243D01*
X98414867Y-103039559D01*
X98429451Y-103087640D01*
X98434500Y-103138901D01*
X98434500Y-104125099D01*
X98429451Y-104176360D01*
X98414867Y-104224441D01*
X98391179Y-104268757D01*
X98359300Y-104307600D01*
X98320457Y-104339479D01*
X98276141Y-104363167D01*
X98228060Y-104377751D01*
X98176799Y-104382800D01*
X97615601Y-104382800D01*
X97564340Y-104377751D01*
X97516259Y-104363167D01*
X97471943Y-104339479D01*
X97433100Y-104307600D01*
X97401221Y-104268757D01*
X97377533Y-104224441D01*
X97362949Y-104176360D01*
X97357900Y-104125099D01*
X97357900Y-103138901D01*
X97362949Y-103087640D01*
X97377533Y-103039559D01*
X97401221Y-102995243D01*
X97433100Y-102956400D01*
X97471943Y-102924521D01*
X97516259Y-102900833D01*
X97564340Y-102886249D01*
X97615601Y-102881200D01*
X98176799Y-102881200D01*
X98228060Y-102886249D01*
X98228060Y-102886249D01*
G37*
G36*
X100103060Y-102886249D02*
G01*
X100151141Y-102900833D01*
X100195457Y-102924521D01*
X100234300Y-102956400D01*
X100266179Y-102995243D01*
X100289867Y-103039559D01*
X100304451Y-103087640D01*
X100309500Y-103138901D01*
X100309500Y-104125099D01*
X100304451Y-104176360D01*
X100289867Y-104224441D01*
X100266179Y-104268757D01*
X100234300Y-104307600D01*
X100195457Y-104339479D01*
X100151141Y-104363167D01*
X100103060Y-104377751D01*
X100051799Y-104382800D01*
X99490601Y-104382800D01*
X99439340Y-104377751D01*
X99391259Y-104363167D01*
X99346943Y-104339479D01*
X99308100Y-104307600D01*
X99276221Y-104268757D01*
X99252533Y-104224441D01*
X99237949Y-104176360D01*
X99232900Y-104125099D01*
X99232900Y-103138901D01*
X99237949Y-103087640D01*
X99252533Y-103039559D01*
X99276221Y-102995243D01*
X99308100Y-102956400D01*
X99346943Y-102924521D01*
X99391259Y-102900833D01*
X99439340Y-102886249D01*
X99490601Y-102881200D01*
X100051799Y-102881200D01*
X100103060Y-102886249D01*
X100103060Y-102886249D01*
G37*
G36*
X96556353Y-102967219D02*
G01*
X96586377Y-102976327D01*
X96614053Y-102991120D01*
X96638311Y-103011029D01*
X96658220Y-103035287D01*
X96673013Y-103062963D01*
X96682121Y-103092987D01*
X96685320Y-103125470D01*
X96685320Y-103544170D01*
X96682121Y-103576653D01*
X96673013Y-103606677D01*
X96658220Y-103634353D01*
X96638311Y-103658611D01*
X96614053Y-103678520D01*
X96586377Y-103693313D01*
X96556353Y-103702421D01*
X96523870Y-103705620D01*
X96155170Y-103705620D01*
X96122687Y-103702421D01*
X96092663Y-103693313D01*
X96064987Y-103678520D01*
X96040729Y-103658611D01*
X96020820Y-103634353D01*
X96006027Y-103606677D01*
X95996919Y-103576653D01*
X95993720Y-103544170D01*
X95993720Y-103125470D01*
X95996919Y-103092987D01*
X96006027Y-103062963D01*
X96020820Y-103035287D01*
X96040729Y-103011029D01*
X96064987Y-102991120D01*
X96092663Y-102976327D01*
X96122687Y-102967219D01*
X96155170Y-102964020D01*
X96523870Y-102964020D01*
X96556353Y-102967219D01*
X96556353Y-102967219D01*
G37*
G36*
X95586353Y-102967219D02*
G01*
X95616377Y-102976327D01*
X95644053Y-102991120D01*
X95668311Y-103011029D01*
X95688220Y-103035287D01*
X95703013Y-103062963D01*
X95712121Y-103092987D01*
X95715320Y-103125470D01*
X95715320Y-103544170D01*
X95712121Y-103576653D01*
X95703013Y-103606677D01*
X95688220Y-103634353D01*
X95668311Y-103658611D01*
X95644053Y-103678520D01*
X95616377Y-103693313D01*
X95586353Y-103702421D01*
X95553870Y-103705620D01*
X95185170Y-103705620D01*
X95152687Y-103702421D01*
X95122663Y-103693313D01*
X95094987Y-103678520D01*
X95070729Y-103658611D01*
X95050820Y-103634353D01*
X95036027Y-103606677D01*
X95026919Y-103576653D01*
X95023720Y-103544170D01*
X95023720Y-103125470D01*
X95026919Y-103092987D01*
X95036027Y-103062963D01*
X95050820Y-103035287D01*
X95070729Y-103011029D01*
X95094987Y-102991120D01*
X95122663Y-102976327D01*
X95152687Y-102967219D01*
X95185170Y-102964020D01*
X95553870Y-102964020D01*
X95586353Y-102967219D01*
X95586353Y-102967219D01*
G37*
G36*
X90291920Y-103505000D02*
G01*
X89631520Y-103505000D01*
X89631520Y-102133400D01*
X90291920Y-102133400D01*
X90291920Y-103505000D01*
X90291920Y-103505000D01*
G37*
G36*
X88386920Y-103505000D02*
G01*
X87726520Y-103505000D01*
X87726520Y-102133400D01*
X88386920Y-102133400D01*
X88386920Y-103505000D01*
X88386920Y-103505000D01*
G37*
G36*
X89339420Y-103505000D02*
G01*
X88679020Y-103505000D01*
X88679020Y-102133400D01*
X89339420Y-102133400D01*
X89339420Y-103505000D01*
X89339420Y-103505000D01*
G37*
G36*
X92113100Y-103505000D02*
G01*
X91452700Y-103505000D01*
X91452700Y-102133400D01*
X92113100Y-102133400D01*
X92113100Y-103505000D01*
X92113100Y-103505000D01*
G37*
G36*
X93065600Y-103505000D02*
G01*
X92405200Y-103505000D01*
X92405200Y-102133400D01*
X93065600Y-102133400D01*
X93065600Y-103505000D01*
X93065600Y-103505000D01*
G37*
G36*
X94018100Y-103505000D02*
G01*
X93357700Y-103505000D01*
X93357700Y-102133400D01*
X94018100Y-102133400D01*
X94018100Y-103505000D01*
X94018100Y-103505000D01*
G37*
G36*
X107878473Y-102378399D02*
G01*
X107908497Y-102387507D01*
X107936173Y-102402300D01*
X107960431Y-102422209D01*
X107980340Y-102446467D01*
X107995133Y-102474143D01*
X108004241Y-102504167D01*
X108007440Y-102536650D01*
X108007440Y-102955350D01*
X108004241Y-102987833D01*
X107995133Y-103017857D01*
X107980340Y-103045533D01*
X107960431Y-103069791D01*
X107936173Y-103089700D01*
X107908497Y-103104493D01*
X107878473Y-103113601D01*
X107845990Y-103116800D01*
X107477290Y-103116800D01*
X107444807Y-103113601D01*
X107414783Y-103104493D01*
X107387107Y-103089700D01*
X107362849Y-103069791D01*
X107342940Y-103045533D01*
X107328147Y-103017857D01*
X107319039Y-102987833D01*
X107315840Y-102955350D01*
X107315840Y-102536650D01*
X107319039Y-102504167D01*
X107328147Y-102474143D01*
X107342940Y-102446467D01*
X107362849Y-102422209D01*
X107387107Y-102402300D01*
X107414783Y-102387507D01*
X107444807Y-102378399D01*
X107477290Y-102375200D01*
X107845990Y-102375200D01*
X107878473Y-102378399D01*
X107878473Y-102378399D01*
G37*
G36*
X108848473Y-102378399D02*
G01*
X108878497Y-102387507D01*
X108906173Y-102402300D01*
X108930431Y-102422209D01*
X108950340Y-102446467D01*
X108965133Y-102474143D01*
X108974241Y-102504167D01*
X108977440Y-102536650D01*
X108977440Y-102955350D01*
X108974241Y-102987833D01*
X108965133Y-103017857D01*
X108950340Y-103045533D01*
X108930431Y-103069791D01*
X108906173Y-103089700D01*
X108878497Y-103104493D01*
X108848473Y-103113601D01*
X108815990Y-103116800D01*
X108447290Y-103116800D01*
X108414807Y-103113601D01*
X108384783Y-103104493D01*
X108357107Y-103089700D01*
X108332849Y-103069791D01*
X108312940Y-103045533D01*
X108298147Y-103017857D01*
X108289039Y-102987833D01*
X108285840Y-102955350D01*
X108285840Y-102536650D01*
X108289039Y-102504167D01*
X108298147Y-102474143D01*
X108312940Y-102446467D01*
X108332849Y-102422209D01*
X108357107Y-102402300D01*
X108384783Y-102387507D01*
X108414807Y-102378399D01*
X108447290Y-102375200D01*
X108815990Y-102375200D01*
X108848473Y-102378399D01*
X108848473Y-102378399D01*
G37*
G36*
X105161833Y-101432399D02*
G01*
X105191857Y-101441507D01*
X105219533Y-101456300D01*
X105243791Y-101476209D01*
X105263700Y-101500467D01*
X105278493Y-101528143D01*
X105287601Y-101558167D01*
X105290800Y-101590650D01*
X105290800Y-102009350D01*
X105287601Y-102041833D01*
X105278493Y-102071857D01*
X105263700Y-102099533D01*
X105243791Y-102123791D01*
X105219533Y-102143700D01*
X105191857Y-102158493D01*
X105161833Y-102167601D01*
X105129350Y-102170800D01*
X104760650Y-102170800D01*
X104728167Y-102167601D01*
X104698143Y-102158493D01*
X104670467Y-102143700D01*
X104646209Y-102123791D01*
X104626300Y-102099533D01*
X104611507Y-102071857D01*
X104602399Y-102041833D01*
X104599200Y-102009350D01*
X104599200Y-101590650D01*
X104602399Y-101558167D01*
X104611507Y-101528143D01*
X104626300Y-101500467D01*
X104646209Y-101476209D01*
X104670467Y-101456300D01*
X104698143Y-101441507D01*
X104728167Y-101432399D01*
X104760650Y-101429200D01*
X105129350Y-101429200D01*
X105161833Y-101432399D01*
X105161833Y-101432399D01*
G37*
G36*
X106131833Y-101432399D02*
G01*
X106161857Y-101441507D01*
X106189533Y-101456300D01*
X106213791Y-101476209D01*
X106233700Y-101500467D01*
X106248493Y-101528143D01*
X106257601Y-101558167D01*
X106260800Y-101590650D01*
X106260800Y-102009350D01*
X106257601Y-102041833D01*
X106248493Y-102071857D01*
X106233700Y-102099533D01*
X106213791Y-102123791D01*
X106189533Y-102143700D01*
X106161857Y-102158493D01*
X106131833Y-102167601D01*
X106099350Y-102170800D01*
X105730650Y-102170800D01*
X105698167Y-102167601D01*
X105668143Y-102158493D01*
X105640467Y-102143700D01*
X105616209Y-102123791D01*
X105596300Y-102099533D01*
X105581507Y-102071857D01*
X105572399Y-102041833D01*
X105569200Y-102009350D01*
X105569200Y-101590650D01*
X105572399Y-101558167D01*
X105581507Y-101528143D01*
X105596300Y-101500467D01*
X105616209Y-101476209D01*
X105640467Y-101456300D01*
X105668143Y-101441507D01*
X105698167Y-101432399D01*
X105730650Y-101429200D01*
X106099350Y-101429200D01*
X106131833Y-101432399D01*
X106131833Y-101432399D01*
G37*
G36*
X102654633Y-100726399D02*
G01*
X102684657Y-100735507D01*
X102712333Y-100750300D01*
X102736591Y-100770209D01*
X102756500Y-100794467D01*
X102771293Y-100822143D01*
X102780401Y-100852167D01*
X102783600Y-100884650D01*
X102783600Y-101253350D01*
X102780401Y-101285833D01*
X102771293Y-101315857D01*
X102756500Y-101343533D01*
X102736591Y-101367791D01*
X102712333Y-101387700D01*
X102684657Y-101402493D01*
X102654633Y-101411601D01*
X102622150Y-101414800D01*
X102203450Y-101414800D01*
X102170967Y-101411601D01*
X102140943Y-101402493D01*
X102113267Y-101387700D01*
X102089009Y-101367791D01*
X102069100Y-101343533D01*
X102054307Y-101315857D01*
X102045199Y-101285833D01*
X102042000Y-101253350D01*
X102042000Y-100884650D01*
X102045199Y-100852167D01*
X102054307Y-100822143D01*
X102069100Y-100794467D01*
X102089009Y-100770209D01*
X102113267Y-100750300D01*
X102140943Y-100735507D01*
X102170967Y-100726399D01*
X102203450Y-100723200D01*
X102622150Y-100723200D01*
X102654633Y-100726399D01*
X102654633Y-100726399D01*
G37*
G36*
X123633288Y-99508338D02*
G01*
X123633291Y-99508339D01*
X123803088Y-99559846D01*
X123959578Y-99643492D01*
X124096743Y-99756061D01*
X124209312Y-99893226D01*
X124292958Y-100049716D01*
X124338575Y-100200096D01*
X124344466Y-100219516D01*
X124361858Y-100396104D01*
X124344466Y-100572692D01*
X124344465Y-100572695D01*
X124292958Y-100742492D01*
X124209312Y-100898982D01*
X124096743Y-101036147D01*
X123959578Y-101148716D01*
X123803088Y-101232362D01*
X123660448Y-101275631D01*
X123633288Y-101283870D01*
X123500949Y-101296904D01*
X123412451Y-101296904D01*
X123280112Y-101283870D01*
X123252952Y-101275631D01*
X123110312Y-101232362D01*
X122953822Y-101148716D01*
X122816657Y-101036147D01*
X122704088Y-100898982D01*
X122620442Y-100742492D01*
X122568935Y-100572695D01*
X122568934Y-100572692D01*
X122551542Y-100396104D01*
X122568934Y-100219516D01*
X122574825Y-100200096D01*
X122620442Y-100049716D01*
X122704088Y-99893226D01*
X122816657Y-99756061D01*
X122953822Y-99643492D01*
X123110312Y-99559846D01*
X123280109Y-99508339D01*
X123280112Y-99508338D01*
X123412451Y-99495304D01*
X123500949Y-99495304D01*
X123633288Y-99508338D01*
X123633288Y-99508338D01*
G37*
G36*
X114057488Y-99508338D02*
G01*
X114057491Y-99508339D01*
X114227288Y-99559846D01*
X114383778Y-99643492D01*
X114520943Y-99756061D01*
X114633512Y-99893226D01*
X114717158Y-100049716D01*
X114762775Y-100200096D01*
X114768666Y-100219516D01*
X114786058Y-100396104D01*
X114768666Y-100572692D01*
X114768665Y-100572695D01*
X114717158Y-100742492D01*
X114633512Y-100898982D01*
X114520943Y-101036147D01*
X114383778Y-101148716D01*
X114227288Y-101232362D01*
X114084648Y-101275631D01*
X114057488Y-101283870D01*
X113925149Y-101296904D01*
X113836651Y-101296904D01*
X113704312Y-101283870D01*
X113677152Y-101275631D01*
X113534512Y-101232362D01*
X113378022Y-101148716D01*
X113240857Y-101036147D01*
X113128288Y-100898982D01*
X113044642Y-100742492D01*
X112993135Y-100572695D01*
X112993134Y-100572692D01*
X112975742Y-100396104D01*
X112993134Y-100219516D01*
X112999025Y-100200096D01*
X113044642Y-100049716D01*
X113128288Y-99893226D01*
X113240857Y-99756061D01*
X113378022Y-99643492D01*
X113534512Y-99559846D01*
X113704309Y-99508339D01*
X113704312Y-99508338D01*
X113836651Y-99495304D01*
X113925149Y-99495304D01*
X114057488Y-99508338D01*
X114057488Y-99508338D01*
G37*
G36*
X121093288Y-99508338D02*
G01*
X121093291Y-99508339D01*
X121263088Y-99559846D01*
X121419578Y-99643492D01*
X121556743Y-99756061D01*
X121669312Y-99893226D01*
X121752958Y-100049716D01*
X121798575Y-100200096D01*
X121804466Y-100219516D01*
X121821858Y-100396104D01*
X121804466Y-100572692D01*
X121804465Y-100572695D01*
X121752958Y-100742492D01*
X121669312Y-100898982D01*
X121556743Y-101036147D01*
X121419578Y-101148716D01*
X121263088Y-101232362D01*
X121120448Y-101275631D01*
X121093288Y-101283870D01*
X120960949Y-101296904D01*
X120872451Y-101296904D01*
X120740112Y-101283870D01*
X120712952Y-101275631D01*
X120570312Y-101232362D01*
X120413822Y-101148716D01*
X120276657Y-101036147D01*
X120164088Y-100898982D01*
X120080442Y-100742492D01*
X120028935Y-100572695D01*
X120028934Y-100572692D01*
X120011542Y-100396104D01*
X120028934Y-100219516D01*
X120034825Y-100200096D01*
X120080442Y-100049716D01*
X120164088Y-99893226D01*
X120276657Y-99756061D01*
X120413822Y-99643492D01*
X120570312Y-99559846D01*
X120740109Y-99508339D01*
X120740112Y-99508338D01*
X120872451Y-99495304D01*
X120960949Y-99495304D01*
X121093288Y-99508338D01*
X121093288Y-99508338D01*
G37*
G36*
X88386920Y-101066600D02*
G01*
X87726520Y-101066600D01*
X87726520Y-99695000D01*
X88386920Y-99695000D01*
X88386920Y-101066600D01*
X88386920Y-101066600D01*
G37*
G36*
X94018100Y-101066600D02*
G01*
X93357700Y-101066600D01*
X93357700Y-99695000D01*
X94018100Y-99695000D01*
X94018100Y-101066600D01*
X94018100Y-101066600D01*
G37*
G36*
X92113100Y-101066600D02*
G01*
X91452700Y-101066600D01*
X91452700Y-99695000D01*
X92113100Y-99695000D01*
X92113100Y-101066600D01*
X92113100Y-101066600D01*
G37*
G36*
X90291920Y-101066600D02*
G01*
X89631520Y-101066600D01*
X89631520Y-99695000D01*
X90291920Y-99695000D01*
X90291920Y-101066600D01*
X90291920Y-101066600D01*
G37*
G36*
X102654633Y-99756399D02*
G01*
X102684657Y-99765507D01*
X102712333Y-99780300D01*
X102736591Y-99800209D01*
X102756500Y-99824467D01*
X102771293Y-99852143D01*
X102780401Y-99882167D01*
X102783600Y-99914650D01*
X102783600Y-100283350D01*
X102780401Y-100315833D01*
X102771293Y-100345857D01*
X102756500Y-100373533D01*
X102736591Y-100397791D01*
X102712333Y-100417700D01*
X102684657Y-100432493D01*
X102654633Y-100441601D01*
X102622150Y-100444800D01*
X102203450Y-100444800D01*
X102170967Y-100441601D01*
X102140943Y-100432493D01*
X102113267Y-100417700D01*
X102089009Y-100397791D01*
X102069100Y-100373533D01*
X102054307Y-100345857D01*
X102045199Y-100315833D01*
X102042000Y-100283350D01*
X102042000Y-99914650D01*
X102045199Y-99882167D01*
X102054307Y-99852143D01*
X102069100Y-99824467D01*
X102089009Y-99800209D01*
X102113267Y-99780300D01*
X102140943Y-99765507D01*
X102170967Y-99756399D01*
X102203450Y-99753200D01*
X102622150Y-99753200D01*
X102654633Y-99756399D01*
X102654633Y-99756399D01*
G37*
G36*
X86994167Y-98374207D02*
G01*
X87131532Y-98431105D01*
X87255157Y-98513709D01*
X87360291Y-98618843D01*
X87442895Y-98742468D01*
X87499793Y-98879833D01*
X87528800Y-99025659D01*
X87528800Y-99174341D01*
X87499793Y-99320167D01*
X87442895Y-99457532D01*
X87360291Y-99581157D01*
X87255157Y-99686291D01*
X87131532Y-99768895D01*
X86994167Y-99825793D01*
X86848341Y-99854800D01*
X86699659Y-99854800D01*
X86553833Y-99825793D01*
X86416468Y-99768895D01*
X86292843Y-99686291D01*
X86187709Y-99581157D01*
X86105105Y-99457532D01*
X86048207Y-99320167D01*
X86019200Y-99174341D01*
X86019200Y-99025659D01*
X86048207Y-98879833D01*
X86105105Y-98742468D01*
X86187709Y-98618843D01*
X86292843Y-98513709D01*
X86416468Y-98431105D01*
X86553833Y-98374207D01*
X86699659Y-98345200D01*
X86848341Y-98345200D01*
X86994167Y-98374207D01*
X86994167Y-98374207D01*
G37*
G36*
X119823288Y-97308634D02*
G01*
X119823291Y-97308635D01*
X119993088Y-97360142D01*
X120149578Y-97443788D01*
X120286743Y-97556357D01*
X120399312Y-97693522D01*
X120482958Y-97850012D01*
X120501313Y-97910521D01*
X120534466Y-98019812D01*
X120551858Y-98196400D01*
X120534466Y-98372988D01*
X120534465Y-98372991D01*
X120482958Y-98542788D01*
X120399312Y-98699278D01*
X120286743Y-98836443D01*
X120149578Y-98949012D01*
X119993088Y-99032658D01*
X119842708Y-99078275D01*
X119823288Y-99084166D01*
X119690949Y-99097200D01*
X119602451Y-99097200D01*
X119470112Y-99084166D01*
X119450692Y-99078275D01*
X119300312Y-99032658D01*
X119143822Y-98949012D01*
X119006657Y-98836443D01*
X118894088Y-98699278D01*
X118810442Y-98542788D01*
X118758935Y-98372991D01*
X118758934Y-98372988D01*
X118741542Y-98196400D01*
X118758934Y-98019812D01*
X118792087Y-97910521D01*
X118810442Y-97850012D01*
X118894088Y-97693522D01*
X119006657Y-97556357D01*
X119143822Y-97443788D01*
X119300312Y-97360142D01*
X119470109Y-97308635D01*
X119470112Y-97308634D01*
X119602451Y-97295600D01*
X119690949Y-97295600D01*
X119823288Y-97308634D01*
X119823288Y-97308634D01*
G37*
G36*
X122363288Y-97308634D02*
G01*
X122363291Y-97308635D01*
X122533088Y-97360142D01*
X122689578Y-97443788D01*
X122826743Y-97556357D01*
X122939312Y-97693522D01*
X123022958Y-97850012D01*
X123041313Y-97910521D01*
X123074466Y-98019812D01*
X123091858Y-98196400D01*
X123074466Y-98372988D01*
X123074465Y-98372991D01*
X123022958Y-98542788D01*
X122939312Y-98699278D01*
X122826743Y-98836443D01*
X122689578Y-98949012D01*
X122533088Y-99032658D01*
X122382708Y-99078275D01*
X122363288Y-99084166D01*
X122230949Y-99097200D01*
X122142451Y-99097200D01*
X122010112Y-99084166D01*
X121990692Y-99078275D01*
X121840312Y-99032658D01*
X121683822Y-98949012D01*
X121546657Y-98836443D01*
X121434088Y-98699278D01*
X121350442Y-98542788D01*
X121298935Y-98372991D01*
X121298934Y-98372988D01*
X121281542Y-98196400D01*
X121298934Y-98019812D01*
X121332087Y-97910521D01*
X121350442Y-97850012D01*
X121434088Y-97693522D01*
X121546657Y-97556357D01*
X121683822Y-97443788D01*
X121840312Y-97360142D01*
X122010109Y-97308635D01*
X122010112Y-97308634D01*
X122142451Y-97295600D01*
X122230949Y-97295600D01*
X122363288Y-97308634D01*
X122363288Y-97308634D01*
G37*
G36*
X124903288Y-97308634D02*
G01*
X124903291Y-97308635D01*
X125073088Y-97360142D01*
X125229578Y-97443788D01*
X125366743Y-97556357D01*
X125479312Y-97693522D01*
X125562958Y-97850012D01*
X125581313Y-97910521D01*
X125614466Y-98019812D01*
X125631858Y-98196400D01*
X125614466Y-98372988D01*
X125614465Y-98372991D01*
X125562958Y-98542788D01*
X125479312Y-98699278D01*
X125366743Y-98836443D01*
X125229578Y-98949012D01*
X125073088Y-99032658D01*
X124922708Y-99078275D01*
X124903288Y-99084166D01*
X124770949Y-99097200D01*
X124682451Y-99097200D01*
X124550112Y-99084166D01*
X124530692Y-99078275D01*
X124380312Y-99032658D01*
X124223822Y-98949012D01*
X124086657Y-98836443D01*
X123974088Y-98699278D01*
X123890442Y-98542788D01*
X123838935Y-98372991D01*
X123838934Y-98372988D01*
X123821542Y-98196400D01*
X123838934Y-98019812D01*
X123872087Y-97910521D01*
X123890442Y-97850012D01*
X123974088Y-97693522D01*
X124086657Y-97556357D01*
X124223822Y-97443788D01*
X124380312Y-97360142D01*
X124550109Y-97308635D01*
X124550112Y-97308634D01*
X124682451Y-97295600D01*
X124770949Y-97295600D01*
X124903288Y-97308634D01*
X124903288Y-97308634D01*
G37*
G36*
X115327488Y-97308634D02*
G01*
X115327491Y-97308635D01*
X115497288Y-97360142D01*
X115653778Y-97443788D01*
X115790943Y-97556357D01*
X115903512Y-97693522D01*
X115987158Y-97850012D01*
X116005513Y-97910521D01*
X116038666Y-98019812D01*
X116056058Y-98196400D01*
X116038666Y-98372988D01*
X116038665Y-98372991D01*
X115987158Y-98542788D01*
X115903512Y-98699278D01*
X115790943Y-98836443D01*
X115653778Y-98949012D01*
X115497288Y-99032658D01*
X115346908Y-99078275D01*
X115327488Y-99084166D01*
X115195149Y-99097200D01*
X115106651Y-99097200D01*
X114974312Y-99084166D01*
X114954892Y-99078275D01*
X114804512Y-99032658D01*
X114648022Y-98949012D01*
X114510857Y-98836443D01*
X114398288Y-98699278D01*
X114314642Y-98542788D01*
X114263135Y-98372991D01*
X114263134Y-98372988D01*
X114245742Y-98196400D01*
X114263134Y-98019812D01*
X114296287Y-97910521D01*
X114314642Y-97850012D01*
X114398288Y-97693522D01*
X114510857Y-97556357D01*
X114648022Y-97443788D01*
X114804512Y-97360142D01*
X114974309Y-97308635D01*
X114974312Y-97308634D01*
X115106651Y-97295600D01*
X115195149Y-97295600D01*
X115327488Y-97308634D01*
X115327488Y-97308634D01*
G37*
G36*
X112787488Y-97308634D02*
G01*
X112787491Y-97308635D01*
X112957288Y-97360142D01*
X113113778Y-97443788D01*
X113250943Y-97556357D01*
X113363512Y-97693522D01*
X113447158Y-97850012D01*
X113465513Y-97910521D01*
X113498666Y-98019812D01*
X113516058Y-98196400D01*
X113498666Y-98372988D01*
X113498665Y-98372991D01*
X113447158Y-98542788D01*
X113363512Y-98699278D01*
X113250943Y-98836443D01*
X113113778Y-98949012D01*
X112957288Y-99032658D01*
X112806908Y-99078275D01*
X112787488Y-99084166D01*
X112655149Y-99097200D01*
X112566651Y-99097200D01*
X112434312Y-99084166D01*
X112414892Y-99078275D01*
X112264512Y-99032658D01*
X112108022Y-98949012D01*
X111970857Y-98836443D01*
X111858288Y-98699278D01*
X111774642Y-98542788D01*
X111723135Y-98372991D01*
X111723134Y-98372988D01*
X111705742Y-98196400D01*
X111723134Y-98019812D01*
X111756287Y-97910521D01*
X111774642Y-97850012D01*
X111858288Y-97693522D01*
X111970857Y-97556357D01*
X112108022Y-97443788D01*
X112264512Y-97360142D01*
X112434309Y-97308635D01*
X112434312Y-97308634D01*
X112566651Y-97295600D01*
X112655149Y-97295600D01*
X112787488Y-97308634D01*
X112787488Y-97308634D01*
G37*
G36*
X84351338Y-97185738D02*
G01*
X84524373Y-97257412D01*
X84680100Y-97361465D01*
X84812535Y-97493900D01*
X84916588Y-97649627D01*
X84988262Y-97822662D01*
X85024800Y-98006354D01*
X85024800Y-98193646D01*
X84988262Y-98377338D01*
X84916588Y-98550373D01*
X84812535Y-98706100D01*
X84680100Y-98838535D01*
X84524373Y-98942588D01*
X84351338Y-99014262D01*
X84167646Y-99050800D01*
X83980354Y-99050800D01*
X83796662Y-99014262D01*
X83623627Y-98942588D01*
X83467900Y-98838535D01*
X83335465Y-98706100D01*
X83231412Y-98550373D01*
X83159738Y-98377338D01*
X83123200Y-98193646D01*
X83123200Y-98006354D01*
X83159738Y-97822662D01*
X83231412Y-97649627D01*
X83335465Y-97493900D01*
X83467900Y-97361465D01*
X83623627Y-97257412D01*
X83796662Y-97185738D01*
X83980354Y-97149200D01*
X84167646Y-97149200D01*
X84351338Y-97185738D01*
X84351338Y-97185738D01*
G37*
G36*
X93696053Y-98155919D02*
G01*
X93726077Y-98165027D01*
X93753753Y-98179820D01*
X93778011Y-98199729D01*
X93797920Y-98223987D01*
X93812713Y-98251663D01*
X93821821Y-98281687D01*
X93825020Y-98314170D01*
X93825020Y-98682870D01*
X93821821Y-98715353D01*
X93812713Y-98745377D01*
X93797920Y-98773053D01*
X93778011Y-98797311D01*
X93753753Y-98817220D01*
X93726077Y-98832013D01*
X93696053Y-98841121D01*
X93663570Y-98844320D01*
X93244870Y-98844320D01*
X93212387Y-98841121D01*
X93182363Y-98832013D01*
X93154687Y-98817220D01*
X93130429Y-98797311D01*
X93110520Y-98773053D01*
X93095727Y-98745377D01*
X93086619Y-98715353D01*
X93083420Y-98682870D01*
X93083420Y-98314170D01*
X93086619Y-98281687D01*
X93095727Y-98251663D01*
X93110520Y-98223987D01*
X93130429Y-98199729D01*
X93154687Y-98179820D01*
X93182363Y-98165027D01*
X93212387Y-98155919D01*
X93244870Y-98152720D01*
X93663570Y-98152720D01*
X93696053Y-98155919D01*
X93696053Y-98155919D01*
G37*
G36*
X90397200Y-98291889D02*
G01*
X90401559Y-98292756D01*
X90433555Y-98306008D01*
X90462343Y-98325244D01*
X90486836Y-98349737D01*
X90506072Y-98378525D01*
X90519324Y-98410521D01*
X90526080Y-98444486D01*
X90526080Y-98479114D01*
X90519324Y-98513079D01*
X90506072Y-98545075D01*
X90486836Y-98573863D01*
X90462343Y-98598356D01*
X90433555Y-98617592D01*
X90401559Y-98630844D01*
X90367595Y-98637600D01*
X90332965Y-98637600D01*
X90299001Y-98630844D01*
X90267005Y-98617592D01*
X90238217Y-98598356D01*
X90213724Y-98573863D01*
X90194488Y-98545075D01*
X90181236Y-98513079D01*
X90174480Y-98479114D01*
X90174480Y-98444486D01*
X90181236Y-98410521D01*
X90194488Y-98378525D01*
X90213724Y-98349737D01*
X90238217Y-98325244D01*
X90267005Y-98306008D01*
X90299001Y-98292756D01*
X90303360Y-98291889D01*
X90332965Y-98286000D01*
X90367595Y-98286000D01*
X90397200Y-98291889D01*
X90397200Y-98291889D01*
G37*
G36*
X90897200Y-98291889D02*
G01*
X90901559Y-98292756D01*
X90933555Y-98306008D01*
X90962343Y-98325244D01*
X90986836Y-98349737D01*
X91006072Y-98378525D01*
X91019324Y-98410521D01*
X91026080Y-98444486D01*
X91026080Y-98479114D01*
X91019324Y-98513079D01*
X91006072Y-98545075D01*
X90986836Y-98573863D01*
X90962343Y-98598356D01*
X90933555Y-98617592D01*
X90901559Y-98630844D01*
X90867595Y-98637600D01*
X90832965Y-98637600D01*
X90799001Y-98630844D01*
X90767005Y-98617592D01*
X90738217Y-98598356D01*
X90713724Y-98573863D01*
X90694488Y-98545075D01*
X90681236Y-98513079D01*
X90674480Y-98479114D01*
X90674480Y-98444486D01*
X90681236Y-98410521D01*
X90694488Y-98378525D01*
X90713724Y-98349737D01*
X90738217Y-98325244D01*
X90767005Y-98306008D01*
X90799001Y-98292756D01*
X90803360Y-98291889D01*
X90832965Y-98286000D01*
X90867595Y-98286000D01*
X90897200Y-98291889D01*
X90897200Y-98291889D01*
G37*
G36*
X91397200Y-98291889D02*
G01*
X91401559Y-98292756D01*
X91433555Y-98306008D01*
X91462343Y-98325244D01*
X91486836Y-98349737D01*
X91506072Y-98378525D01*
X91519324Y-98410521D01*
X91526080Y-98444486D01*
X91526080Y-98479114D01*
X91519324Y-98513079D01*
X91506072Y-98545075D01*
X91486836Y-98573863D01*
X91462343Y-98598356D01*
X91433555Y-98617592D01*
X91401559Y-98630844D01*
X91367595Y-98637600D01*
X91332965Y-98637600D01*
X91299001Y-98630844D01*
X91267005Y-98617592D01*
X91238217Y-98598356D01*
X91213724Y-98573863D01*
X91194488Y-98545075D01*
X91181236Y-98513079D01*
X91174480Y-98479114D01*
X91174480Y-98444486D01*
X91181236Y-98410521D01*
X91194488Y-98378525D01*
X91213724Y-98349737D01*
X91238217Y-98325244D01*
X91267005Y-98306008D01*
X91299001Y-98292756D01*
X91303360Y-98291889D01*
X91332965Y-98286000D01*
X91367595Y-98286000D01*
X91397200Y-98291889D01*
X91397200Y-98291889D01*
G37*
G36*
X91897200Y-98291889D02*
G01*
X91901559Y-98292756D01*
X91933555Y-98306008D01*
X91962343Y-98325244D01*
X91986836Y-98349737D01*
X92006072Y-98378525D01*
X92019324Y-98410521D01*
X92026080Y-98444486D01*
X92026080Y-98479114D01*
X92019324Y-98513079D01*
X92006072Y-98545075D01*
X91986836Y-98573863D01*
X91962343Y-98598356D01*
X91933555Y-98617592D01*
X91901559Y-98630844D01*
X91867595Y-98637600D01*
X91832965Y-98637600D01*
X91799001Y-98630844D01*
X91767005Y-98617592D01*
X91738217Y-98598356D01*
X91713724Y-98573863D01*
X91694488Y-98545075D01*
X91681236Y-98513079D01*
X91674480Y-98479114D01*
X91674480Y-98444486D01*
X91681236Y-98410521D01*
X91694488Y-98378525D01*
X91713724Y-98349737D01*
X91738217Y-98325244D01*
X91767005Y-98306008D01*
X91799001Y-98292756D01*
X91803360Y-98291889D01*
X91832965Y-98286000D01*
X91867595Y-98286000D01*
X91897200Y-98291889D01*
X91897200Y-98291889D01*
G37*
G36*
X88984613Y-97590039D02*
G01*
X89014637Y-97599147D01*
X89042313Y-97613940D01*
X89066571Y-97633849D01*
X89086480Y-97658107D01*
X89101273Y-97685783D01*
X89110381Y-97715807D01*
X89113580Y-97748290D01*
X89113580Y-98166990D01*
X89110381Y-98199473D01*
X89101273Y-98229497D01*
X89086480Y-98257173D01*
X89066571Y-98281431D01*
X89042313Y-98301340D01*
X89014637Y-98316133D01*
X88984613Y-98325241D01*
X88952130Y-98328440D01*
X88583430Y-98328440D01*
X88550947Y-98325241D01*
X88520923Y-98316133D01*
X88493247Y-98301340D01*
X88468989Y-98281431D01*
X88449080Y-98257173D01*
X88434287Y-98229497D01*
X88425179Y-98199473D01*
X88421980Y-98166990D01*
X88421980Y-97748290D01*
X88425179Y-97715807D01*
X88434287Y-97685783D01*
X88449080Y-97658107D01*
X88468989Y-97633849D01*
X88493247Y-97613940D01*
X88520923Y-97599147D01*
X88550947Y-97590039D01*
X88583430Y-97586840D01*
X88952130Y-97586840D01*
X88984613Y-97590039D01*
X88984613Y-97590039D01*
G37*
G36*
X88014613Y-97590039D02*
G01*
X88044637Y-97599147D01*
X88072313Y-97613940D01*
X88096571Y-97633849D01*
X88116480Y-97658107D01*
X88131273Y-97685783D01*
X88140381Y-97715807D01*
X88143580Y-97748290D01*
X88143580Y-98166990D01*
X88140381Y-98199473D01*
X88131273Y-98229497D01*
X88116480Y-98257173D01*
X88096571Y-98281431D01*
X88072313Y-98301340D01*
X88044637Y-98316133D01*
X88014613Y-98325241D01*
X87982130Y-98328440D01*
X87613430Y-98328440D01*
X87580947Y-98325241D01*
X87550923Y-98316133D01*
X87523247Y-98301340D01*
X87498989Y-98281431D01*
X87479080Y-98257173D01*
X87464287Y-98229497D01*
X87455179Y-98199473D01*
X87451980Y-98166990D01*
X87451980Y-97748290D01*
X87455179Y-97715807D01*
X87464287Y-97685783D01*
X87479080Y-97658107D01*
X87498989Y-97633849D01*
X87523247Y-97613940D01*
X87550923Y-97599147D01*
X87580947Y-97590039D01*
X87613430Y-97586840D01*
X87982130Y-97586840D01*
X88014613Y-97590039D01*
X88014613Y-97590039D01*
G37*
G36*
X90401559Y-97792756D02*
G01*
X90433555Y-97806008D01*
X90462343Y-97825244D01*
X90486836Y-97849737D01*
X90506072Y-97878525D01*
X90519324Y-97910521D01*
X90526080Y-97944485D01*
X90526080Y-97979115D01*
X90519324Y-98013079D01*
X90506072Y-98045075D01*
X90486836Y-98073863D01*
X90462343Y-98098356D01*
X90433555Y-98117592D01*
X90401559Y-98130844D01*
X90367595Y-98137600D01*
X90332965Y-98137600D01*
X90299001Y-98130844D01*
X90267005Y-98117592D01*
X90238217Y-98098356D01*
X90213724Y-98073863D01*
X90194488Y-98045075D01*
X90181236Y-98013079D01*
X90174480Y-97979115D01*
X90174480Y-97944485D01*
X90181236Y-97910521D01*
X90194488Y-97878525D01*
X90213724Y-97849737D01*
X90238217Y-97825244D01*
X90267005Y-97806008D01*
X90299001Y-97792756D01*
X90332965Y-97786000D01*
X90367595Y-97786000D01*
X90401559Y-97792756D01*
X90401559Y-97792756D01*
G37*
G36*
X90901559Y-97792756D02*
G01*
X90933555Y-97806008D01*
X90962343Y-97825244D01*
X90986836Y-97849737D01*
X91006072Y-97878525D01*
X91019324Y-97910521D01*
X91026080Y-97944485D01*
X91026080Y-97979115D01*
X91019324Y-98013079D01*
X91006072Y-98045075D01*
X90986836Y-98073863D01*
X90962343Y-98098356D01*
X90933555Y-98117592D01*
X90901559Y-98130844D01*
X90867595Y-98137600D01*
X90832965Y-98137600D01*
X90799001Y-98130844D01*
X90767005Y-98117592D01*
X90738217Y-98098356D01*
X90713724Y-98073863D01*
X90694488Y-98045075D01*
X90681236Y-98013079D01*
X90674480Y-97979115D01*
X90674480Y-97944485D01*
X90681236Y-97910521D01*
X90694488Y-97878525D01*
X90713724Y-97849737D01*
X90738217Y-97825244D01*
X90767005Y-97806008D01*
X90799001Y-97792756D01*
X90832965Y-97786000D01*
X90867595Y-97786000D01*
X90901559Y-97792756D01*
X90901559Y-97792756D01*
G37*
G36*
X91401559Y-97792756D02*
G01*
X91433555Y-97806008D01*
X91462343Y-97825244D01*
X91486836Y-97849737D01*
X91506072Y-97878525D01*
X91519324Y-97910521D01*
X91526080Y-97944485D01*
X91526080Y-97979115D01*
X91519324Y-98013079D01*
X91506072Y-98045075D01*
X91486836Y-98073863D01*
X91462343Y-98098356D01*
X91433555Y-98117592D01*
X91401559Y-98130844D01*
X91367595Y-98137600D01*
X91332965Y-98137600D01*
X91299001Y-98130844D01*
X91267005Y-98117592D01*
X91238217Y-98098356D01*
X91213724Y-98073863D01*
X91194488Y-98045075D01*
X91181236Y-98013079D01*
X91174480Y-97979115D01*
X91174480Y-97944485D01*
X91181236Y-97910521D01*
X91194488Y-97878525D01*
X91213724Y-97849737D01*
X91238217Y-97825244D01*
X91267005Y-97806008D01*
X91299001Y-97792756D01*
X91332965Y-97786000D01*
X91367595Y-97786000D01*
X91401559Y-97792756D01*
X91401559Y-97792756D01*
G37*
G36*
X91901559Y-97792756D02*
G01*
X91933555Y-97806008D01*
X91962343Y-97825244D01*
X91986836Y-97849737D01*
X92006072Y-97878525D01*
X92019324Y-97910521D01*
X92026080Y-97944485D01*
X92026080Y-97979115D01*
X92019324Y-98013079D01*
X92006072Y-98045075D01*
X91986836Y-98073863D01*
X91962343Y-98098356D01*
X91933555Y-98117592D01*
X91901559Y-98130844D01*
X91867595Y-98137600D01*
X91832965Y-98137600D01*
X91799001Y-98130844D01*
X91767005Y-98117592D01*
X91738217Y-98098356D01*
X91713724Y-98073863D01*
X91694488Y-98045075D01*
X91681236Y-98013079D01*
X91674480Y-97979115D01*
X91674480Y-97944485D01*
X91681236Y-97910521D01*
X91694488Y-97878525D01*
X91713724Y-97849737D01*
X91738217Y-97825244D01*
X91767005Y-97806008D01*
X91799001Y-97792756D01*
X91832965Y-97786000D01*
X91867595Y-97786000D01*
X91901559Y-97792756D01*
X91901559Y-97792756D01*
G37*
G36*
X93696053Y-97185919D02*
G01*
X93726077Y-97195027D01*
X93753753Y-97209820D01*
X93778011Y-97229729D01*
X93797920Y-97253987D01*
X93812713Y-97281663D01*
X93821821Y-97311687D01*
X93825020Y-97344170D01*
X93825020Y-97712870D01*
X93821821Y-97745353D01*
X93812713Y-97775377D01*
X93797920Y-97803053D01*
X93778011Y-97827311D01*
X93753753Y-97847220D01*
X93726077Y-97862013D01*
X93696053Y-97871121D01*
X93663570Y-97874320D01*
X93244870Y-97874320D01*
X93212387Y-97871121D01*
X93182363Y-97862013D01*
X93154687Y-97847220D01*
X93130429Y-97827311D01*
X93110520Y-97803053D01*
X93095727Y-97775377D01*
X93086619Y-97745353D01*
X93083420Y-97712870D01*
X93083420Y-97344170D01*
X93086619Y-97311687D01*
X93095727Y-97281663D01*
X93110520Y-97253987D01*
X93130429Y-97229729D01*
X93154687Y-97209820D01*
X93182363Y-97195027D01*
X93212387Y-97185919D01*
X93244870Y-97182720D01*
X93663570Y-97182720D01*
X93696053Y-97185919D01*
X93696053Y-97185919D01*
G37*
G36*
X91384959Y-97289454D02*
G01*
X91401559Y-97292756D01*
X91433555Y-97306008D01*
X91462343Y-97325244D01*
X91486836Y-97349737D01*
X91506072Y-97378525D01*
X91519324Y-97410521D01*
X91525942Y-97443789D01*
X91526080Y-97444486D01*
X91526080Y-97479114D01*
X91519324Y-97513079D01*
X91506072Y-97545075D01*
X91486836Y-97573863D01*
X91462343Y-97598356D01*
X91433555Y-97617592D01*
X91401559Y-97630844D01*
X91367595Y-97637600D01*
X91332965Y-97637600D01*
X91299001Y-97630844D01*
X91267005Y-97617592D01*
X91238217Y-97598356D01*
X91213724Y-97573863D01*
X91194488Y-97545075D01*
X91181236Y-97513079D01*
X91174480Y-97479114D01*
X91174480Y-97444486D01*
X91174619Y-97443789D01*
X91181236Y-97410521D01*
X91194488Y-97378525D01*
X91213724Y-97349737D01*
X91238217Y-97325244D01*
X91267005Y-97306008D01*
X91299001Y-97292756D01*
X91315601Y-97289454D01*
X91332965Y-97286000D01*
X91367595Y-97286000D01*
X91384959Y-97289454D01*
X91384959Y-97289454D01*
G37*
G36*
X90384959Y-97289454D02*
G01*
X90401559Y-97292756D01*
X90433555Y-97306008D01*
X90462343Y-97325244D01*
X90486836Y-97349737D01*
X90506072Y-97378525D01*
X90519324Y-97410521D01*
X90525942Y-97443789D01*
X90526080Y-97444486D01*
X90526080Y-97479114D01*
X90519324Y-97513079D01*
X90506072Y-97545075D01*
X90486836Y-97573863D01*
X90462343Y-97598356D01*
X90433555Y-97617592D01*
X90401559Y-97630844D01*
X90367595Y-97637600D01*
X90332965Y-97637600D01*
X90299001Y-97630844D01*
X90267005Y-97617592D01*
X90238217Y-97598356D01*
X90213724Y-97573863D01*
X90194488Y-97545075D01*
X90181236Y-97513079D01*
X90174480Y-97479114D01*
X90174480Y-97444486D01*
X90174619Y-97443789D01*
X90181236Y-97410521D01*
X90194488Y-97378525D01*
X90213724Y-97349737D01*
X90238217Y-97325244D01*
X90267005Y-97306008D01*
X90299001Y-97292756D01*
X90315601Y-97289454D01*
X90332965Y-97286000D01*
X90367595Y-97286000D01*
X90384959Y-97289454D01*
X90384959Y-97289454D01*
G37*
G36*
X90884959Y-97289454D02*
G01*
X90901559Y-97292756D01*
X90933555Y-97306008D01*
X90962343Y-97325244D01*
X90986836Y-97349737D01*
X91006072Y-97378525D01*
X91019324Y-97410521D01*
X91025942Y-97443789D01*
X91026080Y-97444486D01*
X91026080Y-97479114D01*
X91019324Y-97513079D01*
X91006072Y-97545075D01*
X90986836Y-97573863D01*
X90962343Y-97598356D01*
X90933555Y-97617592D01*
X90901559Y-97630844D01*
X90867595Y-97637600D01*
X90832965Y-97637600D01*
X90799001Y-97630844D01*
X90767005Y-97617592D01*
X90738217Y-97598356D01*
X90713724Y-97573863D01*
X90694488Y-97545075D01*
X90681236Y-97513079D01*
X90674480Y-97479114D01*
X90674480Y-97444486D01*
X90674619Y-97443789D01*
X90681236Y-97410521D01*
X90694488Y-97378525D01*
X90713724Y-97349737D01*
X90738217Y-97325244D01*
X90767005Y-97306008D01*
X90799001Y-97292756D01*
X90815601Y-97289454D01*
X90832965Y-97286000D01*
X90867595Y-97286000D01*
X90884959Y-97289454D01*
X90884959Y-97289454D01*
G37*
G36*
X91884959Y-97289454D02*
G01*
X91901559Y-97292756D01*
X91933555Y-97306008D01*
X91962343Y-97325244D01*
X91986836Y-97349737D01*
X92006072Y-97378525D01*
X92019324Y-97410521D01*
X92025942Y-97443789D01*
X92026080Y-97444486D01*
X92026080Y-97479114D01*
X92019324Y-97513079D01*
X92006072Y-97545075D01*
X91986836Y-97573863D01*
X91962343Y-97598356D01*
X91933555Y-97617592D01*
X91901559Y-97630844D01*
X91867595Y-97637600D01*
X91832965Y-97637600D01*
X91799001Y-97630844D01*
X91767005Y-97617592D01*
X91738217Y-97598356D01*
X91713724Y-97573863D01*
X91694488Y-97545075D01*
X91681236Y-97513079D01*
X91674480Y-97479114D01*
X91674480Y-97444486D01*
X91674619Y-97443789D01*
X91681236Y-97410521D01*
X91694488Y-97378525D01*
X91713724Y-97349737D01*
X91738217Y-97325244D01*
X91767005Y-97306008D01*
X91799001Y-97292756D01*
X91815601Y-97289454D01*
X91832965Y-97286000D01*
X91867595Y-97286000D01*
X91884959Y-97289454D01*
X91884959Y-97289454D01*
G37*
G36*
X90401559Y-96792756D02*
G01*
X90433555Y-96806008D01*
X90462343Y-96825244D01*
X90486836Y-96849737D01*
X90506072Y-96878525D01*
X90519324Y-96910521D01*
X90526080Y-96944486D01*
X90526080Y-96979114D01*
X90519324Y-97013079D01*
X90506072Y-97045075D01*
X90486836Y-97073863D01*
X90462343Y-97098356D01*
X90433555Y-97117592D01*
X90401559Y-97130844D01*
X90367595Y-97137600D01*
X90332965Y-97137600D01*
X90299001Y-97130844D01*
X90267005Y-97117592D01*
X90238217Y-97098356D01*
X90213724Y-97073863D01*
X90194488Y-97045075D01*
X90181236Y-97013079D01*
X90174480Y-96979114D01*
X90174480Y-96944486D01*
X90181236Y-96910521D01*
X90194488Y-96878525D01*
X90213724Y-96849737D01*
X90238217Y-96825244D01*
X90267005Y-96806008D01*
X90299001Y-96792756D01*
X90332965Y-96786000D01*
X90367595Y-96786000D01*
X90401559Y-96792756D01*
X90401559Y-96792756D01*
G37*
G36*
X91901559Y-96792756D02*
G01*
X91933555Y-96806008D01*
X91962343Y-96825244D01*
X91986836Y-96849737D01*
X92006072Y-96878525D01*
X92019324Y-96910521D01*
X92026080Y-96944486D01*
X92026080Y-96979114D01*
X92019324Y-97013079D01*
X92006072Y-97045075D01*
X91986836Y-97073863D01*
X91962343Y-97098356D01*
X91933555Y-97117592D01*
X91901559Y-97130844D01*
X91867595Y-97137600D01*
X91832965Y-97137600D01*
X91799001Y-97130844D01*
X91767005Y-97117592D01*
X91738217Y-97098356D01*
X91713724Y-97073863D01*
X91694488Y-97045075D01*
X91681236Y-97013079D01*
X91674480Y-96979114D01*
X91674480Y-96944486D01*
X91681236Y-96910521D01*
X91694488Y-96878525D01*
X91713724Y-96849737D01*
X91738217Y-96825244D01*
X91767005Y-96806008D01*
X91799001Y-96792756D01*
X91832965Y-96786000D01*
X91867595Y-96786000D01*
X91901559Y-96792756D01*
X91901559Y-96792756D01*
G37*
G36*
X91401559Y-96792756D02*
G01*
X91433555Y-96806008D01*
X91462343Y-96825244D01*
X91486836Y-96849737D01*
X91506072Y-96878525D01*
X91519324Y-96910521D01*
X91526080Y-96944486D01*
X91526080Y-96979114D01*
X91519324Y-97013079D01*
X91506072Y-97045075D01*
X91486836Y-97073863D01*
X91462343Y-97098356D01*
X91433555Y-97117592D01*
X91401559Y-97130844D01*
X91367595Y-97137600D01*
X91332965Y-97137600D01*
X91299001Y-97130844D01*
X91267005Y-97117592D01*
X91238217Y-97098356D01*
X91213724Y-97073863D01*
X91194488Y-97045075D01*
X91181236Y-97013079D01*
X91174480Y-96979114D01*
X91174480Y-96944486D01*
X91181236Y-96910521D01*
X91194488Y-96878525D01*
X91213724Y-96849737D01*
X91238217Y-96825244D01*
X91267005Y-96806008D01*
X91299001Y-96792756D01*
X91332965Y-96786000D01*
X91367595Y-96786000D01*
X91401559Y-96792756D01*
X91401559Y-96792756D01*
G37*
G36*
X90901559Y-96792756D02*
G01*
X90933555Y-96806008D01*
X90962343Y-96825244D01*
X90986836Y-96849737D01*
X91006072Y-96878525D01*
X91019324Y-96910521D01*
X91026080Y-96944486D01*
X91026080Y-96979114D01*
X91019324Y-97013079D01*
X91006072Y-97045075D01*
X90986836Y-97073863D01*
X90962343Y-97098356D01*
X90933555Y-97117592D01*
X90901559Y-97130844D01*
X90867595Y-97137600D01*
X90832965Y-97137600D01*
X90799001Y-97130844D01*
X90767005Y-97117592D01*
X90738217Y-97098356D01*
X90713724Y-97073863D01*
X90694488Y-97045075D01*
X90681236Y-97013079D01*
X90674480Y-96979114D01*
X90674480Y-96944486D01*
X90681236Y-96910521D01*
X90694488Y-96878525D01*
X90713724Y-96849737D01*
X90738217Y-96825244D01*
X90767005Y-96806008D01*
X90799001Y-96792756D01*
X90832965Y-96786000D01*
X90867595Y-96786000D01*
X90901559Y-96792756D01*
X90901559Y-96792756D01*
G37*
G36*
X90401559Y-96292756D02*
G01*
X90433555Y-96306008D01*
X90462343Y-96325244D01*
X90486836Y-96349737D01*
X90506072Y-96378525D01*
X90519324Y-96410521D01*
X90526080Y-96444486D01*
X90526080Y-96479114D01*
X90519324Y-96513079D01*
X90506072Y-96545075D01*
X90486836Y-96573863D01*
X90462343Y-96598356D01*
X90433555Y-96617592D01*
X90401559Y-96630844D01*
X90367595Y-96637600D01*
X90332965Y-96637600D01*
X90299001Y-96630844D01*
X90267005Y-96617592D01*
X90238217Y-96598356D01*
X90213724Y-96573863D01*
X90194488Y-96545075D01*
X90181236Y-96513079D01*
X90174480Y-96479114D01*
X90174480Y-96444486D01*
X90181236Y-96410521D01*
X90194488Y-96378525D01*
X90213724Y-96349737D01*
X90238217Y-96325244D01*
X90267005Y-96306008D01*
X90299001Y-96292756D01*
X90332965Y-96286000D01*
X90367595Y-96286000D01*
X90401559Y-96292756D01*
X90401559Y-96292756D01*
G37*
G36*
X91401559Y-96292756D02*
G01*
X91433555Y-96306008D01*
X91462343Y-96325244D01*
X91486836Y-96349737D01*
X91506072Y-96378525D01*
X91519324Y-96410521D01*
X91526080Y-96444486D01*
X91526080Y-96479114D01*
X91519324Y-96513079D01*
X91506072Y-96545075D01*
X91486836Y-96573863D01*
X91462343Y-96598356D01*
X91433555Y-96617592D01*
X91401559Y-96630844D01*
X91367595Y-96637600D01*
X91332965Y-96637600D01*
X91299001Y-96630844D01*
X91267005Y-96617592D01*
X91238217Y-96598356D01*
X91213724Y-96573863D01*
X91194488Y-96545075D01*
X91181236Y-96513079D01*
X91174480Y-96479114D01*
X91174480Y-96444486D01*
X91181236Y-96410521D01*
X91194488Y-96378525D01*
X91213724Y-96349737D01*
X91238217Y-96325244D01*
X91267005Y-96306008D01*
X91299001Y-96292756D01*
X91332965Y-96286000D01*
X91367595Y-96286000D01*
X91401559Y-96292756D01*
X91401559Y-96292756D01*
G37*
G36*
X91901559Y-96292756D02*
G01*
X91933555Y-96306008D01*
X91962343Y-96325244D01*
X91986836Y-96349737D01*
X92006072Y-96378525D01*
X92019324Y-96410521D01*
X92026080Y-96444486D01*
X92026080Y-96479114D01*
X92019324Y-96513079D01*
X92006072Y-96545075D01*
X91986836Y-96573863D01*
X91962343Y-96598356D01*
X91933555Y-96617592D01*
X91901559Y-96630844D01*
X91867595Y-96637600D01*
X91832965Y-96637600D01*
X91799001Y-96630844D01*
X91767005Y-96617592D01*
X91738217Y-96598356D01*
X91713724Y-96573863D01*
X91694488Y-96545075D01*
X91681236Y-96513079D01*
X91674480Y-96479114D01*
X91674480Y-96444486D01*
X91681236Y-96410521D01*
X91694488Y-96378525D01*
X91713724Y-96349737D01*
X91738217Y-96325244D01*
X91767005Y-96306008D01*
X91799001Y-96292756D01*
X91832965Y-96286000D01*
X91867595Y-96286000D01*
X91901559Y-96292756D01*
X91901559Y-96292756D01*
G37*
G36*
X90901559Y-96292756D02*
G01*
X90933555Y-96306008D01*
X90962343Y-96325244D01*
X90986836Y-96349737D01*
X91006072Y-96378525D01*
X91019324Y-96410521D01*
X91026080Y-96444486D01*
X91026080Y-96479114D01*
X91019324Y-96513079D01*
X91006072Y-96545075D01*
X90986836Y-96573863D01*
X90962343Y-96598356D01*
X90933555Y-96617592D01*
X90901559Y-96630844D01*
X90867595Y-96637600D01*
X90832965Y-96637600D01*
X90799001Y-96630844D01*
X90767005Y-96617592D01*
X90738217Y-96598356D01*
X90713724Y-96573863D01*
X90694488Y-96545075D01*
X90681236Y-96513079D01*
X90674480Y-96479114D01*
X90674480Y-96444486D01*
X90681236Y-96410521D01*
X90694488Y-96378525D01*
X90713724Y-96349737D01*
X90738217Y-96325244D01*
X90767005Y-96306008D01*
X90799001Y-96292756D01*
X90832965Y-96286000D01*
X90867595Y-96286000D01*
X90901559Y-96292756D01*
X90901559Y-96292756D01*
G37*
G36*
X115327488Y-94768634D02*
G01*
X115327491Y-94768635D01*
X115497288Y-94820142D01*
X115653778Y-94903788D01*
X115790943Y-95016357D01*
X115903512Y-95153522D01*
X115987158Y-95310012D01*
X116017647Y-95410521D01*
X116038666Y-95479812D01*
X116056058Y-95656400D01*
X116038666Y-95832988D01*
X116038665Y-95832991D01*
X115987158Y-96002788D01*
X115903512Y-96159278D01*
X115790943Y-96296443D01*
X115653778Y-96409012D01*
X115497288Y-96492658D01*
X115396010Y-96523380D01*
X115327488Y-96544166D01*
X115195149Y-96557200D01*
X115106651Y-96557200D01*
X114974312Y-96544166D01*
X114905790Y-96523380D01*
X114804512Y-96492658D01*
X114648022Y-96409012D01*
X114510857Y-96296443D01*
X114398288Y-96159278D01*
X114314642Y-96002788D01*
X114263135Y-95832991D01*
X114263134Y-95832988D01*
X114245742Y-95656400D01*
X114263134Y-95479812D01*
X114284153Y-95410521D01*
X114314642Y-95310012D01*
X114398288Y-95153522D01*
X114510857Y-95016357D01*
X114648022Y-94903788D01*
X114804512Y-94820142D01*
X114974309Y-94768635D01*
X114974312Y-94768634D01*
X115106651Y-94755600D01*
X115195149Y-94755600D01*
X115327488Y-94768634D01*
X115327488Y-94768634D01*
G37*
G36*
X124903288Y-94768634D02*
G01*
X124903291Y-94768635D01*
X125073088Y-94820142D01*
X125229578Y-94903788D01*
X125366743Y-95016357D01*
X125479312Y-95153522D01*
X125562958Y-95310012D01*
X125593447Y-95410521D01*
X125614466Y-95479812D01*
X125631858Y-95656400D01*
X125614466Y-95832988D01*
X125614465Y-95832991D01*
X125562958Y-96002788D01*
X125479312Y-96159278D01*
X125366743Y-96296443D01*
X125229578Y-96409012D01*
X125073088Y-96492658D01*
X124971810Y-96523380D01*
X124903288Y-96544166D01*
X124770949Y-96557200D01*
X124682451Y-96557200D01*
X124550112Y-96544166D01*
X124481590Y-96523380D01*
X124380312Y-96492658D01*
X124223822Y-96409012D01*
X124086657Y-96296443D01*
X123974088Y-96159278D01*
X123890442Y-96002788D01*
X123838935Y-95832991D01*
X123838934Y-95832988D01*
X123821542Y-95656400D01*
X123838934Y-95479812D01*
X123859953Y-95410521D01*
X123890442Y-95310012D01*
X123974088Y-95153522D01*
X124086657Y-95016357D01*
X124223822Y-94903788D01*
X124380312Y-94820142D01*
X124550109Y-94768635D01*
X124550112Y-94768634D01*
X124682451Y-94755600D01*
X124770949Y-94755600D01*
X124903288Y-94768634D01*
X124903288Y-94768634D01*
G37*
G36*
X127443288Y-94768634D02*
G01*
X127443291Y-94768635D01*
X127613088Y-94820142D01*
X127769578Y-94903788D01*
X127906743Y-95016357D01*
X128019312Y-95153522D01*
X128102958Y-95310012D01*
X128133447Y-95410521D01*
X128154466Y-95479812D01*
X128171858Y-95656400D01*
X128154466Y-95832988D01*
X128154465Y-95832991D01*
X128102958Y-96002788D01*
X128019312Y-96159278D01*
X127906743Y-96296443D01*
X127769578Y-96409012D01*
X127613088Y-96492658D01*
X127511810Y-96523380D01*
X127443288Y-96544166D01*
X127310949Y-96557200D01*
X127222451Y-96557200D01*
X127090112Y-96544166D01*
X127021590Y-96523380D01*
X126920312Y-96492658D01*
X126763822Y-96409012D01*
X126626657Y-96296443D01*
X126514088Y-96159278D01*
X126430442Y-96002788D01*
X126378935Y-95832991D01*
X126378934Y-95832988D01*
X126361542Y-95656400D01*
X126378934Y-95479812D01*
X126399953Y-95410521D01*
X126430442Y-95310012D01*
X126514088Y-95153522D01*
X126626657Y-95016357D01*
X126763822Y-94903788D01*
X126920312Y-94820142D01*
X127090109Y-94768635D01*
X127090112Y-94768634D01*
X127222451Y-94755600D01*
X127310949Y-94755600D01*
X127443288Y-94768634D01*
X127443288Y-94768634D01*
G37*
G36*
X122363288Y-94768634D02*
G01*
X122363291Y-94768635D01*
X122533088Y-94820142D01*
X122689578Y-94903788D01*
X122826743Y-95016357D01*
X122939312Y-95153522D01*
X123022958Y-95310012D01*
X123053447Y-95410521D01*
X123074466Y-95479812D01*
X123091858Y-95656400D01*
X123074466Y-95832988D01*
X123074465Y-95832991D01*
X123022958Y-96002788D01*
X122939312Y-96159278D01*
X122826743Y-96296443D01*
X122689578Y-96409012D01*
X122533088Y-96492658D01*
X122431810Y-96523380D01*
X122363288Y-96544166D01*
X122230949Y-96557200D01*
X122142451Y-96557200D01*
X122010112Y-96544166D01*
X121941590Y-96523380D01*
X121840312Y-96492658D01*
X121683822Y-96409012D01*
X121546657Y-96296443D01*
X121434088Y-96159278D01*
X121350442Y-96002788D01*
X121298935Y-95832991D01*
X121298934Y-95832988D01*
X121281542Y-95656400D01*
X121298934Y-95479812D01*
X121319953Y-95410521D01*
X121350442Y-95310012D01*
X121434088Y-95153522D01*
X121546657Y-95016357D01*
X121683822Y-94903788D01*
X121840312Y-94820142D01*
X122010109Y-94768635D01*
X122010112Y-94768634D01*
X122142451Y-94755600D01*
X122230949Y-94755600D01*
X122363288Y-94768634D01*
X122363288Y-94768634D01*
G37*
G36*
X119823288Y-94768634D02*
G01*
X119823291Y-94768635D01*
X119993088Y-94820142D01*
X120149578Y-94903788D01*
X120286743Y-95016357D01*
X120399312Y-95153522D01*
X120482958Y-95310012D01*
X120513447Y-95410521D01*
X120534466Y-95479812D01*
X120551858Y-95656400D01*
X120534466Y-95832988D01*
X120534465Y-95832991D01*
X120482958Y-96002788D01*
X120399312Y-96159278D01*
X120286743Y-96296443D01*
X120149578Y-96409012D01*
X119993088Y-96492658D01*
X119891810Y-96523380D01*
X119823288Y-96544166D01*
X119690949Y-96557200D01*
X119602451Y-96557200D01*
X119470112Y-96544166D01*
X119401590Y-96523380D01*
X119300312Y-96492658D01*
X119143822Y-96409012D01*
X119006657Y-96296443D01*
X118894088Y-96159278D01*
X118810442Y-96002788D01*
X118758935Y-95832991D01*
X118758934Y-95832988D01*
X118741542Y-95656400D01*
X118758934Y-95479812D01*
X118779953Y-95410521D01*
X118810442Y-95310012D01*
X118894088Y-95153522D01*
X119006657Y-95016357D01*
X119143822Y-94903788D01*
X119300312Y-94820142D01*
X119470109Y-94768635D01*
X119470112Y-94768634D01*
X119602451Y-94755600D01*
X119690949Y-94755600D01*
X119823288Y-94768634D01*
X119823288Y-94768634D01*
G37*
G36*
X112787488Y-94768634D02*
G01*
X112787491Y-94768635D01*
X112957288Y-94820142D01*
X113113778Y-94903788D01*
X113250943Y-95016357D01*
X113363512Y-95153522D01*
X113447158Y-95310012D01*
X113477647Y-95410521D01*
X113498666Y-95479812D01*
X113516058Y-95656400D01*
X113498666Y-95832988D01*
X113498665Y-95832991D01*
X113447158Y-96002788D01*
X113363512Y-96159278D01*
X113250943Y-96296443D01*
X113113778Y-96409012D01*
X112957288Y-96492658D01*
X112856010Y-96523380D01*
X112787488Y-96544166D01*
X112655149Y-96557200D01*
X112566651Y-96557200D01*
X112434312Y-96544166D01*
X112365790Y-96523380D01*
X112264512Y-96492658D01*
X112108022Y-96409012D01*
X111970857Y-96296443D01*
X111858288Y-96159278D01*
X111774642Y-96002788D01*
X111723135Y-95832991D01*
X111723134Y-95832988D01*
X111705742Y-95656400D01*
X111723134Y-95479812D01*
X111744153Y-95410521D01*
X111774642Y-95310012D01*
X111858288Y-95153522D01*
X111970857Y-95016357D01*
X112108022Y-94903788D01*
X112264512Y-94820142D01*
X112434309Y-94768635D01*
X112434312Y-94768634D01*
X112566651Y-94755600D01*
X112655149Y-94755600D01*
X112787488Y-94768634D01*
X112787488Y-94768634D01*
G37*
G36*
X98536200Y-96523380D02*
G01*
X95103800Y-96523380D01*
X95103800Y-95620980D01*
X98536200Y-95620980D01*
X98536200Y-96523380D01*
X98536200Y-96523380D01*
G37*
G36*
X90401559Y-95792756D02*
G01*
X90433555Y-95806008D01*
X90462343Y-95825244D01*
X90486836Y-95849737D01*
X90506072Y-95878525D01*
X90519324Y-95910521D01*
X90526080Y-95944486D01*
X90526080Y-95979114D01*
X90519324Y-96013079D01*
X90506072Y-96045075D01*
X90486836Y-96073863D01*
X90462343Y-96098356D01*
X90433555Y-96117592D01*
X90401559Y-96130844D01*
X90367595Y-96137600D01*
X90332965Y-96137600D01*
X90299001Y-96130844D01*
X90267005Y-96117592D01*
X90238217Y-96098356D01*
X90213724Y-96073863D01*
X90194488Y-96045075D01*
X90181236Y-96013079D01*
X90174480Y-95979114D01*
X90174480Y-95944486D01*
X90181236Y-95910521D01*
X90194488Y-95878525D01*
X90213724Y-95849737D01*
X90238217Y-95825244D01*
X90267005Y-95806008D01*
X90299001Y-95792756D01*
X90332965Y-95786000D01*
X90367595Y-95786000D01*
X90401559Y-95792756D01*
X90401559Y-95792756D01*
G37*
G36*
X91901559Y-95792756D02*
G01*
X91933555Y-95806008D01*
X91962343Y-95825244D01*
X91986836Y-95849737D01*
X92006072Y-95878525D01*
X92019324Y-95910521D01*
X92026080Y-95944486D01*
X92026080Y-95979114D01*
X92019324Y-96013079D01*
X92006072Y-96045075D01*
X91986836Y-96073863D01*
X91962343Y-96098356D01*
X91933555Y-96117592D01*
X91901559Y-96130844D01*
X91867595Y-96137600D01*
X91832965Y-96137600D01*
X91799001Y-96130844D01*
X91767005Y-96117592D01*
X91738217Y-96098356D01*
X91713724Y-96073863D01*
X91694488Y-96045075D01*
X91681236Y-96013079D01*
X91674480Y-95979114D01*
X91674480Y-95944486D01*
X91681236Y-95910521D01*
X91694488Y-95878525D01*
X91713724Y-95849737D01*
X91738217Y-95825244D01*
X91767005Y-95806008D01*
X91799001Y-95792756D01*
X91832965Y-95786000D01*
X91867595Y-95786000D01*
X91901559Y-95792756D01*
X91901559Y-95792756D01*
G37*
G36*
X91401559Y-95792756D02*
G01*
X91433555Y-95806008D01*
X91462343Y-95825244D01*
X91486836Y-95849737D01*
X91506072Y-95878525D01*
X91519324Y-95910521D01*
X91526080Y-95944486D01*
X91526080Y-95979114D01*
X91519324Y-96013079D01*
X91506072Y-96045075D01*
X91486836Y-96073863D01*
X91462343Y-96098356D01*
X91433555Y-96117592D01*
X91401559Y-96130844D01*
X91367595Y-96137600D01*
X91332965Y-96137600D01*
X91299001Y-96130844D01*
X91267005Y-96117592D01*
X91238217Y-96098356D01*
X91213724Y-96073863D01*
X91194488Y-96045075D01*
X91181236Y-96013079D01*
X91174480Y-95979114D01*
X91174480Y-95944486D01*
X91181236Y-95910521D01*
X91194488Y-95878525D01*
X91213724Y-95849737D01*
X91238217Y-95825244D01*
X91267005Y-95806008D01*
X91299001Y-95792756D01*
X91332965Y-95786000D01*
X91367595Y-95786000D01*
X91401559Y-95792756D01*
X91401559Y-95792756D01*
G37*
G36*
X90901559Y-95792756D02*
G01*
X90933555Y-95806008D01*
X90962343Y-95825244D01*
X90986836Y-95849737D01*
X91006072Y-95878525D01*
X91019324Y-95910521D01*
X91026080Y-95944486D01*
X91026080Y-95979114D01*
X91019324Y-96013079D01*
X91006072Y-96045075D01*
X90986836Y-96073863D01*
X90962343Y-96098356D01*
X90933555Y-96117592D01*
X90901559Y-96130844D01*
X90867595Y-96137600D01*
X90832965Y-96137600D01*
X90799001Y-96130844D01*
X90767005Y-96117592D01*
X90738217Y-96098356D01*
X90713724Y-96073863D01*
X90694488Y-96045075D01*
X90681236Y-96013079D01*
X90674480Y-95979114D01*
X90674480Y-95944486D01*
X90681236Y-95910521D01*
X90694488Y-95878525D01*
X90713724Y-95849737D01*
X90738217Y-95825244D01*
X90767005Y-95806008D01*
X90799001Y-95792756D01*
X90832965Y-95786000D01*
X90867595Y-95786000D01*
X90901559Y-95792756D01*
X90901559Y-95792756D01*
G37*
G36*
X90401559Y-95292756D02*
G01*
X90433555Y-95306008D01*
X90462343Y-95325244D01*
X90486836Y-95349737D01*
X90506072Y-95378525D01*
X90519324Y-95410521D01*
X90526080Y-95444486D01*
X90526080Y-95479114D01*
X90519324Y-95513079D01*
X90506072Y-95545075D01*
X90486836Y-95573863D01*
X90462343Y-95598356D01*
X90433555Y-95617592D01*
X90401559Y-95630844D01*
X90367595Y-95637600D01*
X90332965Y-95637600D01*
X90299001Y-95630844D01*
X90267005Y-95617592D01*
X90238217Y-95598356D01*
X90213724Y-95573863D01*
X90194488Y-95545075D01*
X90181236Y-95513079D01*
X90174480Y-95479114D01*
X90174480Y-95444486D01*
X90181236Y-95410521D01*
X90194488Y-95378525D01*
X90213724Y-95349737D01*
X90238217Y-95325244D01*
X90267005Y-95306008D01*
X90299001Y-95292756D01*
X90332965Y-95286000D01*
X90367595Y-95286000D01*
X90401559Y-95292756D01*
X90401559Y-95292756D01*
G37*
G36*
X90901559Y-95292756D02*
G01*
X90933555Y-95306008D01*
X90962343Y-95325244D01*
X90986836Y-95349737D01*
X91006072Y-95378525D01*
X91019324Y-95410521D01*
X91026080Y-95444486D01*
X91026080Y-95479114D01*
X91019324Y-95513079D01*
X91006072Y-95545075D01*
X90986836Y-95573863D01*
X90962343Y-95598356D01*
X90933555Y-95617592D01*
X90901559Y-95630844D01*
X90867595Y-95637600D01*
X90832965Y-95637600D01*
X90799001Y-95630844D01*
X90767005Y-95617592D01*
X90738217Y-95598356D01*
X90713724Y-95573863D01*
X90694488Y-95545075D01*
X90681236Y-95513079D01*
X90674480Y-95479114D01*
X90674480Y-95444486D01*
X90681236Y-95410521D01*
X90694488Y-95378525D01*
X90713724Y-95349737D01*
X90738217Y-95325244D01*
X90767005Y-95306008D01*
X90799001Y-95292756D01*
X90832965Y-95286000D01*
X90867595Y-95286000D01*
X90901559Y-95292756D01*
X90901559Y-95292756D01*
G37*
G36*
X91401559Y-95292756D02*
G01*
X91433555Y-95306008D01*
X91462343Y-95325244D01*
X91486836Y-95349737D01*
X91506072Y-95378525D01*
X91519324Y-95410521D01*
X91526080Y-95444486D01*
X91526080Y-95479114D01*
X91519324Y-95513079D01*
X91506072Y-95545075D01*
X91486836Y-95573863D01*
X91462343Y-95598356D01*
X91433555Y-95617592D01*
X91401559Y-95630844D01*
X91367595Y-95637600D01*
X91332965Y-95637600D01*
X91299001Y-95630844D01*
X91267005Y-95617592D01*
X91238217Y-95598356D01*
X91213724Y-95573863D01*
X91194488Y-95545075D01*
X91181236Y-95513079D01*
X91174480Y-95479114D01*
X91174480Y-95444486D01*
X91181236Y-95410521D01*
X91194488Y-95378525D01*
X91213724Y-95349737D01*
X91238217Y-95325244D01*
X91267005Y-95306008D01*
X91299001Y-95292756D01*
X91332965Y-95286000D01*
X91367595Y-95286000D01*
X91401559Y-95292756D01*
X91401559Y-95292756D01*
G37*
G36*
X91901559Y-95292756D02*
G01*
X91933555Y-95306008D01*
X91962343Y-95325244D01*
X91986836Y-95349737D01*
X92006072Y-95378525D01*
X92019324Y-95410521D01*
X92026080Y-95444486D01*
X92026080Y-95479114D01*
X92019324Y-95513079D01*
X92006072Y-95545075D01*
X91986836Y-95573863D01*
X91962343Y-95598356D01*
X91933555Y-95617592D01*
X91901559Y-95630844D01*
X91867595Y-95637600D01*
X91832965Y-95637600D01*
X91799001Y-95630844D01*
X91767005Y-95617592D01*
X91738217Y-95598356D01*
X91713724Y-95573863D01*
X91694488Y-95545075D01*
X91681236Y-95513079D01*
X91674480Y-95479114D01*
X91674480Y-95444486D01*
X91681236Y-95410521D01*
X91694488Y-95378525D01*
X91713724Y-95349737D01*
X91738217Y-95325244D01*
X91767005Y-95306008D01*
X91799001Y-95292756D01*
X91832965Y-95286000D01*
X91867595Y-95286000D01*
X91901559Y-95292756D01*
X91901559Y-95292756D01*
G37*
G36*
X98886200Y-95563380D02*
G01*
X97983800Y-95563380D01*
X97983800Y-93850980D01*
X98886200Y-93850980D01*
X98886200Y-95563380D01*
X98886200Y-95563380D01*
G37*
G36*
X95656200Y-95563380D02*
G01*
X94753800Y-95563380D01*
X94753800Y-93850980D01*
X95656200Y-93850980D01*
X95656200Y-95563380D01*
X95656200Y-95563380D01*
G37*
G36*
X93713833Y-93868399D02*
G01*
X93743857Y-93877507D01*
X93771533Y-93892300D01*
X93795791Y-93912209D01*
X93815700Y-93936467D01*
X93830493Y-93964143D01*
X93839601Y-93994167D01*
X93842800Y-94026650D01*
X93842800Y-94395350D01*
X93839601Y-94427833D01*
X93830493Y-94457857D01*
X93815700Y-94485533D01*
X93795791Y-94509791D01*
X93771533Y-94529700D01*
X93743857Y-94544493D01*
X93713833Y-94553601D01*
X93681350Y-94556800D01*
X93262650Y-94556800D01*
X93230167Y-94553601D01*
X93200143Y-94544493D01*
X93172467Y-94529700D01*
X93148209Y-94509791D01*
X93128300Y-94485533D01*
X93113507Y-94457857D01*
X93104399Y-94427833D01*
X93101200Y-94395350D01*
X93101200Y-94026650D01*
X93104399Y-93994167D01*
X93113507Y-93964143D01*
X93128300Y-93936467D01*
X93148209Y-93912209D01*
X93172467Y-93892300D01*
X93200143Y-93877507D01*
X93230167Y-93868399D01*
X93262650Y-93865200D01*
X93681350Y-93865200D01*
X93713833Y-93868399D01*
X93713833Y-93868399D01*
G37*
G36*
X115327488Y-92228634D02*
G01*
X115327491Y-92228635D01*
X115497288Y-92280142D01*
X115653778Y-92363788D01*
X115790943Y-92476357D01*
X115903512Y-92613522D01*
X115987158Y-92770012D01*
X116026141Y-92898522D01*
X116038666Y-92939812D01*
X116056058Y-93116400D01*
X116038666Y-93292988D01*
X116038665Y-93292991D01*
X115987158Y-93462788D01*
X115903512Y-93619278D01*
X115790943Y-93756443D01*
X115653778Y-93869012D01*
X115497288Y-93952658D01*
X115360450Y-93994167D01*
X115327488Y-94004166D01*
X115195149Y-94017200D01*
X115106651Y-94017200D01*
X114974312Y-94004166D01*
X114941350Y-93994167D01*
X114804512Y-93952658D01*
X114648022Y-93869012D01*
X114510857Y-93756443D01*
X114398288Y-93619278D01*
X114314642Y-93462788D01*
X114263135Y-93292991D01*
X114263134Y-93292988D01*
X114245742Y-93116400D01*
X114263134Y-92939812D01*
X114275659Y-92898522D01*
X114314642Y-92770012D01*
X114398288Y-92613522D01*
X114510857Y-92476357D01*
X114648022Y-92363788D01*
X114804512Y-92280142D01*
X114974309Y-92228635D01*
X114974312Y-92228634D01*
X115106651Y-92215600D01*
X115195149Y-92215600D01*
X115327488Y-92228634D01*
X115327488Y-92228634D01*
G37*
G36*
X124903288Y-92228634D02*
G01*
X124903291Y-92228635D01*
X125073088Y-92280142D01*
X125229578Y-92363788D01*
X125366743Y-92476357D01*
X125479312Y-92613522D01*
X125562958Y-92770012D01*
X125601941Y-92898522D01*
X125614466Y-92939812D01*
X125631858Y-93116400D01*
X125614466Y-93292988D01*
X125614465Y-93292991D01*
X125562958Y-93462788D01*
X125479312Y-93619278D01*
X125366743Y-93756443D01*
X125229578Y-93869012D01*
X125073088Y-93952658D01*
X124936250Y-93994167D01*
X124903288Y-94004166D01*
X124770949Y-94017200D01*
X124682451Y-94017200D01*
X124550112Y-94004166D01*
X124517150Y-93994167D01*
X124380312Y-93952658D01*
X124223822Y-93869012D01*
X124086657Y-93756443D01*
X123974088Y-93619278D01*
X123890442Y-93462788D01*
X123838935Y-93292991D01*
X123838934Y-93292988D01*
X123821542Y-93116400D01*
X123838934Y-92939812D01*
X123851459Y-92898522D01*
X123890442Y-92770012D01*
X123974088Y-92613522D01*
X124086657Y-92476357D01*
X124223822Y-92363788D01*
X124380312Y-92280142D01*
X124550109Y-92228635D01*
X124550112Y-92228634D01*
X124682451Y-92215600D01*
X124770949Y-92215600D01*
X124903288Y-92228634D01*
X124903288Y-92228634D01*
G37*
G36*
X122363288Y-92228634D02*
G01*
X122363291Y-92228635D01*
X122533088Y-92280142D01*
X122689578Y-92363788D01*
X122826743Y-92476357D01*
X122939312Y-92613522D01*
X123022958Y-92770012D01*
X123061941Y-92898522D01*
X123074466Y-92939812D01*
X123091858Y-93116400D01*
X123074466Y-93292988D01*
X123074465Y-93292991D01*
X123022958Y-93462788D01*
X122939312Y-93619278D01*
X122826743Y-93756443D01*
X122689578Y-93869012D01*
X122533088Y-93952658D01*
X122396250Y-93994167D01*
X122363288Y-94004166D01*
X122230949Y-94017200D01*
X122142451Y-94017200D01*
X122010112Y-94004166D01*
X121977150Y-93994167D01*
X121840312Y-93952658D01*
X121683822Y-93869012D01*
X121546657Y-93756443D01*
X121434088Y-93619278D01*
X121350442Y-93462788D01*
X121298935Y-93292991D01*
X121298934Y-93292988D01*
X121281542Y-93116400D01*
X121298934Y-92939812D01*
X121311459Y-92898522D01*
X121350442Y-92770012D01*
X121434088Y-92613522D01*
X121546657Y-92476357D01*
X121683822Y-92363788D01*
X121840312Y-92280142D01*
X122010109Y-92228635D01*
X122010112Y-92228634D01*
X122142451Y-92215600D01*
X122230949Y-92215600D01*
X122363288Y-92228634D01*
X122363288Y-92228634D01*
G37*
G36*
X119823288Y-92228634D02*
G01*
X119823291Y-92228635D01*
X119993088Y-92280142D01*
X120149578Y-92363788D01*
X120286743Y-92476357D01*
X120399312Y-92613522D01*
X120482958Y-92770012D01*
X120521941Y-92898522D01*
X120534466Y-92939812D01*
X120551858Y-93116400D01*
X120534466Y-93292988D01*
X120534465Y-93292991D01*
X120482958Y-93462788D01*
X120399312Y-93619278D01*
X120286743Y-93756443D01*
X120149578Y-93869012D01*
X119993088Y-93952658D01*
X119856250Y-93994167D01*
X119823288Y-94004166D01*
X119690949Y-94017200D01*
X119602451Y-94017200D01*
X119470112Y-94004166D01*
X119437150Y-93994167D01*
X119300312Y-93952658D01*
X119143822Y-93869012D01*
X119006657Y-93756443D01*
X118894088Y-93619278D01*
X118810442Y-93462788D01*
X118758935Y-93292991D01*
X118758934Y-93292988D01*
X118741542Y-93116400D01*
X118758934Y-92939812D01*
X118771459Y-92898522D01*
X118810442Y-92770012D01*
X118894088Y-92613522D01*
X119006657Y-92476357D01*
X119143822Y-92363788D01*
X119300312Y-92280142D01*
X119470109Y-92228635D01*
X119470112Y-92228634D01*
X119602451Y-92215600D01*
X119690949Y-92215600D01*
X119823288Y-92228634D01*
X119823288Y-92228634D01*
G37*
G36*
X112787488Y-92228634D02*
G01*
X112787491Y-92228635D01*
X112957288Y-92280142D01*
X113113778Y-92363788D01*
X113250943Y-92476357D01*
X113363512Y-92613522D01*
X113447158Y-92770012D01*
X113486141Y-92898522D01*
X113498666Y-92939812D01*
X113516058Y-93116400D01*
X113498666Y-93292988D01*
X113498665Y-93292991D01*
X113447158Y-93462788D01*
X113363512Y-93619278D01*
X113250943Y-93756443D01*
X113113778Y-93869012D01*
X112957288Y-93952658D01*
X112820450Y-93994167D01*
X112787488Y-94004166D01*
X112655149Y-94017200D01*
X112566651Y-94017200D01*
X112434312Y-94004166D01*
X112401350Y-93994167D01*
X112264512Y-93952658D01*
X112108022Y-93869012D01*
X111970857Y-93756443D01*
X111858288Y-93619278D01*
X111774642Y-93462788D01*
X111723135Y-93292991D01*
X111723134Y-93292988D01*
X111705742Y-93116400D01*
X111723134Y-92939812D01*
X111735659Y-92898522D01*
X111774642Y-92770012D01*
X111858288Y-92613522D01*
X111970857Y-92476357D01*
X112108022Y-92363788D01*
X112264512Y-92280142D01*
X112434309Y-92228635D01*
X112434312Y-92228634D01*
X112566651Y-92215600D01*
X112655149Y-92215600D01*
X112787488Y-92228634D01*
X112787488Y-92228634D01*
G37*
G36*
X127443288Y-92228634D02*
G01*
X127443291Y-92228635D01*
X127613088Y-92280142D01*
X127769578Y-92363788D01*
X127906743Y-92476357D01*
X128019312Y-92613522D01*
X128102958Y-92770012D01*
X128141941Y-92898522D01*
X128154466Y-92939812D01*
X128171858Y-93116400D01*
X128154466Y-93292988D01*
X128154465Y-93292991D01*
X128102958Y-93462788D01*
X128019312Y-93619278D01*
X127906743Y-93756443D01*
X127769578Y-93869012D01*
X127613088Y-93952658D01*
X127476250Y-93994167D01*
X127443288Y-94004166D01*
X127310949Y-94017200D01*
X127222451Y-94017200D01*
X127090112Y-94004166D01*
X127057150Y-93994167D01*
X126920312Y-93952658D01*
X126763822Y-93869012D01*
X126626657Y-93756443D01*
X126514088Y-93619278D01*
X126430442Y-93462788D01*
X126378935Y-93292991D01*
X126378934Y-93292988D01*
X126361542Y-93116400D01*
X126378934Y-92939812D01*
X126391459Y-92898522D01*
X126430442Y-92770012D01*
X126514088Y-92613522D01*
X126626657Y-92476357D01*
X126763822Y-92363788D01*
X126920312Y-92280142D01*
X127090109Y-92228635D01*
X127090112Y-92228634D01*
X127222451Y-92215600D01*
X127310949Y-92215600D01*
X127443288Y-92228634D01*
X127443288Y-92228634D01*
G37*
G36*
X101354153Y-93154659D02*
G01*
X101384177Y-93163767D01*
X101411853Y-93178560D01*
X101436111Y-93198469D01*
X101456020Y-93222727D01*
X101470813Y-93250403D01*
X101479921Y-93280427D01*
X101483120Y-93312910D01*
X101483120Y-93681610D01*
X101479921Y-93714093D01*
X101470813Y-93744117D01*
X101456020Y-93771793D01*
X101436111Y-93796051D01*
X101411853Y-93815960D01*
X101384177Y-93830753D01*
X101354153Y-93839861D01*
X101321670Y-93843060D01*
X100902970Y-93843060D01*
X100870487Y-93839861D01*
X100840463Y-93830753D01*
X100812787Y-93815960D01*
X100788529Y-93796051D01*
X100768620Y-93771793D01*
X100753827Y-93744117D01*
X100744719Y-93714093D01*
X100741520Y-93681610D01*
X100741520Y-93312910D01*
X100744719Y-93280427D01*
X100753827Y-93250403D01*
X100768620Y-93222727D01*
X100788529Y-93198469D01*
X100812787Y-93178560D01*
X100840463Y-93163767D01*
X100870487Y-93154659D01*
X100902970Y-93151460D01*
X101321670Y-93151460D01*
X101354153Y-93154659D01*
X101354153Y-93154659D01*
G37*
G36*
X98536200Y-93793380D02*
G01*
X95103800Y-93793380D01*
X95103800Y-92890980D01*
X98536200Y-92890980D01*
X98536200Y-93793380D01*
X98536200Y-93793380D01*
G37*
G36*
X93713833Y-92898399D02*
G01*
X93743857Y-92907507D01*
X93771533Y-92922300D01*
X93795791Y-92942209D01*
X93815700Y-92966467D01*
X93830493Y-92994143D01*
X93839601Y-93024167D01*
X93842800Y-93056650D01*
X93842800Y-93425350D01*
X93839601Y-93457833D01*
X93830493Y-93487857D01*
X93815700Y-93515533D01*
X93795791Y-93539791D01*
X93771533Y-93559700D01*
X93743857Y-93574493D01*
X93713833Y-93583601D01*
X93681350Y-93586800D01*
X93262650Y-93586800D01*
X93230167Y-93583601D01*
X93200143Y-93574493D01*
X93172467Y-93559700D01*
X93148209Y-93539791D01*
X93128300Y-93515533D01*
X93113507Y-93487857D01*
X93104399Y-93457833D01*
X93101200Y-93425350D01*
X93101200Y-93056650D01*
X93104399Y-93024167D01*
X93113507Y-92994143D01*
X93128300Y-92966467D01*
X93148209Y-92942209D01*
X93172467Y-92922300D01*
X93200143Y-92907507D01*
X93230167Y-92898399D01*
X93262650Y-92895200D01*
X93681350Y-92895200D01*
X93713833Y-92898399D01*
X93713833Y-92898399D01*
G37*
G36*
X101354153Y-92184659D02*
G01*
X101384177Y-92193767D01*
X101411853Y-92208560D01*
X101436111Y-92228469D01*
X101456020Y-92252727D01*
X101470813Y-92280403D01*
X101479921Y-92310427D01*
X101483120Y-92342910D01*
X101483120Y-92711610D01*
X101479921Y-92744093D01*
X101470813Y-92774117D01*
X101456020Y-92801793D01*
X101436111Y-92826051D01*
X101411853Y-92845960D01*
X101384177Y-92860753D01*
X101354153Y-92869861D01*
X101321670Y-92873060D01*
X100902970Y-92873060D01*
X100870487Y-92869861D01*
X100840463Y-92860753D01*
X100812787Y-92845960D01*
X100788529Y-92826051D01*
X100768620Y-92801793D01*
X100753827Y-92774117D01*
X100744719Y-92744093D01*
X100741520Y-92711610D01*
X100741520Y-92342910D01*
X100744719Y-92310427D01*
X100753827Y-92280403D01*
X100768620Y-92252727D01*
X100788529Y-92228469D01*
X100812787Y-92208560D01*
X100840463Y-92193767D01*
X100870487Y-92184659D01*
X100902970Y-92181460D01*
X101321670Y-92181460D01*
X101354153Y-92184659D01*
X101354153Y-92184659D01*
G37*
G36*
X99028053Y-91831859D02*
G01*
X99058077Y-91840967D01*
X99085753Y-91855760D01*
X99110011Y-91875669D01*
X99129920Y-91899927D01*
X99144713Y-91927603D01*
X99153821Y-91957627D01*
X99157020Y-91990110D01*
X99157020Y-92408810D01*
X99153821Y-92441293D01*
X99144713Y-92471317D01*
X99129920Y-92498993D01*
X99110011Y-92523251D01*
X99085753Y-92543160D01*
X99058077Y-92557953D01*
X99028053Y-92567061D01*
X98995570Y-92570260D01*
X98626870Y-92570260D01*
X98594387Y-92567061D01*
X98564363Y-92557953D01*
X98536687Y-92543160D01*
X98512429Y-92523251D01*
X98492520Y-92498993D01*
X98477727Y-92471317D01*
X98468619Y-92441293D01*
X98465420Y-92408810D01*
X98465420Y-91990110D01*
X98468619Y-91957627D01*
X98477727Y-91927603D01*
X98492520Y-91899927D01*
X98512429Y-91875669D01*
X98536687Y-91855760D01*
X98564363Y-91840967D01*
X98594387Y-91831859D01*
X98626870Y-91828660D01*
X98995570Y-91828660D01*
X99028053Y-91831859D01*
X99028053Y-91831859D01*
G37*
G36*
X99998053Y-91831859D02*
G01*
X100028077Y-91840967D01*
X100055753Y-91855760D01*
X100080011Y-91875669D01*
X100099920Y-91899927D01*
X100114713Y-91927603D01*
X100123821Y-91957627D01*
X100127020Y-91990110D01*
X100127020Y-92408810D01*
X100123821Y-92441293D01*
X100114713Y-92471317D01*
X100099920Y-92498993D01*
X100080011Y-92523251D01*
X100055753Y-92543160D01*
X100028077Y-92557953D01*
X99998053Y-92567061D01*
X99965570Y-92570260D01*
X99596870Y-92570260D01*
X99564387Y-92567061D01*
X99534363Y-92557953D01*
X99506687Y-92543160D01*
X99482429Y-92523251D01*
X99462520Y-92498993D01*
X99447727Y-92471317D01*
X99438619Y-92441293D01*
X99435420Y-92408810D01*
X99435420Y-91990110D01*
X99438619Y-91957627D01*
X99447727Y-91927603D01*
X99462520Y-91899927D01*
X99482429Y-91875669D01*
X99506687Y-91855760D01*
X99534363Y-91840967D01*
X99564387Y-91831859D01*
X99596870Y-91828660D01*
X99965570Y-91828660D01*
X99998053Y-91831859D01*
X99998053Y-91831859D01*
G37*
G36*
X95842613Y-91821699D02*
G01*
X95872637Y-91830807D01*
X95900313Y-91845600D01*
X95924571Y-91865509D01*
X95944480Y-91889767D01*
X95959273Y-91917443D01*
X95968381Y-91947467D01*
X95971580Y-91979950D01*
X95971580Y-92398650D01*
X95968381Y-92431133D01*
X95959273Y-92461157D01*
X95944480Y-92488833D01*
X95924571Y-92513091D01*
X95900313Y-92533000D01*
X95872637Y-92547793D01*
X95842613Y-92556901D01*
X95810130Y-92560100D01*
X95441430Y-92560100D01*
X95408947Y-92556901D01*
X95378923Y-92547793D01*
X95351247Y-92533000D01*
X95326989Y-92513091D01*
X95307080Y-92488833D01*
X95292287Y-92461157D01*
X95283179Y-92431133D01*
X95279980Y-92398650D01*
X95279980Y-91979950D01*
X95283179Y-91947467D01*
X95292287Y-91917443D01*
X95307080Y-91889767D01*
X95326989Y-91865509D01*
X95351247Y-91845600D01*
X95378923Y-91830807D01*
X95408947Y-91821699D01*
X95441430Y-91818500D01*
X95810130Y-91818500D01*
X95842613Y-91821699D01*
X95842613Y-91821699D01*
G37*
G36*
X94872613Y-91821699D02*
G01*
X94902637Y-91830807D01*
X94930313Y-91845600D01*
X94954571Y-91865509D01*
X94974480Y-91889767D01*
X94989273Y-91917443D01*
X94998381Y-91947467D01*
X95001580Y-91979950D01*
X95001580Y-92398650D01*
X94998381Y-92431133D01*
X94989273Y-92461157D01*
X94974480Y-92488833D01*
X94954571Y-92513091D01*
X94930313Y-92533000D01*
X94902637Y-92547793D01*
X94872613Y-92556901D01*
X94840130Y-92560100D01*
X94471430Y-92560100D01*
X94438947Y-92556901D01*
X94408923Y-92547793D01*
X94381247Y-92533000D01*
X94356989Y-92513091D01*
X94337080Y-92488833D01*
X94322287Y-92461157D01*
X94313179Y-92431133D01*
X94309980Y-92398650D01*
X94309980Y-91979950D01*
X94313179Y-91947467D01*
X94322287Y-91917443D01*
X94337080Y-91889767D01*
X94356989Y-91865509D01*
X94381247Y-91845600D01*
X94408923Y-91830807D01*
X94438947Y-91821699D01*
X94471430Y-91818500D01*
X94840130Y-91818500D01*
X94872613Y-91821699D01*
X94872613Y-91821699D01*
G37*
G36*
X115327488Y-89688634D02*
G01*
X115327491Y-89688635D01*
X115497288Y-89740142D01*
X115653778Y-89823788D01*
X115790943Y-89936357D01*
X115903512Y-90073522D01*
X115987158Y-90230012D01*
X116032775Y-90380392D01*
X116038666Y-90399812D01*
X116056058Y-90576400D01*
X116038666Y-90752988D01*
X116038665Y-90752991D01*
X115987158Y-90922788D01*
X115903512Y-91079278D01*
X115790943Y-91216443D01*
X115653778Y-91329012D01*
X115497288Y-91412658D01*
X115346908Y-91458275D01*
X115327488Y-91464166D01*
X115195149Y-91477200D01*
X115106651Y-91477200D01*
X114974312Y-91464166D01*
X114954892Y-91458275D01*
X114804512Y-91412658D01*
X114648022Y-91329012D01*
X114510857Y-91216443D01*
X114398288Y-91079278D01*
X114314642Y-90922788D01*
X114263135Y-90752991D01*
X114263134Y-90752988D01*
X114245742Y-90576400D01*
X114263134Y-90399812D01*
X114269025Y-90380392D01*
X114314642Y-90230012D01*
X114398288Y-90073522D01*
X114510857Y-89936357D01*
X114648022Y-89823788D01*
X114804512Y-89740142D01*
X114974309Y-89688635D01*
X114974312Y-89688634D01*
X115106651Y-89675600D01*
X115195149Y-89675600D01*
X115327488Y-89688634D01*
X115327488Y-89688634D01*
G37*
G36*
X112787488Y-89688634D02*
G01*
X112787491Y-89688635D01*
X112957288Y-89740142D01*
X113113778Y-89823788D01*
X113250943Y-89936357D01*
X113363512Y-90073522D01*
X113447158Y-90230012D01*
X113492775Y-90380392D01*
X113498666Y-90399812D01*
X113516058Y-90576400D01*
X113498666Y-90752988D01*
X113498665Y-90752991D01*
X113447158Y-90922788D01*
X113363512Y-91079278D01*
X113250943Y-91216443D01*
X113113778Y-91329012D01*
X112957288Y-91412658D01*
X112806908Y-91458275D01*
X112787488Y-91464166D01*
X112655149Y-91477200D01*
X112566651Y-91477200D01*
X112434312Y-91464166D01*
X112414892Y-91458275D01*
X112264512Y-91412658D01*
X112108022Y-91329012D01*
X111970857Y-91216443D01*
X111858288Y-91079278D01*
X111774642Y-90922788D01*
X111723135Y-90752991D01*
X111723134Y-90752988D01*
X111705742Y-90576400D01*
X111723134Y-90399812D01*
X111729025Y-90380392D01*
X111774642Y-90230012D01*
X111858288Y-90073522D01*
X111970857Y-89936357D01*
X112108022Y-89823788D01*
X112264512Y-89740142D01*
X112434309Y-89688635D01*
X112434312Y-89688634D01*
X112566651Y-89675600D01*
X112655149Y-89675600D01*
X112787488Y-89688634D01*
X112787488Y-89688634D01*
G37*
G36*
X119823288Y-89688634D02*
G01*
X119823291Y-89688635D01*
X119993088Y-89740142D01*
X120149578Y-89823788D01*
X120286743Y-89936357D01*
X120399312Y-90073522D01*
X120482958Y-90230012D01*
X120528575Y-90380392D01*
X120534466Y-90399812D01*
X120551858Y-90576400D01*
X120534466Y-90752988D01*
X120534465Y-90752991D01*
X120482958Y-90922788D01*
X120399312Y-91079278D01*
X120286743Y-91216443D01*
X120149578Y-91329012D01*
X119993088Y-91412658D01*
X119842708Y-91458275D01*
X119823288Y-91464166D01*
X119690949Y-91477200D01*
X119602451Y-91477200D01*
X119470112Y-91464166D01*
X119450692Y-91458275D01*
X119300312Y-91412658D01*
X119143822Y-91329012D01*
X119006657Y-91216443D01*
X118894088Y-91079278D01*
X118810442Y-90922788D01*
X118758935Y-90752991D01*
X118758934Y-90752988D01*
X118741542Y-90576400D01*
X118758934Y-90399812D01*
X118764825Y-90380392D01*
X118810442Y-90230012D01*
X118894088Y-90073522D01*
X119006657Y-89936357D01*
X119143822Y-89823788D01*
X119300312Y-89740142D01*
X119470109Y-89688635D01*
X119470112Y-89688634D01*
X119602451Y-89675600D01*
X119690949Y-89675600D01*
X119823288Y-89688634D01*
X119823288Y-89688634D01*
G37*
G36*
X127443288Y-89688634D02*
G01*
X127443291Y-89688635D01*
X127613088Y-89740142D01*
X127769578Y-89823788D01*
X127906743Y-89936357D01*
X128019312Y-90073522D01*
X128102958Y-90230012D01*
X128148575Y-90380392D01*
X128154466Y-90399812D01*
X128171858Y-90576400D01*
X128154466Y-90752988D01*
X128154465Y-90752991D01*
X128102958Y-90922788D01*
X128019312Y-91079278D01*
X127906743Y-91216443D01*
X127769578Y-91329012D01*
X127613088Y-91412658D01*
X127462708Y-91458275D01*
X127443288Y-91464166D01*
X127310949Y-91477200D01*
X127222451Y-91477200D01*
X127090112Y-91464166D01*
X127070692Y-91458275D01*
X126920312Y-91412658D01*
X126763822Y-91329012D01*
X126626657Y-91216443D01*
X126514088Y-91079278D01*
X126430442Y-90922788D01*
X126378935Y-90752991D01*
X126378934Y-90752988D01*
X126361542Y-90576400D01*
X126378934Y-90399812D01*
X126384825Y-90380392D01*
X126430442Y-90230012D01*
X126514088Y-90073522D01*
X126626657Y-89936357D01*
X126763822Y-89823788D01*
X126920312Y-89740142D01*
X127090109Y-89688635D01*
X127090112Y-89688634D01*
X127222451Y-89675600D01*
X127310949Y-89675600D01*
X127443288Y-89688634D01*
X127443288Y-89688634D01*
G37*
G36*
X124903288Y-89688634D02*
G01*
X124903291Y-89688635D01*
X125073088Y-89740142D01*
X125229578Y-89823788D01*
X125366743Y-89936357D01*
X125479312Y-90073522D01*
X125562958Y-90230012D01*
X125608575Y-90380392D01*
X125614466Y-90399812D01*
X125631858Y-90576400D01*
X125614466Y-90752988D01*
X125614465Y-90752991D01*
X125562958Y-90922788D01*
X125479312Y-91079278D01*
X125366743Y-91216443D01*
X125229578Y-91329012D01*
X125073088Y-91412658D01*
X124922708Y-91458275D01*
X124903288Y-91464166D01*
X124770949Y-91477200D01*
X124682451Y-91477200D01*
X124550112Y-91464166D01*
X124530692Y-91458275D01*
X124380312Y-91412658D01*
X124223822Y-91329012D01*
X124086657Y-91216443D01*
X123974088Y-91079278D01*
X123890442Y-90922788D01*
X123838935Y-90752991D01*
X123838934Y-90752988D01*
X123821542Y-90576400D01*
X123838934Y-90399812D01*
X123844825Y-90380392D01*
X123890442Y-90230012D01*
X123974088Y-90073522D01*
X124086657Y-89936357D01*
X124223822Y-89823788D01*
X124380312Y-89740142D01*
X124550109Y-89688635D01*
X124550112Y-89688634D01*
X124682451Y-89675600D01*
X124770949Y-89675600D01*
X124903288Y-89688634D01*
X124903288Y-89688634D01*
G37*
G36*
X122363288Y-89688634D02*
G01*
X122363291Y-89688635D01*
X122533088Y-89740142D01*
X122689578Y-89823788D01*
X122826743Y-89936357D01*
X122939312Y-90073522D01*
X123022958Y-90230012D01*
X123068575Y-90380392D01*
X123074466Y-90399812D01*
X123091858Y-90576400D01*
X123074466Y-90752988D01*
X123074465Y-90752991D01*
X123022958Y-90922788D01*
X122939312Y-91079278D01*
X122826743Y-91216443D01*
X122689578Y-91329012D01*
X122533088Y-91412658D01*
X122382708Y-91458275D01*
X122363288Y-91464166D01*
X122230949Y-91477200D01*
X122142451Y-91477200D01*
X122010112Y-91464166D01*
X121990692Y-91458275D01*
X121840312Y-91412658D01*
X121683822Y-91329012D01*
X121546657Y-91216443D01*
X121434088Y-91079278D01*
X121350442Y-90922788D01*
X121298935Y-90752991D01*
X121298934Y-90752988D01*
X121281542Y-90576400D01*
X121298934Y-90399812D01*
X121304825Y-90380392D01*
X121350442Y-90230012D01*
X121434088Y-90073522D01*
X121546657Y-89936357D01*
X121683822Y-89823788D01*
X121840312Y-89740142D01*
X122010109Y-89688635D01*
X122010112Y-89688634D01*
X122142451Y-89675600D01*
X122230949Y-89675600D01*
X122363288Y-89688634D01*
X122363288Y-89688634D01*
G37*
G36*
X97814643Y-75820958D02*
G01*
X99097806Y-76352462D01*
X100252623Y-77124086D01*
X101234714Y-78106177D01*
X102006338Y-79260994D01*
X102537842Y-80544157D01*
X102808800Y-81906357D01*
X102808800Y-83295243D01*
X102537842Y-84657443D01*
X102006338Y-85940606D01*
X101234714Y-87095423D01*
X100252623Y-88077514D01*
X99097806Y-88849138D01*
X97814643Y-89380642D01*
X96452443Y-89651600D01*
X95063557Y-89651600D01*
X93701357Y-89380642D01*
X92418194Y-88849138D01*
X91263377Y-88077514D01*
X90281286Y-87095423D01*
X89509662Y-85940606D01*
X88978158Y-84657443D01*
X88707200Y-83295243D01*
X88707200Y-81906357D01*
X88978158Y-80544157D01*
X89509662Y-79260994D01*
X90281286Y-78106177D01*
X91263377Y-77124086D01*
X92418194Y-76352462D01*
X93701357Y-75820958D01*
X95063557Y-75550000D01*
X96452443Y-75550000D01*
X97814643Y-75820958D01*
X97814643Y-75820958D01*
G37*
G36*
X127443288Y-87148634D02*
G01*
X127443291Y-87148635D01*
X127613088Y-87200142D01*
X127769578Y-87283788D01*
X127906743Y-87396357D01*
X128019312Y-87533522D01*
X128102958Y-87690012D01*
X128148575Y-87840392D01*
X128154466Y-87859812D01*
X128171858Y-88036400D01*
X128154466Y-88212988D01*
X128154465Y-88212991D01*
X128102958Y-88382788D01*
X128019312Y-88539278D01*
X127906743Y-88676443D01*
X127769578Y-88789012D01*
X127613088Y-88872658D01*
X127462708Y-88918275D01*
X127443288Y-88924166D01*
X127310949Y-88937200D01*
X127222451Y-88937200D01*
X127090112Y-88924166D01*
X127070692Y-88918275D01*
X126920312Y-88872658D01*
X126763822Y-88789012D01*
X126626657Y-88676443D01*
X126514088Y-88539278D01*
X126430442Y-88382788D01*
X126378935Y-88212991D01*
X126378934Y-88212988D01*
X126361542Y-88036400D01*
X126378934Y-87859812D01*
X126384825Y-87840392D01*
X126430442Y-87690012D01*
X126514088Y-87533522D01*
X126626657Y-87396357D01*
X126763822Y-87283788D01*
X126920312Y-87200142D01*
X127090109Y-87148635D01*
X127090112Y-87148634D01*
X127222451Y-87135600D01*
X127310949Y-87135600D01*
X127443288Y-87148634D01*
X127443288Y-87148634D01*
G37*
G36*
X115327488Y-87148634D02*
G01*
X115327491Y-87148635D01*
X115497288Y-87200142D01*
X115653778Y-87283788D01*
X115790943Y-87396357D01*
X115903512Y-87533522D01*
X115987158Y-87690012D01*
X116032775Y-87840392D01*
X116038666Y-87859812D01*
X116056058Y-88036400D01*
X116038666Y-88212988D01*
X116038665Y-88212991D01*
X115987158Y-88382788D01*
X115903512Y-88539278D01*
X115790943Y-88676443D01*
X115653778Y-88789012D01*
X115497288Y-88872658D01*
X115346908Y-88918275D01*
X115327488Y-88924166D01*
X115195149Y-88937200D01*
X115106651Y-88937200D01*
X114974312Y-88924166D01*
X114954892Y-88918275D01*
X114804512Y-88872658D01*
X114648022Y-88789012D01*
X114510857Y-88676443D01*
X114398288Y-88539278D01*
X114314642Y-88382788D01*
X114263135Y-88212991D01*
X114263134Y-88212988D01*
X114245742Y-88036400D01*
X114263134Y-87859812D01*
X114269025Y-87840392D01*
X114314642Y-87690012D01*
X114398288Y-87533522D01*
X114510857Y-87396357D01*
X114648022Y-87283788D01*
X114804512Y-87200142D01*
X114974309Y-87148635D01*
X114974312Y-87148634D01*
X115106651Y-87135600D01*
X115195149Y-87135600D01*
X115327488Y-87148634D01*
X115327488Y-87148634D01*
G37*
G36*
X112787488Y-87148634D02*
G01*
X112787491Y-87148635D01*
X112957288Y-87200142D01*
X113113778Y-87283788D01*
X113250943Y-87396357D01*
X113363512Y-87533522D01*
X113447158Y-87690012D01*
X113492775Y-87840392D01*
X113498666Y-87859812D01*
X113516058Y-88036400D01*
X113498666Y-88212988D01*
X113498665Y-88212991D01*
X113447158Y-88382788D01*
X113363512Y-88539278D01*
X113250943Y-88676443D01*
X113113778Y-88789012D01*
X112957288Y-88872658D01*
X112806908Y-88918275D01*
X112787488Y-88924166D01*
X112655149Y-88937200D01*
X112566651Y-88937200D01*
X112434312Y-88924166D01*
X112414892Y-88918275D01*
X112264512Y-88872658D01*
X112108022Y-88789012D01*
X111970857Y-88676443D01*
X111858288Y-88539278D01*
X111774642Y-88382788D01*
X111723135Y-88212991D01*
X111723134Y-88212988D01*
X111705742Y-88036400D01*
X111723134Y-87859812D01*
X111729025Y-87840392D01*
X111774642Y-87690012D01*
X111858288Y-87533522D01*
X111970857Y-87396357D01*
X112108022Y-87283788D01*
X112264512Y-87200142D01*
X112434309Y-87148635D01*
X112434312Y-87148634D01*
X112566651Y-87135600D01*
X112655149Y-87135600D01*
X112787488Y-87148634D01*
X112787488Y-87148634D01*
G37*
G36*
X124903288Y-87148634D02*
G01*
X124903291Y-87148635D01*
X125073088Y-87200142D01*
X125229578Y-87283788D01*
X125366743Y-87396357D01*
X125479312Y-87533522D01*
X125562958Y-87690012D01*
X125608575Y-87840392D01*
X125614466Y-87859812D01*
X125631858Y-88036400D01*
X125614466Y-88212988D01*
X125614465Y-88212991D01*
X125562958Y-88382788D01*
X125479312Y-88539278D01*
X125366743Y-88676443D01*
X125229578Y-88789012D01*
X125073088Y-88872658D01*
X124922708Y-88918275D01*
X124903288Y-88924166D01*
X124770949Y-88937200D01*
X124682451Y-88937200D01*
X124550112Y-88924166D01*
X124530692Y-88918275D01*
X124380312Y-88872658D01*
X124223822Y-88789012D01*
X124086657Y-88676443D01*
X123974088Y-88539278D01*
X123890442Y-88382788D01*
X123838935Y-88212991D01*
X123838934Y-88212988D01*
X123821542Y-88036400D01*
X123838934Y-87859812D01*
X123844825Y-87840392D01*
X123890442Y-87690012D01*
X123974088Y-87533522D01*
X124086657Y-87396357D01*
X124223822Y-87283788D01*
X124380312Y-87200142D01*
X124550109Y-87148635D01*
X124550112Y-87148634D01*
X124682451Y-87135600D01*
X124770949Y-87135600D01*
X124903288Y-87148634D01*
X124903288Y-87148634D01*
G37*
G36*
X122363288Y-87148634D02*
G01*
X122363291Y-87148635D01*
X122533088Y-87200142D01*
X122689578Y-87283788D01*
X122826743Y-87396357D01*
X122939312Y-87533522D01*
X123022958Y-87690012D01*
X123068575Y-87840392D01*
X123074466Y-87859812D01*
X123091858Y-88036400D01*
X123074466Y-88212988D01*
X123074465Y-88212991D01*
X123022958Y-88382788D01*
X122939312Y-88539278D01*
X122826743Y-88676443D01*
X122689578Y-88789012D01*
X122533088Y-88872658D01*
X122382708Y-88918275D01*
X122363288Y-88924166D01*
X122230949Y-88937200D01*
X122142451Y-88937200D01*
X122010112Y-88924166D01*
X121990692Y-88918275D01*
X121840312Y-88872658D01*
X121683822Y-88789012D01*
X121546657Y-88676443D01*
X121434088Y-88539278D01*
X121350442Y-88382788D01*
X121298935Y-88212991D01*
X121298934Y-88212988D01*
X121281542Y-88036400D01*
X121298934Y-87859812D01*
X121304825Y-87840392D01*
X121350442Y-87690012D01*
X121434088Y-87533522D01*
X121546657Y-87396357D01*
X121683822Y-87283788D01*
X121840312Y-87200142D01*
X122010109Y-87148635D01*
X122010112Y-87148634D01*
X122142451Y-87135600D01*
X122230949Y-87135600D01*
X122363288Y-87148634D01*
X122363288Y-87148634D01*
G37*
G36*
X119823288Y-87148634D02*
G01*
X119823291Y-87148635D01*
X119993088Y-87200142D01*
X120149578Y-87283788D01*
X120286743Y-87396357D01*
X120399312Y-87533522D01*
X120482958Y-87690012D01*
X120528575Y-87840392D01*
X120534466Y-87859812D01*
X120551858Y-88036400D01*
X120534466Y-88212988D01*
X120534465Y-88212991D01*
X120482958Y-88382788D01*
X120399312Y-88539278D01*
X120286743Y-88676443D01*
X120149578Y-88789012D01*
X119993088Y-88872658D01*
X119842708Y-88918275D01*
X119823288Y-88924166D01*
X119690949Y-88937200D01*
X119602451Y-88937200D01*
X119470112Y-88924166D01*
X119450692Y-88918275D01*
X119300312Y-88872658D01*
X119143822Y-88789012D01*
X119006657Y-88676443D01*
X118894088Y-88539278D01*
X118810442Y-88382788D01*
X118758935Y-88212991D01*
X118758934Y-88212988D01*
X118741542Y-88036400D01*
X118758934Y-87859812D01*
X118764825Y-87840392D01*
X118810442Y-87690012D01*
X118894088Y-87533522D01*
X119006657Y-87396357D01*
X119143822Y-87283788D01*
X119300312Y-87200142D01*
X119470109Y-87148635D01*
X119470112Y-87148634D01*
X119602451Y-87135600D01*
X119690949Y-87135600D01*
X119823288Y-87148634D01*
X119823288Y-87148634D01*
G37*
G36*
X119823288Y-84608634D02*
G01*
X119823291Y-84608635D01*
X119993088Y-84660142D01*
X120149578Y-84743788D01*
X120286743Y-84856357D01*
X120399312Y-84993522D01*
X120482958Y-85150012D01*
X120528575Y-85300392D01*
X120534466Y-85319812D01*
X120551858Y-85496400D01*
X120534466Y-85672988D01*
X120534465Y-85672991D01*
X120482958Y-85842788D01*
X120399312Y-85999278D01*
X120286743Y-86136443D01*
X120149578Y-86249012D01*
X119993088Y-86332658D01*
X119842708Y-86378275D01*
X119823288Y-86384166D01*
X119690949Y-86397200D01*
X119602451Y-86397200D01*
X119470112Y-86384166D01*
X119450692Y-86378275D01*
X119300312Y-86332658D01*
X119143822Y-86249012D01*
X119006657Y-86136443D01*
X118894088Y-85999278D01*
X118810442Y-85842788D01*
X118758935Y-85672991D01*
X118758934Y-85672988D01*
X118741542Y-85496400D01*
X118758934Y-85319812D01*
X118764825Y-85300392D01*
X118810442Y-85150012D01*
X118894088Y-84993522D01*
X119006657Y-84856357D01*
X119143822Y-84743788D01*
X119300312Y-84660142D01*
X119470109Y-84608635D01*
X119470112Y-84608634D01*
X119602451Y-84595600D01*
X119690949Y-84595600D01*
X119823288Y-84608634D01*
X119823288Y-84608634D01*
G37*
G36*
X122363288Y-84608634D02*
G01*
X122363291Y-84608635D01*
X122533088Y-84660142D01*
X122689578Y-84743788D01*
X122826743Y-84856357D01*
X122939312Y-84993522D01*
X123022958Y-85150012D01*
X123068575Y-85300392D01*
X123074466Y-85319812D01*
X123091858Y-85496400D01*
X123074466Y-85672988D01*
X123074465Y-85672991D01*
X123022958Y-85842788D01*
X122939312Y-85999278D01*
X122826743Y-86136443D01*
X122689578Y-86249012D01*
X122533088Y-86332658D01*
X122382708Y-86378275D01*
X122363288Y-86384166D01*
X122230949Y-86397200D01*
X122142451Y-86397200D01*
X122010112Y-86384166D01*
X121990692Y-86378275D01*
X121840312Y-86332658D01*
X121683822Y-86249012D01*
X121546657Y-86136443D01*
X121434088Y-85999278D01*
X121350442Y-85842788D01*
X121298935Y-85672991D01*
X121298934Y-85672988D01*
X121281542Y-85496400D01*
X121298934Y-85319812D01*
X121304825Y-85300392D01*
X121350442Y-85150012D01*
X121434088Y-84993522D01*
X121546657Y-84856357D01*
X121683822Y-84743788D01*
X121840312Y-84660142D01*
X122010109Y-84608635D01*
X122010112Y-84608634D01*
X122142451Y-84595600D01*
X122230949Y-84595600D01*
X122363288Y-84608634D01*
X122363288Y-84608634D01*
G37*
G36*
X124903288Y-84608634D02*
G01*
X124903291Y-84608635D01*
X125073088Y-84660142D01*
X125229578Y-84743788D01*
X125366743Y-84856357D01*
X125479312Y-84993522D01*
X125562958Y-85150012D01*
X125608575Y-85300392D01*
X125614466Y-85319812D01*
X125631858Y-85496400D01*
X125614466Y-85672988D01*
X125614465Y-85672991D01*
X125562958Y-85842788D01*
X125479312Y-85999278D01*
X125366743Y-86136443D01*
X125229578Y-86249012D01*
X125073088Y-86332658D01*
X124922708Y-86378275D01*
X124903288Y-86384166D01*
X124770949Y-86397200D01*
X124682451Y-86397200D01*
X124550112Y-86384166D01*
X124530692Y-86378275D01*
X124380312Y-86332658D01*
X124223822Y-86249012D01*
X124086657Y-86136443D01*
X123974088Y-85999278D01*
X123890442Y-85842788D01*
X123838935Y-85672991D01*
X123838934Y-85672988D01*
X123821542Y-85496400D01*
X123838934Y-85319812D01*
X123844825Y-85300392D01*
X123890442Y-85150012D01*
X123974088Y-84993522D01*
X124086657Y-84856357D01*
X124223822Y-84743788D01*
X124380312Y-84660142D01*
X124550109Y-84608635D01*
X124550112Y-84608634D01*
X124682451Y-84595600D01*
X124770949Y-84595600D01*
X124903288Y-84608634D01*
X124903288Y-84608634D01*
G37*
G36*
X127443288Y-84608634D02*
G01*
X127443291Y-84608635D01*
X127613088Y-84660142D01*
X127769578Y-84743788D01*
X127906743Y-84856357D01*
X128019312Y-84993522D01*
X128102958Y-85150012D01*
X128148575Y-85300392D01*
X128154466Y-85319812D01*
X128171858Y-85496400D01*
X128154466Y-85672988D01*
X128154465Y-85672991D01*
X128102958Y-85842788D01*
X128019312Y-85999278D01*
X127906743Y-86136443D01*
X127769578Y-86249012D01*
X127613088Y-86332658D01*
X127462708Y-86378275D01*
X127443288Y-86384166D01*
X127310949Y-86397200D01*
X127222451Y-86397200D01*
X127090112Y-86384166D01*
X127070692Y-86378275D01*
X126920312Y-86332658D01*
X126763822Y-86249012D01*
X126626657Y-86136443D01*
X126514088Y-85999278D01*
X126430442Y-85842788D01*
X126378935Y-85672991D01*
X126378934Y-85672988D01*
X126361542Y-85496400D01*
X126378934Y-85319812D01*
X126384825Y-85300392D01*
X126430442Y-85150012D01*
X126514088Y-84993522D01*
X126626657Y-84856357D01*
X126763822Y-84743788D01*
X126920312Y-84660142D01*
X127090109Y-84608635D01*
X127090112Y-84608634D01*
X127222451Y-84595600D01*
X127310949Y-84595600D01*
X127443288Y-84608634D01*
X127443288Y-84608634D01*
G37*
G36*
X115327488Y-84608634D02*
G01*
X115327491Y-84608635D01*
X115497288Y-84660142D01*
X115653778Y-84743788D01*
X115790943Y-84856357D01*
X115903512Y-84993522D01*
X115987158Y-85150012D01*
X116032775Y-85300392D01*
X116038666Y-85319812D01*
X116056058Y-85496400D01*
X116038666Y-85672988D01*
X116038665Y-85672991D01*
X115987158Y-85842788D01*
X115903512Y-85999278D01*
X115790943Y-86136443D01*
X115653778Y-86249012D01*
X115497288Y-86332658D01*
X115346908Y-86378275D01*
X115327488Y-86384166D01*
X115195149Y-86397200D01*
X115106651Y-86397200D01*
X114974312Y-86384166D01*
X114954892Y-86378275D01*
X114804512Y-86332658D01*
X114648022Y-86249012D01*
X114510857Y-86136443D01*
X114398288Y-85999278D01*
X114314642Y-85842788D01*
X114263135Y-85672991D01*
X114263134Y-85672988D01*
X114245742Y-85496400D01*
X114263134Y-85319812D01*
X114269025Y-85300392D01*
X114314642Y-85150012D01*
X114398288Y-84993522D01*
X114510857Y-84856357D01*
X114648022Y-84743788D01*
X114804512Y-84660142D01*
X114974309Y-84608635D01*
X114974312Y-84608634D01*
X115106651Y-84595600D01*
X115195149Y-84595600D01*
X115327488Y-84608634D01*
X115327488Y-84608634D01*
G37*
G36*
X112787488Y-84608634D02*
G01*
X112787491Y-84608635D01*
X112957288Y-84660142D01*
X113113778Y-84743788D01*
X113250943Y-84856357D01*
X113363512Y-84993522D01*
X113447158Y-85150012D01*
X113492775Y-85300392D01*
X113498666Y-85319812D01*
X113516058Y-85496400D01*
X113498666Y-85672988D01*
X113498665Y-85672991D01*
X113447158Y-85842788D01*
X113363512Y-85999278D01*
X113250943Y-86136443D01*
X113113778Y-86249012D01*
X112957288Y-86332658D01*
X112806908Y-86378275D01*
X112787488Y-86384166D01*
X112655149Y-86397200D01*
X112566651Y-86397200D01*
X112434312Y-86384166D01*
X112414892Y-86378275D01*
X112264512Y-86332658D01*
X112108022Y-86249012D01*
X111970857Y-86136443D01*
X111858288Y-85999278D01*
X111774642Y-85842788D01*
X111723135Y-85672991D01*
X111723134Y-85672988D01*
X111705742Y-85496400D01*
X111723134Y-85319812D01*
X111729025Y-85300392D01*
X111774642Y-85150012D01*
X111858288Y-84993522D01*
X111970857Y-84856357D01*
X112108022Y-84743788D01*
X112264512Y-84660142D01*
X112434309Y-84608635D01*
X112434312Y-84608634D01*
X112566651Y-84595600D01*
X112655149Y-84595600D01*
X112787488Y-84608634D01*
X112787488Y-84608634D01*
G37*
G36*
X85648800Y-85318600D02*
G01*
X83007200Y-85318600D01*
X83007200Y-80137000D01*
X85648800Y-80137000D01*
X85648800Y-85318600D01*
X85648800Y-85318600D01*
G37*
G36*
X108508800Y-85318600D02*
G01*
X105867200Y-85318600D01*
X105867200Y-80137000D01*
X108508800Y-80137000D01*
X108508800Y-85318600D01*
X108508800Y-85318600D01*
G37*
G36*
X127443288Y-82068634D02*
G01*
X127443291Y-82068635D01*
X127613088Y-82120142D01*
X127769578Y-82203788D01*
X127906743Y-82316357D01*
X128019312Y-82453522D01*
X128102958Y-82610012D01*
X128148575Y-82760392D01*
X128154466Y-82779812D01*
X128171858Y-82956400D01*
X128154466Y-83132988D01*
X128154465Y-83132991D01*
X128102958Y-83302788D01*
X128019312Y-83459278D01*
X127906743Y-83596443D01*
X127769578Y-83709012D01*
X127613088Y-83792658D01*
X127462708Y-83838275D01*
X127443288Y-83844166D01*
X127310949Y-83857200D01*
X127222451Y-83857200D01*
X127090112Y-83844166D01*
X127070692Y-83838275D01*
X126920312Y-83792658D01*
X126763822Y-83709012D01*
X126626657Y-83596443D01*
X126514088Y-83459278D01*
X126430442Y-83302788D01*
X126378935Y-83132991D01*
X126378934Y-83132988D01*
X126361542Y-82956400D01*
X126378934Y-82779812D01*
X126384825Y-82760392D01*
X126430442Y-82610012D01*
X126514088Y-82453522D01*
X126626657Y-82316357D01*
X126763822Y-82203788D01*
X126920312Y-82120142D01*
X127090109Y-82068635D01*
X127090112Y-82068634D01*
X127222451Y-82055600D01*
X127310949Y-82055600D01*
X127443288Y-82068634D01*
X127443288Y-82068634D01*
G37*
G36*
X115327488Y-82068634D02*
G01*
X115327491Y-82068635D01*
X115497288Y-82120142D01*
X115653778Y-82203788D01*
X115790943Y-82316357D01*
X115903512Y-82453522D01*
X115987158Y-82610012D01*
X116032775Y-82760392D01*
X116038666Y-82779812D01*
X116056058Y-82956400D01*
X116038666Y-83132988D01*
X116038665Y-83132991D01*
X115987158Y-83302788D01*
X115903512Y-83459278D01*
X115790943Y-83596443D01*
X115653778Y-83709012D01*
X115497288Y-83792658D01*
X115346908Y-83838275D01*
X115327488Y-83844166D01*
X115195149Y-83857200D01*
X115106651Y-83857200D01*
X114974312Y-83844166D01*
X114954892Y-83838275D01*
X114804512Y-83792658D01*
X114648022Y-83709012D01*
X114510857Y-83596443D01*
X114398288Y-83459278D01*
X114314642Y-83302788D01*
X114263135Y-83132991D01*
X114263134Y-83132988D01*
X114245742Y-82956400D01*
X114263134Y-82779812D01*
X114269025Y-82760392D01*
X114314642Y-82610012D01*
X114398288Y-82453522D01*
X114510857Y-82316357D01*
X114648022Y-82203788D01*
X114804512Y-82120142D01*
X114974309Y-82068635D01*
X114974312Y-82068634D01*
X115106651Y-82055600D01*
X115195149Y-82055600D01*
X115327488Y-82068634D01*
X115327488Y-82068634D01*
G37*
G36*
X124903288Y-82068634D02*
G01*
X124903291Y-82068635D01*
X125073088Y-82120142D01*
X125229578Y-82203788D01*
X125366743Y-82316357D01*
X125479312Y-82453522D01*
X125562958Y-82610012D01*
X125608575Y-82760392D01*
X125614466Y-82779812D01*
X125631858Y-82956400D01*
X125614466Y-83132988D01*
X125614465Y-83132991D01*
X125562958Y-83302788D01*
X125479312Y-83459278D01*
X125366743Y-83596443D01*
X125229578Y-83709012D01*
X125073088Y-83792658D01*
X124922708Y-83838275D01*
X124903288Y-83844166D01*
X124770949Y-83857200D01*
X124682451Y-83857200D01*
X124550112Y-83844166D01*
X124530692Y-83838275D01*
X124380312Y-83792658D01*
X124223822Y-83709012D01*
X124086657Y-83596443D01*
X123974088Y-83459278D01*
X123890442Y-83302788D01*
X123838935Y-83132991D01*
X123838934Y-83132988D01*
X123821542Y-82956400D01*
X123838934Y-82779812D01*
X123844825Y-82760392D01*
X123890442Y-82610012D01*
X123974088Y-82453522D01*
X124086657Y-82316357D01*
X124223822Y-82203788D01*
X124380312Y-82120142D01*
X124550109Y-82068635D01*
X124550112Y-82068634D01*
X124682451Y-82055600D01*
X124770949Y-82055600D01*
X124903288Y-82068634D01*
X124903288Y-82068634D01*
G37*
G36*
X122363288Y-82068634D02*
G01*
X122363291Y-82068635D01*
X122533088Y-82120142D01*
X122689578Y-82203788D01*
X122826743Y-82316357D01*
X122939312Y-82453522D01*
X123022958Y-82610012D01*
X123068575Y-82760392D01*
X123074466Y-82779812D01*
X123091858Y-82956400D01*
X123074466Y-83132988D01*
X123074465Y-83132991D01*
X123022958Y-83302788D01*
X122939312Y-83459278D01*
X122826743Y-83596443D01*
X122689578Y-83709012D01*
X122533088Y-83792658D01*
X122382708Y-83838275D01*
X122363288Y-83844166D01*
X122230949Y-83857200D01*
X122142451Y-83857200D01*
X122010112Y-83844166D01*
X121990692Y-83838275D01*
X121840312Y-83792658D01*
X121683822Y-83709012D01*
X121546657Y-83596443D01*
X121434088Y-83459278D01*
X121350442Y-83302788D01*
X121298935Y-83132991D01*
X121298934Y-83132988D01*
X121281542Y-82956400D01*
X121298934Y-82779812D01*
X121304825Y-82760392D01*
X121350442Y-82610012D01*
X121434088Y-82453522D01*
X121546657Y-82316357D01*
X121683822Y-82203788D01*
X121840312Y-82120142D01*
X122010109Y-82068635D01*
X122010112Y-82068634D01*
X122142451Y-82055600D01*
X122230949Y-82055600D01*
X122363288Y-82068634D01*
X122363288Y-82068634D01*
G37*
G36*
X112787488Y-82068634D02*
G01*
X112787491Y-82068635D01*
X112957288Y-82120142D01*
X113113778Y-82203788D01*
X113250943Y-82316357D01*
X113363512Y-82453522D01*
X113447158Y-82610012D01*
X113492775Y-82760392D01*
X113498666Y-82779812D01*
X113516058Y-82956400D01*
X113498666Y-83132988D01*
X113498665Y-83132991D01*
X113447158Y-83302788D01*
X113363512Y-83459278D01*
X113250943Y-83596443D01*
X113113778Y-83709012D01*
X112957288Y-83792658D01*
X112806908Y-83838275D01*
X112787488Y-83844166D01*
X112655149Y-83857200D01*
X112566651Y-83857200D01*
X112434312Y-83844166D01*
X112414892Y-83838275D01*
X112264512Y-83792658D01*
X112108022Y-83709012D01*
X111970857Y-83596443D01*
X111858288Y-83459278D01*
X111774642Y-83302788D01*
X111723135Y-83132991D01*
X111723134Y-83132988D01*
X111705742Y-82956400D01*
X111723134Y-82779812D01*
X111729025Y-82760392D01*
X111774642Y-82610012D01*
X111858288Y-82453522D01*
X111970857Y-82316357D01*
X112108022Y-82203788D01*
X112264512Y-82120142D01*
X112434309Y-82068635D01*
X112434312Y-82068634D01*
X112566651Y-82055600D01*
X112655149Y-82055600D01*
X112787488Y-82068634D01*
X112787488Y-82068634D01*
G37*
G36*
X119823288Y-82068634D02*
G01*
X119823291Y-82068635D01*
X119993088Y-82120142D01*
X120149578Y-82203788D01*
X120286743Y-82316357D01*
X120399312Y-82453522D01*
X120482958Y-82610012D01*
X120528575Y-82760392D01*
X120534466Y-82779812D01*
X120551858Y-82956400D01*
X120534466Y-83132988D01*
X120534465Y-83132991D01*
X120482958Y-83302788D01*
X120399312Y-83459278D01*
X120286743Y-83596443D01*
X120149578Y-83709012D01*
X119993088Y-83792658D01*
X119842708Y-83838275D01*
X119823288Y-83844166D01*
X119690949Y-83857200D01*
X119602451Y-83857200D01*
X119470112Y-83844166D01*
X119450692Y-83838275D01*
X119300312Y-83792658D01*
X119143822Y-83709012D01*
X119006657Y-83596443D01*
X118894088Y-83459278D01*
X118810442Y-83302788D01*
X118758935Y-83132991D01*
X118758934Y-83132988D01*
X118741542Y-82956400D01*
X118758934Y-82779812D01*
X118764825Y-82760392D01*
X118810442Y-82610012D01*
X118894088Y-82453522D01*
X119006657Y-82316357D01*
X119143822Y-82203788D01*
X119300312Y-82120142D01*
X119470109Y-82068635D01*
X119470112Y-82068634D01*
X119602451Y-82055600D01*
X119690949Y-82055600D01*
X119823288Y-82068634D01*
X119823288Y-82068634D01*
G37*
G36*
X114057488Y-79868930D02*
G01*
X114057491Y-79868931D01*
X114227288Y-79920438D01*
X114383778Y-80004084D01*
X114520943Y-80116653D01*
X114633512Y-80253818D01*
X114717158Y-80410308D01*
X114757760Y-80544157D01*
X114768666Y-80580108D01*
X114786058Y-80756696D01*
X114768666Y-80933284D01*
X114768665Y-80933287D01*
X114717158Y-81103084D01*
X114633512Y-81259574D01*
X114520943Y-81396739D01*
X114383778Y-81509308D01*
X114227288Y-81592954D01*
X114076908Y-81638571D01*
X114057488Y-81644462D01*
X113925149Y-81657496D01*
X113836651Y-81657496D01*
X113704312Y-81644462D01*
X113684892Y-81638571D01*
X113534512Y-81592954D01*
X113378022Y-81509308D01*
X113240857Y-81396739D01*
X113128288Y-81259574D01*
X113044642Y-81103084D01*
X112993135Y-80933287D01*
X112993134Y-80933284D01*
X112975742Y-80756696D01*
X112993134Y-80580108D01*
X113004040Y-80544157D01*
X113044642Y-80410308D01*
X113128288Y-80253818D01*
X113240857Y-80116653D01*
X113378022Y-80004084D01*
X113534512Y-79920438D01*
X113704309Y-79868931D01*
X113704312Y-79868930D01*
X113836651Y-79855896D01*
X113925149Y-79855896D01*
X114057488Y-79868930D01*
X114057488Y-79868930D01*
G37*
G36*
X127443288Y-79528634D02*
G01*
X127443291Y-79528635D01*
X127613088Y-79580142D01*
X127769578Y-79663788D01*
X127906743Y-79776357D01*
X128019312Y-79913522D01*
X128102958Y-80070012D01*
X128117106Y-80116653D01*
X128154466Y-80239812D01*
X128171858Y-80416400D01*
X128154466Y-80592988D01*
X128154465Y-80592991D01*
X128102958Y-80762788D01*
X128019312Y-80919278D01*
X127906743Y-81056443D01*
X127769578Y-81169012D01*
X127613088Y-81252658D01*
X127462708Y-81298275D01*
X127443288Y-81304166D01*
X127310949Y-81317200D01*
X127222451Y-81317200D01*
X127090112Y-81304166D01*
X127070692Y-81298275D01*
X126920312Y-81252658D01*
X126763822Y-81169012D01*
X126626657Y-81056443D01*
X126514088Y-80919278D01*
X126430442Y-80762788D01*
X126378935Y-80592991D01*
X126378934Y-80592988D01*
X126361542Y-80416400D01*
X126378934Y-80239812D01*
X126416294Y-80116653D01*
X126430442Y-80070012D01*
X126514088Y-79913522D01*
X126626657Y-79776357D01*
X126763822Y-79663788D01*
X126920312Y-79580142D01*
X127090109Y-79528635D01*
X127090112Y-79528634D01*
X127222451Y-79515600D01*
X127310949Y-79515600D01*
X127443288Y-79528634D01*
X127443288Y-79528634D01*
G37*
G36*
X124903288Y-79528634D02*
G01*
X124903291Y-79528635D01*
X125073088Y-79580142D01*
X125229578Y-79663788D01*
X125366743Y-79776357D01*
X125479312Y-79913522D01*
X125562958Y-80070012D01*
X125577106Y-80116653D01*
X125614466Y-80239812D01*
X125631858Y-80416400D01*
X125614466Y-80592988D01*
X125614465Y-80592991D01*
X125562958Y-80762788D01*
X125479312Y-80919278D01*
X125366743Y-81056443D01*
X125229578Y-81169012D01*
X125073088Y-81252658D01*
X124922708Y-81298275D01*
X124903288Y-81304166D01*
X124770949Y-81317200D01*
X124682451Y-81317200D01*
X124550112Y-81304166D01*
X124530692Y-81298275D01*
X124380312Y-81252658D01*
X124223822Y-81169012D01*
X124086657Y-81056443D01*
X123974088Y-80919278D01*
X123890442Y-80762788D01*
X123838935Y-80592991D01*
X123838934Y-80592988D01*
X123821542Y-80416400D01*
X123838934Y-80239812D01*
X123876294Y-80116653D01*
X123890442Y-80070012D01*
X123974088Y-79913522D01*
X124086657Y-79776357D01*
X124223822Y-79663788D01*
X124380312Y-79580142D01*
X124550109Y-79528635D01*
X124550112Y-79528634D01*
X124682451Y-79515600D01*
X124770949Y-79515600D01*
X124903288Y-79528634D01*
X124903288Y-79528634D01*
G37*
G36*
X122363288Y-79528634D02*
G01*
X122363291Y-79528635D01*
X122533088Y-79580142D01*
X122689578Y-79663788D01*
X122826743Y-79776357D01*
X122939312Y-79913522D01*
X123022958Y-80070012D01*
X123037106Y-80116653D01*
X123074466Y-80239812D01*
X123091858Y-80416400D01*
X123074466Y-80592988D01*
X123074465Y-80592991D01*
X123022958Y-80762788D01*
X122939312Y-80919278D01*
X122826743Y-81056443D01*
X122689578Y-81169012D01*
X122533088Y-81252658D01*
X122382708Y-81298275D01*
X122363288Y-81304166D01*
X122230949Y-81317200D01*
X122142451Y-81317200D01*
X122010112Y-81304166D01*
X121990692Y-81298275D01*
X121840312Y-81252658D01*
X121683822Y-81169012D01*
X121546657Y-81056443D01*
X121434088Y-80919278D01*
X121350442Y-80762788D01*
X121298935Y-80592991D01*
X121298934Y-80592988D01*
X121281542Y-80416400D01*
X121298934Y-80239812D01*
X121336294Y-80116653D01*
X121350442Y-80070012D01*
X121434088Y-79913522D01*
X121546657Y-79776357D01*
X121683822Y-79663788D01*
X121840312Y-79580142D01*
X122010109Y-79528635D01*
X122010112Y-79528634D01*
X122142451Y-79515600D01*
X122230949Y-79515600D01*
X122363288Y-79528634D01*
X122363288Y-79528634D01*
G37*
G36*
X119823288Y-79528634D02*
G01*
X119823291Y-79528635D01*
X119993088Y-79580142D01*
X120149578Y-79663788D01*
X120286743Y-79776357D01*
X120399312Y-79913522D01*
X120482958Y-80070012D01*
X120497106Y-80116653D01*
X120534466Y-80239812D01*
X120551858Y-80416400D01*
X120534466Y-80592988D01*
X120534465Y-80592991D01*
X120482958Y-80762788D01*
X120399312Y-80919278D01*
X120286743Y-81056443D01*
X120149578Y-81169012D01*
X119993088Y-81252658D01*
X119842708Y-81298275D01*
X119823288Y-81304166D01*
X119690949Y-81317200D01*
X119602451Y-81317200D01*
X119470112Y-81304166D01*
X119450692Y-81298275D01*
X119300312Y-81252658D01*
X119143822Y-81169012D01*
X119006657Y-81056443D01*
X118894088Y-80919278D01*
X118810442Y-80762788D01*
X118758935Y-80592991D01*
X118758934Y-80592988D01*
X118741542Y-80416400D01*
X118758934Y-80239812D01*
X118796294Y-80116653D01*
X118810442Y-80070012D01*
X118894088Y-79913522D01*
X119006657Y-79776357D01*
X119143822Y-79663788D01*
X119300312Y-79580142D01*
X119470109Y-79528635D01*
X119470112Y-79528634D01*
X119602451Y-79515600D01*
X119690949Y-79515600D01*
X119823288Y-79528634D01*
X119823288Y-79528634D01*
G37*
G36*
X110400689Y-78032429D02*
G01*
X110582678Y-78107811D01*
X110746463Y-78217249D01*
X110885751Y-78356537D01*
X110995189Y-78520322D01*
X111070571Y-78702311D01*
X111109000Y-78895509D01*
X111109000Y-79092491D01*
X111070571Y-79285689D01*
X110995189Y-79467678D01*
X110885751Y-79631463D01*
X110746463Y-79770751D01*
X110582678Y-79880189D01*
X110400689Y-79955571D01*
X110207491Y-79994000D01*
X110010509Y-79994000D01*
X109817311Y-79955571D01*
X109635322Y-79880189D01*
X109471537Y-79770751D01*
X109332249Y-79631463D01*
X109222811Y-79467678D01*
X109147429Y-79285689D01*
X109109000Y-79092491D01*
X109109000Y-78895509D01*
X109147429Y-78702311D01*
X109222811Y-78520322D01*
X109332249Y-78356537D01*
X109471537Y-78217249D01*
X109635322Y-78107811D01*
X109817311Y-78032429D01*
X110010509Y-77994000D01*
X110207491Y-77994000D01*
X110400689Y-78032429D01*
X110400689Y-78032429D01*
G37*
G36*
X119810588Y-76981014D02*
G01*
X119810591Y-76981015D01*
X119980388Y-77032522D01*
X120136878Y-77116168D01*
X120274043Y-77228737D01*
X120386612Y-77365902D01*
X120470258Y-77522392D01*
X120502746Y-77629492D01*
X120521766Y-77692192D01*
X120539158Y-77868780D01*
X120521766Y-78045368D01*
X120521765Y-78045371D01*
X120470258Y-78215168D01*
X120386612Y-78371658D01*
X120274043Y-78508823D01*
X120136878Y-78621392D01*
X119980388Y-78705038D01*
X119830008Y-78750655D01*
X119810588Y-78756546D01*
X119678249Y-78769580D01*
X119589751Y-78769580D01*
X119457412Y-78756546D01*
X119437992Y-78750655D01*
X119287612Y-78705038D01*
X119131122Y-78621392D01*
X118993957Y-78508823D01*
X118881388Y-78371658D01*
X118797742Y-78215168D01*
X118746235Y-78045371D01*
X118746234Y-78045368D01*
X118728842Y-77868780D01*
X118746234Y-77692192D01*
X118765254Y-77629492D01*
X118797742Y-77522392D01*
X118881388Y-77365902D01*
X118993957Y-77228737D01*
X119131122Y-77116168D01*
X119287612Y-77032522D01*
X119457409Y-76981015D01*
X119457412Y-76981014D01*
X119589751Y-76967980D01*
X119678249Y-76967980D01*
X119810588Y-76981014D01*
X119810588Y-76981014D01*
G37*
G36*
X127430588Y-76981014D02*
G01*
X127430591Y-76981015D01*
X127600388Y-77032522D01*
X127756878Y-77116168D01*
X127894043Y-77228737D01*
X128006612Y-77365902D01*
X128090258Y-77522392D01*
X128122746Y-77629492D01*
X128141766Y-77692192D01*
X128159158Y-77868780D01*
X128141766Y-78045368D01*
X128141765Y-78045371D01*
X128090258Y-78215168D01*
X128006612Y-78371658D01*
X127894043Y-78508823D01*
X127756878Y-78621392D01*
X127600388Y-78705038D01*
X127450008Y-78750655D01*
X127430588Y-78756546D01*
X127298249Y-78769580D01*
X127209751Y-78769580D01*
X127077412Y-78756546D01*
X127057992Y-78750655D01*
X126907612Y-78705038D01*
X126751122Y-78621392D01*
X126613957Y-78508823D01*
X126501388Y-78371658D01*
X126417742Y-78215168D01*
X126366235Y-78045371D01*
X126366234Y-78045368D01*
X126348842Y-77868780D01*
X126366234Y-77692192D01*
X126385254Y-77629492D01*
X126417742Y-77522392D01*
X126501388Y-77365902D01*
X126613957Y-77228737D01*
X126751122Y-77116168D01*
X126907612Y-77032522D01*
X127077409Y-76981015D01*
X127077412Y-76981014D01*
X127209751Y-76967980D01*
X127298249Y-76967980D01*
X127430588Y-76981014D01*
X127430588Y-76981014D01*
G37*
G36*
X122350588Y-76981014D02*
G01*
X122350591Y-76981015D01*
X122520388Y-77032522D01*
X122676878Y-77116168D01*
X122814043Y-77228737D01*
X122926612Y-77365902D01*
X123010258Y-77522392D01*
X123042746Y-77629492D01*
X123061766Y-77692192D01*
X123079158Y-77868780D01*
X123061766Y-78045368D01*
X123061765Y-78045371D01*
X123010258Y-78215168D01*
X122926612Y-78371658D01*
X122814043Y-78508823D01*
X122676878Y-78621392D01*
X122520388Y-78705038D01*
X122370008Y-78750655D01*
X122350588Y-78756546D01*
X122218249Y-78769580D01*
X122129751Y-78769580D01*
X121997412Y-78756546D01*
X121977992Y-78750655D01*
X121827612Y-78705038D01*
X121671122Y-78621392D01*
X121533957Y-78508823D01*
X121421388Y-78371658D01*
X121337742Y-78215168D01*
X121286235Y-78045371D01*
X121286234Y-78045368D01*
X121268842Y-77868780D01*
X121286234Y-77692192D01*
X121305254Y-77629492D01*
X121337742Y-77522392D01*
X121421388Y-77365902D01*
X121533957Y-77228737D01*
X121671122Y-77116168D01*
X121827612Y-77032522D01*
X121997409Y-76981015D01*
X121997412Y-76981014D01*
X122129751Y-76967980D01*
X122218249Y-76967980D01*
X122350588Y-76981014D01*
X122350588Y-76981014D01*
G37*
G36*
X124890588Y-76981014D02*
G01*
X124890591Y-76981015D01*
X125060388Y-77032522D01*
X125216878Y-77116168D01*
X125354043Y-77228737D01*
X125466612Y-77365902D01*
X125550258Y-77522392D01*
X125582746Y-77629492D01*
X125601766Y-77692192D01*
X125619158Y-77868780D01*
X125601766Y-78045368D01*
X125601765Y-78045371D01*
X125550258Y-78215168D01*
X125466612Y-78371658D01*
X125354043Y-78508823D01*
X125216878Y-78621392D01*
X125060388Y-78705038D01*
X124910008Y-78750655D01*
X124890588Y-78756546D01*
X124758249Y-78769580D01*
X124669751Y-78769580D01*
X124537412Y-78756546D01*
X124517992Y-78750655D01*
X124367612Y-78705038D01*
X124211122Y-78621392D01*
X124073957Y-78508823D01*
X123961388Y-78371658D01*
X123877742Y-78215168D01*
X123826235Y-78045371D01*
X123826234Y-78045368D01*
X123808842Y-77868780D01*
X123826234Y-77692192D01*
X123845254Y-77629492D01*
X123877742Y-77522392D01*
X123961388Y-77365902D01*
X124073957Y-77228737D01*
X124211122Y-77116168D01*
X124367612Y-77032522D01*
X124537409Y-76981015D01*
X124537412Y-76981014D01*
X124669751Y-76967980D01*
X124758249Y-76967980D01*
X124890588Y-76981014D01*
X124890588Y-76981014D01*
G37*
G36*
X114222803Y-75547233D02*
G01*
X114395531Y-75618780D01*
X114486836Y-75656599D01*
X114724449Y-75815368D01*
X114926532Y-76017451D01*
X115085301Y-76255064D01*
X115100881Y-76292678D01*
X115194667Y-76519097D01*
X115250420Y-76799389D01*
X115250420Y-77085171D01*
X115194667Y-77365463D01*
X115123120Y-77538191D01*
X115085301Y-77629496D01*
X114926532Y-77867109D01*
X114724449Y-78069192D01*
X114486836Y-78227961D01*
X114395531Y-78265780D01*
X114222803Y-78337327D01*
X113942511Y-78393080D01*
X113656729Y-78393080D01*
X113376437Y-78337327D01*
X113203709Y-78265780D01*
X113112404Y-78227961D01*
X112874791Y-78069192D01*
X112672708Y-77867109D01*
X112513939Y-77629496D01*
X112476120Y-77538191D01*
X112404573Y-77365463D01*
X112348820Y-77085171D01*
X112348820Y-76799389D01*
X112404573Y-76519097D01*
X112498359Y-76292678D01*
X112513939Y-76255064D01*
X112672708Y-76017451D01*
X112874791Y-75815368D01*
X113112404Y-75656599D01*
X113203709Y-75618780D01*
X113376437Y-75547233D01*
X113656729Y-75491480D01*
X113942511Y-75491480D01*
X114222803Y-75547233D01*
X114222803Y-75547233D01*
G37*
G36*
X87286689Y-74857429D02*
G01*
X87468678Y-74932811D01*
X87632463Y-75042249D01*
X87771751Y-75181537D01*
X87881189Y-75345322D01*
X87956571Y-75527311D01*
X87995000Y-75720509D01*
X87995000Y-75917491D01*
X87956571Y-76110689D01*
X87881189Y-76292678D01*
X87771751Y-76456463D01*
X87632463Y-76595751D01*
X87468678Y-76705189D01*
X87286689Y-76780571D01*
X87093491Y-76819000D01*
X86896509Y-76819000D01*
X86703311Y-76780571D01*
X86521322Y-76705189D01*
X86357537Y-76595751D01*
X86218249Y-76456463D01*
X86108811Y-76292678D01*
X86033429Y-76110689D01*
X85995000Y-75917491D01*
X85995000Y-75720509D01*
X86033429Y-75527311D01*
X86108811Y-75345322D01*
X86218249Y-75181537D01*
X86357537Y-75042249D01*
X86521322Y-74932811D01*
X86703311Y-74857429D01*
X86896509Y-74819000D01*
X87093491Y-74819000D01*
X87286689Y-74857429D01*
X87286689Y-74857429D01*
G37*
G36*
X126160588Y-74786390D02*
G01*
X126160591Y-74786391D01*
X126330388Y-74837898D01*
X126486878Y-74921544D01*
X126624043Y-75034113D01*
X126736612Y-75171278D01*
X126820258Y-75327768D01*
X126825583Y-75345323D01*
X126871766Y-75497568D01*
X126889158Y-75674156D01*
X126871766Y-75850744D01*
X126871765Y-75850747D01*
X126820258Y-76020544D01*
X126736612Y-76177034D01*
X126624043Y-76314199D01*
X126486878Y-76426768D01*
X126330388Y-76510414D01*
X126180008Y-76556031D01*
X126160588Y-76561922D01*
X126028249Y-76574956D01*
X125939751Y-76574956D01*
X125807412Y-76561922D01*
X125787992Y-76556031D01*
X125637612Y-76510414D01*
X125481122Y-76426768D01*
X125343957Y-76314199D01*
X125231388Y-76177034D01*
X125147742Y-76020544D01*
X125096235Y-75850747D01*
X125096234Y-75850744D01*
X125078842Y-75674156D01*
X125096234Y-75497568D01*
X125142417Y-75345323D01*
X125147742Y-75327768D01*
X125231388Y-75171278D01*
X125343957Y-75034113D01*
X125481122Y-74921544D01*
X125637612Y-74837898D01*
X125807409Y-74786391D01*
X125807412Y-74786390D01*
X125939751Y-74773356D01*
X126028249Y-74773356D01*
X126160588Y-74786390D01*
X126160588Y-74786390D01*
G37*
G36*
X123620588Y-74786390D02*
G01*
X123620591Y-74786391D01*
X123790388Y-74837898D01*
X123946878Y-74921544D01*
X124084043Y-75034113D01*
X124196612Y-75171278D01*
X124280258Y-75327768D01*
X124285583Y-75345323D01*
X124331766Y-75497568D01*
X124349158Y-75674156D01*
X124331766Y-75850744D01*
X124331765Y-75850747D01*
X124280258Y-76020544D01*
X124196612Y-76177034D01*
X124084043Y-76314199D01*
X123946878Y-76426768D01*
X123790388Y-76510414D01*
X123640008Y-76556031D01*
X123620588Y-76561922D01*
X123488249Y-76574956D01*
X123399751Y-76574956D01*
X123267412Y-76561922D01*
X123247992Y-76556031D01*
X123097612Y-76510414D01*
X122941122Y-76426768D01*
X122803957Y-76314199D01*
X122691388Y-76177034D01*
X122607742Y-76020544D01*
X122556235Y-75850747D01*
X122556234Y-75850744D01*
X122538842Y-75674156D01*
X122556234Y-75497568D01*
X122602417Y-75345323D01*
X122607742Y-75327768D01*
X122691388Y-75171278D01*
X122803957Y-75034113D01*
X122941122Y-74921544D01*
X123097612Y-74837898D01*
X123267409Y-74786391D01*
X123267412Y-74786390D01*
X123399751Y-74773356D01*
X123488249Y-74773356D01*
X123620588Y-74786390D01*
X123620588Y-74786390D01*
G37*
G36*
X121080588Y-74786390D02*
G01*
X121080591Y-74786391D01*
X121250388Y-74837898D01*
X121406878Y-74921544D01*
X121544043Y-75034113D01*
X121656612Y-75171278D01*
X121740258Y-75327768D01*
X121745583Y-75345323D01*
X121791766Y-75497568D01*
X121809158Y-75674156D01*
X121791766Y-75850744D01*
X121791765Y-75850747D01*
X121740258Y-76020544D01*
X121656612Y-76177034D01*
X121544043Y-76314199D01*
X121406878Y-76426768D01*
X121250388Y-76510414D01*
X121100008Y-76556031D01*
X121080588Y-76561922D01*
X120948249Y-76574956D01*
X120859751Y-76574956D01*
X120727412Y-76561922D01*
X120707992Y-76556031D01*
X120557612Y-76510414D01*
X120401122Y-76426768D01*
X120263957Y-76314199D01*
X120151388Y-76177034D01*
X120067742Y-76020544D01*
X120016235Y-75850747D01*
X120016234Y-75850744D01*
X119998842Y-75674156D01*
X120016234Y-75497568D01*
X120062417Y-75345323D01*
X120067742Y-75327768D01*
X120151388Y-75171278D01*
X120263957Y-75034113D01*
X120401122Y-74921544D01*
X120557612Y-74837898D01*
X120727409Y-74786391D01*
X120727412Y-74786390D01*
X120859751Y-74773356D01*
X120948249Y-74773356D01*
X121080588Y-74786390D01*
X121080588Y-74786390D01*
G37*
M02*
