%TF.GenerationSoftware,KiCad,Pcbnew,(6.0.0-rc1-dev-1614-ge850a482d)*%
%TF.CreationDate,2019-02-12T09:03:14-08:00*%
%TF.ProjectId,spriteSAMD,73707269-7465-4534-914d-442e6b696361,rev?*%
%TF.SameCoordinates,Original*%
%TF.FileFunction,Legend,Bot*%
%TF.FilePolarity,Positive*%
%FSLAX46Y46*%
G04 Gerber Fmt 4.6, Leading zero omitted, Abs format (unit mm)*
G04 Created by KiCad (PCBNEW (6.0.0-rc1-dev-1614-ge850a482d)) date 2019-02-12 09:03:14*
%MOMM*%
%LPD*%
G04 APERTURE LIST*
%ADD10C,0.150000*%
%ADD11C,0.127000*%
%ADD12C,0.101600*%
%ADD13C,0.190500*%
%ADD14C,0.120000*%
%ADD15C,0.200000*%
%ADD16C,0.152400*%
%ADD17C,0.100000*%
G04 APERTURE END LIST*
D10*
X82550000Y-88836500D02*
X82804000Y-88836500D01*
X82804000Y-88836500D02*
X82804000Y-88582500D01*
X82804000Y-88582500D02*
X82550000Y-88836500D01*
X82232500Y-88265000D02*
X82804000Y-88836500D01*
X82740500Y-79819500D02*
X82740500Y-79565500D01*
X82740500Y-79565500D02*
X82486500Y-79819500D01*
X82486500Y-79819500D02*
X82740500Y-79819500D01*
X82169000Y-79248000D02*
X82740500Y-79819500D01*
X107124500Y-95948500D02*
X107696000Y-95377000D01*
X107696000Y-95377000D02*
X107442000Y-95377000D01*
X107696000Y-95631000D02*
X107696000Y-95377000D01*
X107442000Y-95377000D02*
X107696000Y-95631000D01*
X106045000Y-77216000D02*
X106045000Y-76962000D01*
X106045000Y-76962000D02*
X105791000Y-76962000D01*
X105791000Y-76962000D02*
X106045000Y-77216000D01*
X105473500Y-77533500D02*
X106045000Y-76962000D01*
X82740500Y-74930000D02*
X82486500Y-75184000D01*
X82486500Y-75184000D02*
X82740500Y-75184000D01*
X82740500Y-75184000D02*
X82740500Y-74930000D01*
X82169000Y-74612500D02*
X82740500Y-75184000D01*
D11*
X90200238Y-74665114D02*
X90170000Y-74634876D01*
X90079285Y-74604638D01*
X90018809Y-74604638D01*
X89928095Y-74634876D01*
X89867619Y-74695352D01*
X89837380Y-74755828D01*
X89807142Y-74876780D01*
X89807142Y-74967495D01*
X89837380Y-75088447D01*
X89867619Y-75148923D01*
X89928095Y-75209400D01*
X90018809Y-75239638D01*
X90079285Y-75239638D01*
X90170000Y-75209400D01*
X90200238Y-75179161D01*
X90835238Y-74604638D02*
X90623571Y-74907019D01*
X90472380Y-74604638D02*
X90472380Y-75239638D01*
X90714285Y-75239638D01*
X90774761Y-75209400D01*
X90805000Y-75179161D01*
X90835238Y-75118685D01*
X90835238Y-75027971D01*
X90805000Y-74967495D01*
X90774761Y-74937257D01*
X90714285Y-74907019D01*
X90472380Y-74907019D01*
X91077142Y-75179161D02*
X91107380Y-75209400D01*
X91167857Y-75239638D01*
X91319047Y-75239638D01*
X91379523Y-75209400D01*
X91409761Y-75179161D01*
X91440000Y-75118685D01*
X91440000Y-75058209D01*
X91409761Y-74967495D01*
X91046904Y-74604638D01*
X91440000Y-74604638D01*
X91833095Y-75239638D02*
X91893571Y-75239638D01*
X91954047Y-75209400D01*
X91984285Y-75179161D01*
X92014523Y-75118685D01*
X92044761Y-74997733D01*
X92044761Y-74846542D01*
X92014523Y-74725590D01*
X91984285Y-74665114D01*
X91954047Y-74634876D01*
X91893571Y-74604638D01*
X91833095Y-74604638D01*
X91772619Y-74634876D01*
X91742380Y-74665114D01*
X91712142Y-74725590D01*
X91681904Y-74846542D01*
X91681904Y-74997733D01*
X91712142Y-75118685D01*
X91742380Y-75179161D01*
X91772619Y-75209400D01*
X91833095Y-75239638D01*
X92256428Y-75239638D02*
X92649523Y-75239638D01*
X92437857Y-74997733D01*
X92528571Y-74997733D01*
X92589047Y-74967495D01*
X92619285Y-74937257D01*
X92649523Y-74876780D01*
X92649523Y-74725590D01*
X92619285Y-74665114D01*
X92589047Y-74634876D01*
X92528571Y-74604638D01*
X92347142Y-74604638D01*
X92286666Y-74634876D01*
X92256428Y-74665114D01*
X92891428Y-75179161D02*
X92921666Y-75209400D01*
X92982142Y-75239638D01*
X93133333Y-75239638D01*
X93193809Y-75209400D01*
X93224047Y-75179161D01*
X93254285Y-75118685D01*
X93254285Y-75058209D01*
X93224047Y-74967495D01*
X92861190Y-74604638D01*
X93254285Y-74604638D01*
X94010238Y-74846542D02*
X94494047Y-74846542D01*
X94796428Y-74846542D02*
X95280238Y-74846542D01*
X96066428Y-75239638D02*
X96066428Y-74725590D01*
X96096666Y-74665114D01*
X96126904Y-74634876D01*
X96187380Y-74604638D01*
X96308333Y-74604638D01*
X96368809Y-74634876D01*
X96399047Y-74665114D01*
X96429285Y-74725590D01*
X96429285Y-75239638D01*
X96731666Y-74604638D02*
X96731666Y-75239638D01*
X97094523Y-74604638D01*
X97094523Y-75239638D01*
X97396904Y-74604638D02*
X97396904Y-75239638D01*
X97638809Y-75239638D01*
X97699285Y-75209400D01*
X97729523Y-75179161D01*
X97759761Y-75118685D01*
X97759761Y-75027971D01*
X97729523Y-74967495D01*
X97699285Y-74937257D01*
X97638809Y-74907019D01*
X97396904Y-74907019D01*
X98334285Y-74604638D02*
X98031904Y-74604638D01*
X98031904Y-75239638D01*
X98545952Y-75239638D02*
X98545952Y-74725590D01*
X98576190Y-74665114D01*
X98606428Y-74634876D01*
X98666904Y-74604638D01*
X98787857Y-74604638D01*
X98848333Y-74634876D01*
X98878571Y-74665114D01*
X98908809Y-74725590D01*
X98908809Y-75239638D01*
X99543809Y-75209400D02*
X99483333Y-75239638D01*
X99392619Y-75239638D01*
X99301904Y-75209400D01*
X99241428Y-75148923D01*
X99211190Y-75088447D01*
X99180952Y-74967495D01*
X99180952Y-74876780D01*
X99211190Y-74755828D01*
X99241428Y-74695352D01*
X99301904Y-74634876D01*
X99392619Y-74604638D01*
X99453095Y-74604638D01*
X99543809Y-74634876D01*
X99574047Y-74665114D01*
X99574047Y-74876780D01*
X99453095Y-74876780D01*
X100330000Y-75239638D02*
X100330000Y-74725590D01*
X100360238Y-74665114D01*
X100390476Y-74634876D01*
X100450952Y-74604638D01*
X100571904Y-74604638D01*
X100632380Y-74634876D01*
X100662619Y-74665114D01*
X100692857Y-74725590D01*
X100692857Y-75239638D01*
X100965000Y-74634876D02*
X101055714Y-74604638D01*
X101206904Y-74604638D01*
X101267380Y-74634876D01*
X101297619Y-74665114D01*
X101327857Y-74725590D01*
X101327857Y-74786066D01*
X101297619Y-74846542D01*
X101267380Y-74876780D01*
X101206904Y-74907019D01*
X101085952Y-74937257D01*
X101025476Y-74967495D01*
X100995238Y-74997733D01*
X100965000Y-75058209D01*
X100965000Y-75118685D01*
X100995238Y-75179161D01*
X101025476Y-75209400D01*
X101085952Y-75239638D01*
X101237142Y-75239638D01*
X101327857Y-75209400D01*
X101811666Y-74937257D02*
X101902380Y-74907019D01*
X101932619Y-74876780D01*
X101962857Y-74816304D01*
X101962857Y-74725590D01*
X101932619Y-74665114D01*
X101902380Y-74634876D01*
X101841904Y-74604638D01*
X101600000Y-74604638D01*
X101600000Y-75239638D01*
X101811666Y-75239638D01*
X101872142Y-75209400D01*
X101902380Y-75179161D01*
X101932619Y-75118685D01*
X101932619Y-75058209D01*
X101902380Y-74997733D01*
X101872142Y-74967495D01*
X101811666Y-74937257D01*
X101600000Y-74937257D01*
D12*
X114110709Y-97298933D02*
X113602709Y-97298933D01*
X113602709Y-97419885D01*
X113626900Y-97492457D01*
X113675280Y-97540838D01*
X113723661Y-97565028D01*
X113820423Y-97589219D01*
X113892995Y-97589219D01*
X113989757Y-97565028D01*
X114038138Y-97540838D01*
X114086519Y-97492457D01*
X114110709Y-97419885D01*
X114110709Y-97298933D01*
X113965566Y-97782742D02*
X113965566Y-98024647D01*
X114110709Y-97734361D02*
X113602709Y-97903695D01*
X114110709Y-98073028D01*
X114062328Y-98532647D02*
X114086519Y-98508457D01*
X114110709Y-98435885D01*
X114110709Y-98387504D01*
X114086519Y-98314933D01*
X114038138Y-98266552D01*
X113989757Y-98242361D01*
X113892995Y-98218171D01*
X113820423Y-98218171D01*
X113723661Y-98242361D01*
X113675280Y-98266552D01*
X113626900Y-98314933D01*
X113602709Y-98387504D01*
X113602709Y-98435885D01*
X113626900Y-98508457D01*
X113651090Y-98532647D01*
X113602709Y-98847123D02*
X113602709Y-98895504D01*
X113626900Y-98943885D01*
X113651090Y-98968076D01*
X113699471Y-98992266D01*
X113796233Y-99016457D01*
X113917185Y-99016457D01*
X114013947Y-98992266D01*
X114062328Y-98968076D01*
X114086519Y-98943885D01*
X114110709Y-98895504D01*
X114110709Y-98847123D01*
X114086519Y-98798742D01*
X114062328Y-98774552D01*
X114013947Y-98750361D01*
X113917185Y-98726171D01*
X113796233Y-98726171D01*
X113699471Y-98750361D01*
X113651090Y-98774552D01*
X113626900Y-98798742D01*
X113602709Y-98847123D01*
D11*
X88724014Y-100025804D02*
X88693776Y-100056042D01*
X88663538Y-100146757D01*
X88663538Y-100207233D01*
X88693776Y-100297947D01*
X88754252Y-100358423D01*
X88814728Y-100388661D01*
X88935680Y-100418900D01*
X89026395Y-100418900D01*
X89147347Y-100388661D01*
X89207823Y-100358423D01*
X89268300Y-100297947D01*
X89298538Y-100207233D01*
X89298538Y-100146757D01*
X89268300Y-100056042D01*
X89238061Y-100025804D01*
X88905442Y-99753661D02*
X88905442Y-99269852D01*
X88663538Y-99511757D02*
X89147347Y-99511757D01*
X88663538Y-98967471D02*
X89298538Y-98967471D01*
X88844966Y-98755804D01*
X89298538Y-98544138D01*
X88663538Y-98544138D01*
X83562371Y-102150333D02*
X83139038Y-101999142D01*
X83562371Y-101847952D01*
X83713561Y-101636285D02*
X83743800Y-101606047D01*
X83774038Y-101545571D01*
X83774038Y-101394380D01*
X83743800Y-101333904D01*
X83713561Y-101303666D01*
X83653085Y-101273428D01*
X83592609Y-101273428D01*
X83501895Y-101303666D01*
X83139038Y-101666523D01*
X83139038Y-101273428D01*
X83139038Y-101001285D02*
X83774038Y-101001285D01*
X83532133Y-101001285D02*
X83562371Y-100940809D01*
X83562371Y-100819857D01*
X83532133Y-100759380D01*
X83501895Y-100729142D01*
X83441419Y-100698904D01*
X83259990Y-100698904D01*
X83199514Y-100729142D01*
X83169276Y-100759380D01*
X83139038Y-100819857D01*
X83139038Y-100940809D01*
X83169276Y-101001285D01*
D12*
X103263095Y-106490709D02*
X103263095Y-105982709D01*
X103142142Y-105982709D01*
X103069571Y-106006900D01*
X103021190Y-106055280D01*
X102997000Y-106103661D01*
X102972809Y-106200423D01*
X102972809Y-106272995D01*
X102997000Y-106369757D01*
X103021190Y-106418138D01*
X103069571Y-106466519D01*
X103142142Y-106490709D01*
X103263095Y-106490709D01*
X102755095Y-106490709D02*
X102755095Y-105982709D01*
X102416428Y-105982709D02*
X102319666Y-105982709D01*
X102271285Y-106006900D01*
X102222904Y-106055280D01*
X102198714Y-106152042D01*
X102198714Y-106321376D01*
X102222904Y-106418138D01*
X102271285Y-106466519D01*
X102319666Y-106490709D01*
X102416428Y-106490709D01*
X102464809Y-106466519D01*
X102513190Y-106418138D01*
X102537380Y-106321376D01*
X102537380Y-106152042D01*
X102513190Y-106055280D01*
X102464809Y-106006900D01*
X102416428Y-105982709D01*
X105526114Y-106713790D02*
X105501923Y-106689600D01*
X105453542Y-106665409D01*
X105332590Y-106665409D01*
X105284209Y-106689600D01*
X105260019Y-106713790D01*
X105235828Y-106762171D01*
X105235828Y-106810552D01*
X105260019Y-106883123D01*
X105550304Y-107173409D01*
X105235828Y-107173409D01*
X105018114Y-107125028D02*
X104993923Y-107149219D01*
X105018114Y-107173409D01*
X105042304Y-107149219D01*
X105018114Y-107125028D01*
X105018114Y-107173409D01*
X104510114Y-107173409D02*
X104800400Y-107173409D01*
X104655257Y-107173409D02*
X104655257Y-106665409D01*
X104703638Y-106737980D01*
X104752019Y-106786361D01*
X104800400Y-106810552D01*
X104364971Y-106665409D02*
X104195638Y-107173409D01*
X104026304Y-106665409D01*
X100746680Y-106518528D02*
X100770871Y-106542719D01*
X100843442Y-106566909D01*
X100891823Y-106566909D01*
X100964395Y-106542719D01*
X101012776Y-106494338D01*
X101036966Y-106445957D01*
X101061157Y-106349195D01*
X101061157Y-106276623D01*
X101036966Y-106179861D01*
X101012776Y-106131480D01*
X100964395Y-106083100D01*
X100891823Y-106058909D01*
X100843442Y-106058909D01*
X100770871Y-106083100D01*
X100746680Y-106107290D01*
X100287061Y-106566909D02*
X100528966Y-106566909D01*
X100528966Y-106058909D01*
X100117728Y-106566909D02*
X100117728Y-106058909D01*
X99827442Y-106566909D02*
X100045157Y-106276623D01*
X99827442Y-106058909D02*
X100117728Y-106349195D01*
X97529347Y-106133900D02*
X97577728Y-106109709D01*
X97650300Y-106109709D01*
X97722871Y-106133900D01*
X97771252Y-106182280D01*
X97795442Y-106230661D01*
X97819633Y-106327423D01*
X97819633Y-106399995D01*
X97795442Y-106496757D01*
X97771252Y-106545138D01*
X97722871Y-106593519D01*
X97650300Y-106617709D01*
X97601919Y-106617709D01*
X97529347Y-106593519D01*
X97505157Y-106569328D01*
X97505157Y-106399995D01*
X97601919Y-106399995D01*
X97287442Y-106617709D02*
X97287442Y-106109709D01*
X96997157Y-106617709D01*
X96997157Y-106109709D01*
X96755252Y-106617709D02*
X96755252Y-106109709D01*
X96634300Y-106109709D01*
X96561728Y-106133900D01*
X96513347Y-106182280D01*
X96489157Y-106230661D01*
X96464966Y-106327423D01*
X96464966Y-106399995D01*
X96489157Y-106496757D01*
X96513347Y-106545138D01*
X96561728Y-106593519D01*
X96634300Y-106617709D01*
X96755252Y-106617709D01*
D11*
X93646776Y-107813928D02*
X93646776Y-108327976D01*
X93677014Y-108388452D01*
X93707252Y-108418690D01*
X93767728Y-108448928D01*
X93858442Y-108448928D01*
X93918919Y-108418690D01*
X93646776Y-108207023D02*
X93707252Y-108237261D01*
X93828204Y-108237261D01*
X93888680Y-108207023D01*
X93918919Y-108176785D01*
X93949157Y-108116309D01*
X93949157Y-107934880D01*
X93918919Y-107874404D01*
X93888680Y-107844166D01*
X93828204Y-107813928D01*
X93707252Y-107813928D01*
X93646776Y-107844166D01*
X93344395Y-108237261D02*
X93344395Y-107813928D01*
X93344395Y-107602261D02*
X93374633Y-107632500D01*
X93344395Y-107662738D01*
X93314157Y-107632500D01*
X93344395Y-107602261D01*
X93344395Y-107662738D01*
X93132728Y-107813928D02*
X92890823Y-107813928D01*
X93042014Y-107602261D02*
X93042014Y-108146547D01*
X93011776Y-108207023D01*
X92951300Y-108237261D01*
X92890823Y-108237261D01*
X92679157Y-108237261D02*
X92679157Y-107602261D01*
X92407014Y-108237261D02*
X92407014Y-107904642D01*
X92437252Y-107844166D01*
X92497728Y-107813928D01*
X92588442Y-107813928D01*
X92648919Y-107844166D01*
X92679157Y-107874404D01*
X91832490Y-107813928D02*
X91832490Y-108237261D01*
X92104633Y-107813928D02*
X92104633Y-108146547D01*
X92074395Y-108207023D01*
X92013919Y-108237261D01*
X91923204Y-108237261D01*
X91862728Y-108207023D01*
X91832490Y-108176785D01*
X91530109Y-108237261D02*
X91530109Y-107602261D01*
X91530109Y-107844166D02*
X91469633Y-107813928D01*
X91348680Y-107813928D01*
X91288204Y-107844166D01*
X91257966Y-107874404D01*
X91227728Y-107934880D01*
X91227728Y-108116309D01*
X91257966Y-108176785D01*
X91288204Y-108207023D01*
X91348680Y-108237261D01*
X91469633Y-108237261D01*
X91530109Y-108207023D01*
X90955585Y-108176785D02*
X90925347Y-108207023D01*
X90955585Y-108237261D01*
X90985823Y-108207023D01*
X90955585Y-108176785D01*
X90955585Y-108237261D01*
X90381061Y-108207023D02*
X90441538Y-108237261D01*
X90562490Y-108237261D01*
X90622966Y-108207023D01*
X90653204Y-108176785D01*
X90683442Y-108116309D01*
X90683442Y-107934880D01*
X90653204Y-107874404D01*
X90622966Y-107844166D01*
X90562490Y-107813928D01*
X90441538Y-107813928D01*
X90381061Y-107844166D01*
X90018204Y-108237261D02*
X90078680Y-108207023D01*
X90108919Y-108176785D01*
X90139157Y-108116309D01*
X90139157Y-107934880D01*
X90108919Y-107874404D01*
X90078680Y-107844166D01*
X90018204Y-107813928D01*
X89927490Y-107813928D01*
X89867014Y-107844166D01*
X89836776Y-107874404D01*
X89806538Y-107934880D01*
X89806538Y-108116309D01*
X89836776Y-108176785D01*
X89867014Y-108207023D01*
X89927490Y-108237261D01*
X90018204Y-108237261D01*
X89534395Y-108237261D02*
X89534395Y-107813928D01*
X89534395Y-107874404D02*
X89504157Y-107844166D01*
X89443680Y-107813928D01*
X89352966Y-107813928D01*
X89292490Y-107844166D01*
X89262252Y-107904642D01*
X89262252Y-108237261D01*
X89262252Y-107904642D02*
X89232014Y-107844166D01*
X89171538Y-107813928D01*
X89080823Y-107813928D01*
X89020347Y-107844166D01*
X88990109Y-107904642D01*
X88990109Y-108237261D01*
X88234157Y-107572023D02*
X88778442Y-108388452D01*
X88022490Y-108237261D02*
X88022490Y-107602261D01*
X87962014Y-107995357D02*
X87780585Y-108237261D01*
X87780585Y-107813928D02*
X88022490Y-108055833D01*
X87508442Y-108237261D02*
X87508442Y-107813928D01*
X87508442Y-107602261D02*
X87538680Y-107632500D01*
X87508442Y-107662738D01*
X87478204Y-107632500D01*
X87508442Y-107602261D01*
X87508442Y-107662738D01*
X86933919Y-108207023D02*
X86994395Y-108237261D01*
X87115347Y-108237261D01*
X87175823Y-108207023D01*
X87206061Y-108176785D01*
X87236300Y-108116309D01*
X87236300Y-107934880D01*
X87206061Y-107874404D01*
X87175823Y-107844166D01*
X87115347Y-107813928D01*
X86994395Y-107813928D01*
X86933919Y-107844166D01*
X86661776Y-108237261D02*
X86661776Y-107602261D01*
X86601300Y-107995357D02*
X86419871Y-108237261D01*
X86419871Y-107813928D02*
X86661776Y-108055833D01*
X86177966Y-108207023D02*
X86117490Y-108237261D01*
X85996538Y-108237261D01*
X85936061Y-108207023D01*
X85905823Y-108146547D01*
X85905823Y-108116309D01*
X85936061Y-108055833D01*
X85996538Y-108025595D01*
X86087252Y-108025595D01*
X86147728Y-107995357D01*
X86177966Y-107934880D01*
X86177966Y-107904642D01*
X86147728Y-107844166D01*
X86087252Y-107813928D01*
X85996538Y-107813928D01*
X85936061Y-107844166D01*
X85361538Y-108237261D02*
X85361538Y-107904642D01*
X85391776Y-107844166D01*
X85452252Y-107813928D01*
X85573204Y-107813928D01*
X85633680Y-107844166D01*
X85361538Y-108207023D02*
X85422014Y-108237261D01*
X85573204Y-108237261D01*
X85633680Y-108207023D01*
X85663919Y-108146547D01*
X85663919Y-108086071D01*
X85633680Y-108025595D01*
X85573204Y-107995357D01*
X85422014Y-107995357D01*
X85361538Y-107965119D01*
X85149871Y-107813928D02*
X84907966Y-107813928D01*
X85059157Y-107602261D02*
X85059157Y-108146547D01*
X85028919Y-108207023D01*
X84968442Y-108237261D01*
X84907966Y-108237261D01*
D10*
X96469200Y-92608400D02*
X96062800Y-92608400D01*
X96062800Y-92202000D02*
X96469200Y-92608400D01*
X96469200Y-92202000D02*
X96062800Y-92202000D01*
X97231200Y-92100400D02*
X97231200Y-92405200D01*
X97231200Y-92100400D02*
X97028000Y-91897200D01*
X97434400Y-91897200D02*
X97231200Y-92100400D01*
X96062800Y-90576400D02*
X95808800Y-90932000D01*
X95808800Y-90576400D02*
X96062800Y-90932000D01*
X96672400Y-91744800D02*
G75*
G03X96672400Y-91744800I-50800J0D01*
G01*
X96367600Y-91269866D02*
X96570800Y-91371466D01*
X96316800Y-91897200D02*
G75*
G02X96316800Y-91389200I0J254000D01*
G01*
X96570800Y-91371466D02*
X96367600Y-91523866D01*
X96367600Y-91523866D02*
X96367600Y-91269866D01*
X96621600Y-90424000D02*
X96824800Y-90271600D01*
X96824800Y-90271600D02*
X96824800Y-90525600D01*
X96824800Y-90525600D02*
X96621600Y-90424000D01*
X97383600Y-91135200D02*
X97485200Y-90932000D01*
X97637600Y-91135200D02*
X97383600Y-91135200D01*
X97485200Y-90932000D02*
X97637600Y-91135200D01*
X97485200Y-91135200D02*
G75*
G02X96977200Y-91135200I-254000J0D01*
G01*
X96875600Y-90424000D02*
G75*
G02X96875600Y-90932000I0J-254000D01*
G01*
X97434400Y-91592400D02*
X97231200Y-91795600D01*
X97028000Y-91592400D02*
X97434400Y-91592400D01*
X97231200Y-91795600D02*
X97028000Y-91592400D01*
X97231200Y-90779600D02*
X97231200Y-91795600D01*
X96418400Y-90932000D02*
X96266000Y-90779600D01*
X96418400Y-90627200D02*
X96418400Y-90932000D01*
X96266000Y-90779600D02*
X96418400Y-90627200D01*
X97231200Y-90779600D02*
X96266000Y-90779600D01*
X116701044Y-84099400D02*
G75*
G02X117842556Y-84099400I570756J0D01*
G01*
X117842556Y-81635600D02*
G75*
G02X116701044Y-81635600I-570756J0D01*
G01*
X116701044Y-94513400D02*
G75*
G02X117842556Y-94513400I570756J0D01*
G01*
X117842556Y-92049600D02*
G75*
G02X116701044Y-92049600I-570756J0D01*
G01*
D12*
X114099219Y-82339542D02*
X114123409Y-82412114D01*
X114123409Y-82533066D01*
X114099219Y-82581447D01*
X114075028Y-82605638D01*
X114026647Y-82629828D01*
X113978266Y-82629828D01*
X113929885Y-82605638D01*
X113905695Y-82581447D01*
X113881504Y-82533066D01*
X113857314Y-82436304D01*
X113833123Y-82387923D01*
X113808933Y-82363733D01*
X113760552Y-82339542D01*
X113712171Y-82339542D01*
X113663790Y-82363733D01*
X113639600Y-82387923D01*
X113615409Y-82436304D01*
X113615409Y-82557257D01*
X113639600Y-82629828D01*
X114123409Y-82847542D02*
X113615409Y-82847542D01*
X113615409Y-82968495D01*
X113639600Y-83041066D01*
X113687980Y-83089447D01*
X113736361Y-83113638D01*
X113833123Y-83137828D01*
X113905695Y-83137828D01*
X114002457Y-83113638D01*
X114050838Y-83089447D01*
X114099219Y-83041066D01*
X114123409Y-82968495D01*
X114123409Y-82847542D01*
X113978266Y-83331352D02*
X113978266Y-83573257D01*
X114123409Y-83282971D02*
X113615409Y-83452304D01*
X114123409Y-83621638D01*
X116690019Y-82250038D02*
X116714209Y-82322609D01*
X116714209Y-82443561D01*
X116690019Y-82491942D01*
X116665828Y-82516133D01*
X116617447Y-82540323D01*
X116569066Y-82540323D01*
X116520685Y-82516133D01*
X116496495Y-82491942D01*
X116472304Y-82443561D01*
X116448114Y-82346800D01*
X116423923Y-82298419D01*
X116399733Y-82274228D01*
X116351352Y-82250038D01*
X116302971Y-82250038D01*
X116254590Y-82274228D01*
X116230400Y-82298419D01*
X116206209Y-82346800D01*
X116206209Y-82467752D01*
X116230400Y-82540323D01*
X116665828Y-83048323D02*
X116690019Y-83024133D01*
X116714209Y-82951561D01*
X116714209Y-82903180D01*
X116690019Y-82830609D01*
X116641638Y-82782228D01*
X116593257Y-82758038D01*
X116496495Y-82733847D01*
X116423923Y-82733847D01*
X116327161Y-82758038D01*
X116278780Y-82782228D01*
X116230400Y-82830609D01*
X116206209Y-82903180D01*
X116206209Y-82951561D01*
X116230400Y-83024133D01*
X116254590Y-83048323D01*
X116714209Y-83507942D02*
X116714209Y-83266038D01*
X116206209Y-83266038D01*
X116638009Y-84687228D02*
X116130009Y-84687228D01*
X116130009Y-84880752D01*
X116154200Y-84929133D01*
X116178390Y-84953323D01*
X116226771Y-84977514D01*
X116299342Y-84977514D01*
X116347723Y-84953323D01*
X116371914Y-84929133D01*
X116396104Y-84880752D01*
X116396104Y-84687228D01*
X116492866Y-85171038D02*
X116492866Y-85412942D01*
X116638009Y-85122657D02*
X116130009Y-85291990D01*
X116638009Y-85461323D01*
X116130009Y-85727419D02*
X116130009Y-85775800D01*
X116154200Y-85824180D01*
X116178390Y-85848371D01*
X116226771Y-85872561D01*
X116323533Y-85896752D01*
X116444485Y-85896752D01*
X116541247Y-85872561D01*
X116589628Y-85848371D01*
X116613819Y-85824180D01*
X116638009Y-85775800D01*
X116638009Y-85727419D01*
X116613819Y-85679038D01*
X116589628Y-85654847D01*
X116541247Y-85630657D01*
X116444485Y-85606466D01*
X116323533Y-85606466D01*
X116226771Y-85630657D01*
X116178390Y-85654847D01*
X116154200Y-85679038D01*
X116130009Y-85727419D01*
X116638009Y-86138657D02*
X116638009Y-86235419D01*
X116613819Y-86283800D01*
X116589628Y-86307990D01*
X116517057Y-86356371D01*
X116420295Y-86380561D01*
X116226771Y-86380561D01*
X116178390Y-86356371D01*
X116154200Y-86332180D01*
X116130009Y-86283800D01*
X116130009Y-86187038D01*
X116154200Y-86138657D01*
X116178390Y-86114466D01*
X116226771Y-86090276D01*
X116347723Y-86090276D01*
X116396104Y-86114466D01*
X116420295Y-86138657D01*
X116444485Y-86187038D01*
X116444485Y-86283800D01*
X116420295Y-86332180D01*
X116396104Y-86356371D01*
X116347723Y-86380561D01*
X114123409Y-84687228D02*
X113615409Y-84687228D01*
X113615409Y-84880752D01*
X113639600Y-84929133D01*
X113663790Y-84953323D01*
X113712171Y-84977514D01*
X113784742Y-84977514D01*
X113833123Y-84953323D01*
X113857314Y-84929133D01*
X113881504Y-84880752D01*
X113881504Y-84687228D01*
X113978266Y-85171038D02*
X113978266Y-85412942D01*
X114123409Y-85122657D02*
X113615409Y-85291990D01*
X114123409Y-85461323D01*
X114123409Y-85896752D02*
X114123409Y-85606466D01*
X114123409Y-85751609D02*
X113615409Y-85751609D01*
X113687980Y-85703228D01*
X113736361Y-85654847D01*
X113760552Y-85606466D01*
X113615409Y-86211228D02*
X113615409Y-86259609D01*
X113639600Y-86307990D01*
X113663790Y-86332180D01*
X113712171Y-86356371D01*
X113808933Y-86380561D01*
X113929885Y-86380561D01*
X114026647Y-86356371D01*
X114075028Y-86332180D01*
X114099219Y-86307990D01*
X114123409Y-86259609D01*
X114123409Y-86211228D01*
X114099219Y-86162847D01*
X114075028Y-86138657D01*
X114026647Y-86114466D01*
X113929885Y-86090276D01*
X113808933Y-86090276D01*
X113712171Y-86114466D01*
X113663790Y-86138657D01*
X113639600Y-86162847D01*
X113615409Y-86211228D01*
X114123409Y-87227228D02*
X113615409Y-87227228D01*
X113615409Y-87420752D01*
X113639600Y-87469133D01*
X113663790Y-87493323D01*
X113712171Y-87517514D01*
X113784742Y-87517514D01*
X113833123Y-87493323D01*
X113857314Y-87469133D01*
X113881504Y-87420752D01*
X113881504Y-87227228D01*
X113978266Y-87711038D02*
X113978266Y-87952942D01*
X114123409Y-87662657D02*
X113615409Y-87831990D01*
X114123409Y-88001323D01*
X113615409Y-88267419D02*
X113615409Y-88315800D01*
X113639600Y-88364180D01*
X113663790Y-88388371D01*
X113712171Y-88412561D01*
X113808933Y-88436752D01*
X113929885Y-88436752D01*
X114026647Y-88412561D01*
X114075028Y-88388371D01*
X114099219Y-88364180D01*
X114123409Y-88315800D01*
X114123409Y-88267419D01*
X114099219Y-88219038D01*
X114075028Y-88194847D01*
X114026647Y-88170657D01*
X113929885Y-88146466D01*
X113808933Y-88146466D01*
X113712171Y-88170657D01*
X113663790Y-88194847D01*
X113639600Y-88219038D01*
X113615409Y-88267419D01*
X113833123Y-88727038D02*
X113808933Y-88678657D01*
X113784742Y-88654466D01*
X113736361Y-88630276D01*
X113712171Y-88630276D01*
X113663790Y-88654466D01*
X113639600Y-88678657D01*
X113615409Y-88727038D01*
X113615409Y-88823800D01*
X113639600Y-88872180D01*
X113663790Y-88896371D01*
X113712171Y-88920561D01*
X113736361Y-88920561D01*
X113784742Y-88896371D01*
X113808933Y-88872180D01*
X113833123Y-88823800D01*
X113833123Y-88727038D01*
X113857314Y-88678657D01*
X113881504Y-88654466D01*
X113929885Y-88630276D01*
X114026647Y-88630276D01*
X114075028Y-88654466D01*
X114099219Y-88678657D01*
X114123409Y-88727038D01*
X114123409Y-88823800D01*
X114099219Y-88872180D01*
X114075028Y-88896371D01*
X114026647Y-88920561D01*
X113929885Y-88920561D01*
X113881504Y-88896371D01*
X113857314Y-88872180D01*
X113833123Y-88823800D01*
X116599909Y-94832714D02*
X116091909Y-94832714D01*
X116454766Y-95002047D01*
X116091909Y-95171380D01*
X116599909Y-95171380D01*
X116599909Y-95413285D02*
X116091909Y-95413285D01*
X116575719Y-95631000D02*
X116599909Y-95703571D01*
X116599909Y-95824523D01*
X116575719Y-95872904D01*
X116551528Y-95897095D01*
X116503147Y-95921285D01*
X116454766Y-95921285D01*
X116406385Y-95897095D01*
X116382195Y-95872904D01*
X116358004Y-95824523D01*
X116333814Y-95727761D01*
X116309623Y-95679380D01*
X116285433Y-95655190D01*
X116237052Y-95631000D01*
X116188671Y-95631000D01*
X116140290Y-95655190D01*
X116116100Y-95679380D01*
X116091909Y-95727761D01*
X116091909Y-95848714D01*
X116116100Y-95921285D01*
X116091909Y-96235761D02*
X116091909Y-96332523D01*
X116116100Y-96380904D01*
X116164480Y-96429285D01*
X116261242Y-96453476D01*
X116430576Y-96453476D01*
X116527338Y-96429285D01*
X116575719Y-96380904D01*
X116599909Y-96332523D01*
X116599909Y-96235761D01*
X116575719Y-96187380D01*
X116527338Y-96139000D01*
X116430576Y-96114809D01*
X116261242Y-96114809D01*
X116164480Y-96139000D01*
X116116100Y-96187380D01*
X116091909Y-96235761D01*
X114086519Y-95079457D02*
X114110709Y-95152028D01*
X114110709Y-95272980D01*
X114086519Y-95321361D01*
X114062328Y-95345552D01*
X114013947Y-95369742D01*
X113965566Y-95369742D01*
X113917185Y-95345552D01*
X113892995Y-95321361D01*
X113868804Y-95272980D01*
X113844614Y-95176219D01*
X113820423Y-95127838D01*
X113796233Y-95103647D01*
X113747852Y-95079457D01*
X113699471Y-95079457D01*
X113651090Y-95103647D01*
X113626900Y-95127838D01*
X113602709Y-95176219D01*
X113602709Y-95297171D01*
X113626900Y-95369742D01*
X114062328Y-95877742D02*
X114086519Y-95853552D01*
X114110709Y-95780980D01*
X114110709Y-95732600D01*
X114086519Y-95660028D01*
X114038138Y-95611647D01*
X113989757Y-95587457D01*
X113892995Y-95563266D01*
X113820423Y-95563266D01*
X113723661Y-95587457D01*
X113675280Y-95611647D01*
X113626900Y-95660028D01*
X113602709Y-95732600D01*
X113602709Y-95780980D01*
X113626900Y-95853552D01*
X113651090Y-95877742D01*
X114110709Y-96095457D02*
X113602709Y-96095457D01*
X114110709Y-96385742D02*
X113820423Y-96168028D01*
X113602709Y-96385742D02*
X113892995Y-96095457D01*
X116650709Y-92368914D02*
X116142709Y-92368914D01*
X116505566Y-92538247D01*
X116142709Y-92707580D01*
X116650709Y-92707580D01*
X116142709Y-93046247D02*
X116142709Y-93143009D01*
X116166900Y-93191390D01*
X116215280Y-93239771D01*
X116312042Y-93263961D01*
X116481376Y-93263961D01*
X116578138Y-93239771D01*
X116626519Y-93191390D01*
X116650709Y-93143009D01*
X116650709Y-93046247D01*
X116626519Y-92997866D01*
X116578138Y-92949485D01*
X116481376Y-92925295D01*
X116312042Y-92925295D01*
X116215280Y-92949485D01*
X116166900Y-92997866D01*
X116142709Y-93046247D01*
X116626519Y-93457485D02*
X116650709Y-93530057D01*
X116650709Y-93651009D01*
X116626519Y-93699390D01*
X116602328Y-93723580D01*
X116553947Y-93747771D01*
X116505566Y-93747771D01*
X116457185Y-93723580D01*
X116432995Y-93699390D01*
X116408804Y-93651009D01*
X116384614Y-93554247D01*
X116360423Y-93505866D01*
X116336233Y-93481676D01*
X116287852Y-93457485D01*
X116239471Y-93457485D01*
X116191090Y-93481676D01*
X116166900Y-93505866D01*
X116142709Y-93554247D01*
X116142709Y-93675200D01*
X116166900Y-93747771D01*
X116650709Y-93965485D02*
X116142709Y-93965485D01*
X114110709Y-92332628D02*
X113602709Y-92332628D01*
X113602709Y-92526152D01*
X113626900Y-92574533D01*
X113651090Y-92598723D01*
X113699471Y-92622914D01*
X113772042Y-92622914D01*
X113820423Y-92598723D01*
X113844614Y-92574533D01*
X113868804Y-92526152D01*
X113868804Y-92332628D01*
X113965566Y-92816438D02*
X113965566Y-93058342D01*
X114110709Y-92768057D02*
X113602709Y-92937390D01*
X114110709Y-93106723D01*
X113602709Y-93372819D02*
X113602709Y-93421200D01*
X113626900Y-93469580D01*
X113651090Y-93493771D01*
X113699471Y-93517961D01*
X113796233Y-93542152D01*
X113917185Y-93542152D01*
X114013947Y-93517961D01*
X114062328Y-93493771D01*
X114086519Y-93469580D01*
X114110709Y-93421200D01*
X114110709Y-93372819D01*
X114086519Y-93324438D01*
X114062328Y-93300247D01*
X114013947Y-93276057D01*
X113917185Y-93251866D01*
X113796233Y-93251866D01*
X113699471Y-93276057D01*
X113651090Y-93300247D01*
X113626900Y-93324438D01*
X113602709Y-93372819D01*
X113602709Y-93977580D02*
X113602709Y-93880819D01*
X113626900Y-93832438D01*
X113651090Y-93808247D01*
X113723661Y-93759866D01*
X113820423Y-93735676D01*
X114013947Y-93735676D01*
X114062328Y-93759866D01*
X114086519Y-93784057D01*
X114110709Y-93832438D01*
X114110709Y-93929200D01*
X114086519Y-93977580D01*
X114062328Y-94001771D01*
X114013947Y-94025961D01*
X113892995Y-94025961D01*
X113844614Y-94001771D01*
X113820423Y-93977580D01*
X113796233Y-93929200D01*
X113796233Y-93832438D01*
X113820423Y-93784057D01*
X113844614Y-93759866D01*
X113892995Y-93735676D01*
X116168109Y-90176652D02*
X116168109Y-90466938D01*
X116676109Y-90321795D02*
X116168109Y-90321795D01*
X116168109Y-90587890D02*
X116676109Y-90926557D01*
X116168109Y-90926557D02*
X116676109Y-90587890D01*
X114136109Y-90479033D02*
X113894204Y-90309700D01*
X114136109Y-90188747D02*
X113628109Y-90188747D01*
X113628109Y-90382271D01*
X113652300Y-90430652D01*
X113676490Y-90454842D01*
X113724871Y-90479033D01*
X113797442Y-90479033D01*
X113845823Y-90454842D01*
X113870014Y-90430652D01*
X113894204Y-90382271D01*
X113894204Y-90188747D01*
X113628109Y-90648366D02*
X114136109Y-90987033D01*
X113628109Y-90987033D02*
X114136109Y-90648366D01*
D13*
X115164285Y-99620628D02*
X115128000Y-99656914D01*
X115091714Y-99729485D01*
X115091714Y-99910914D01*
X115128000Y-99983485D01*
X115164285Y-100019771D01*
X115236857Y-100056057D01*
X115309428Y-100056057D01*
X115418285Y-100019771D01*
X115853714Y-99584342D01*
X115853714Y-100056057D01*
X115781142Y-100382628D02*
X115817428Y-100418914D01*
X115853714Y-100382628D01*
X115817428Y-100346342D01*
X115781142Y-100382628D01*
X115853714Y-100382628D01*
X115853714Y-101144628D02*
X115853714Y-100709200D01*
X115853714Y-100926914D02*
X115091714Y-100926914D01*
X115200571Y-100854342D01*
X115273142Y-100781771D01*
X115309428Y-100709200D01*
X115091714Y-101362342D02*
X115853714Y-101616342D01*
X115091714Y-101870342D01*
X118501085Y-99671428D02*
X118464800Y-99707714D01*
X118428514Y-99780285D01*
X118428514Y-99961714D01*
X118464800Y-100034285D01*
X118501085Y-100070571D01*
X118573657Y-100106857D01*
X118646228Y-100106857D01*
X118755085Y-100070571D01*
X119190514Y-99635142D01*
X119190514Y-100106857D01*
X119117942Y-100433428D02*
X119154228Y-100469714D01*
X119190514Y-100433428D01*
X119154228Y-100397142D01*
X119117942Y-100433428D01*
X119190514Y-100433428D01*
X119190514Y-101195428D02*
X119190514Y-100760000D01*
X119190514Y-100977714D02*
X118428514Y-100977714D01*
X118537371Y-100905142D01*
X118609942Y-100832571D01*
X118646228Y-100760000D01*
X118428514Y-101413142D02*
X119190514Y-101667142D01*
X118428514Y-101921142D01*
X118304800Y-74889428D02*
X118268514Y-74816857D01*
X118268514Y-74708000D01*
X118304800Y-74599142D01*
X118377371Y-74526571D01*
X118449942Y-74490285D01*
X118595085Y-74454000D01*
X118703942Y-74454000D01*
X118849085Y-74490285D01*
X118921657Y-74526571D01*
X118994228Y-74599142D01*
X119030514Y-74708000D01*
X119030514Y-74780571D01*
X118994228Y-74889428D01*
X118957942Y-74925714D01*
X118703942Y-74925714D01*
X118703942Y-74780571D01*
X119030514Y-75252285D02*
X118268514Y-75252285D01*
X119030514Y-75687714D01*
X118268514Y-75687714D01*
X119030514Y-76050571D02*
X118268514Y-76050571D01*
X118268514Y-76232000D01*
X118304800Y-76340857D01*
X118377371Y-76413428D01*
X118449942Y-76449714D01*
X118595085Y-76486000D01*
X118703942Y-76486000D01*
X118849085Y-76449714D01*
X118921657Y-76413428D01*
X118994228Y-76340857D01*
X119030514Y-76232000D01*
X119030514Y-76050571D01*
X115191800Y-79958828D02*
X115155514Y-79886257D01*
X115155514Y-79777400D01*
X115191800Y-79668542D01*
X115264371Y-79595971D01*
X115336942Y-79559685D01*
X115482085Y-79523400D01*
X115590942Y-79523400D01*
X115736085Y-79559685D01*
X115808657Y-79595971D01*
X115881228Y-79668542D01*
X115917514Y-79777400D01*
X115917514Y-79849971D01*
X115881228Y-79958828D01*
X115844942Y-79995114D01*
X115590942Y-79995114D01*
X115590942Y-79849971D01*
X115917514Y-80321685D02*
X115155514Y-80321685D01*
X115917514Y-80757114D01*
X115155514Y-80757114D01*
X115917514Y-81119971D02*
X115155514Y-81119971D01*
X115155514Y-81301400D01*
X115191800Y-81410257D01*
X115264371Y-81482828D01*
X115336942Y-81519114D01*
X115482085Y-81555400D01*
X115590942Y-81555400D01*
X115736085Y-81519114D01*
X115808657Y-81482828D01*
X115881228Y-81410257D01*
X115917514Y-81301400D01*
X115917514Y-81119971D01*
D10*
X115744000Y-81875000D02*
X116252000Y-81875000D01*
X112696000Y-81875000D02*
X113204000Y-81875000D01*
X113712000Y-81875000D02*
X114220000Y-81875000D01*
X111680000Y-81875000D02*
X112188000Y-81875000D01*
X114728000Y-81875000D02*
X115236000Y-81875000D01*
X127914400Y-76784200D02*
X128422400Y-76784200D01*
X116700300Y-104775000D02*
X112522000Y-109041600D01*
X118364000Y-76784200D02*
X118872000Y-76784200D01*
X126923800Y-76784200D02*
X127431800Y-76784200D01*
X124891800Y-76784200D02*
X125399800Y-76784200D01*
X119811800Y-76784200D02*
X120319800Y-76784200D01*
X118795800Y-76784200D02*
X119303800Y-76784200D01*
X125907800Y-76784200D02*
X126415800Y-76784200D01*
X123875800Y-76784200D02*
X124383800Y-76784200D01*
X120827800Y-76784200D02*
X121335800Y-76784200D01*
X122859800Y-76784200D02*
X123367800Y-76784200D01*
X121843800Y-76784200D02*
X122351800Y-76784200D01*
X123621800Y-99314000D02*
X124129800Y-99314000D01*
X125653800Y-99314000D02*
X126161800Y-99314000D01*
X122605800Y-99314000D02*
X123113800Y-99314000D01*
X119557800Y-99314000D02*
X120065800Y-99314000D01*
X118541800Y-99314000D02*
X119049800Y-99314000D01*
X114554000Y-99314000D02*
X115062000Y-99314000D01*
X121589800Y-99314000D02*
X122097800Y-99314000D01*
X113538000Y-99314000D02*
X114046000Y-99314000D01*
X124637800Y-99314000D02*
X125145800Y-99314000D01*
X120573800Y-99314000D02*
X121081800Y-99314000D01*
X118110000Y-99314000D02*
X118618000Y-99314000D01*
X112522000Y-99314000D02*
X113030000Y-99314000D01*
X126669800Y-99314000D02*
X127177800Y-99314000D01*
X115570000Y-99314000D02*
X116078000Y-99314000D01*
X111506000Y-99314000D02*
X112014000Y-99314000D01*
X117843300Y-84099400D02*
X117843300Y-92049600D01*
X117843300Y-74041000D02*
X117843300Y-81610200D01*
X117843300Y-94513400D02*
X117843300Y-102108000D01*
X116700300Y-104775000D02*
X116700300Y-94538800D01*
X116700300Y-92024200D02*
X116700300Y-84124800D01*
X116700300Y-81635600D02*
X116700300Y-74041000D01*
X124891800Y-102108000D02*
X117856000Y-102108000D01*
X128955800Y-98044000D02*
X124891800Y-102108000D01*
X128955800Y-74041600D02*
X128955800Y-98044000D01*
X117843300Y-74041000D02*
X128955800Y-74041000D01*
X82550000Y-98044000D02*
X81725100Y-97536000D01*
X82550000Y-105156000D02*
X81725100Y-105664000D01*
X81725100Y-105664000D02*
X81725100Y-109041600D01*
X82550000Y-98044000D02*
X82550000Y-105156000D01*
X81725100Y-109041600D02*
X112522000Y-109041600D01*
X116700300Y-74041600D02*
X81725100Y-74041600D01*
X81725100Y-74041600D02*
X81725100Y-97536000D01*
D14*
X109422200Y-106857800D02*
X109422200Y-107241800D01*
X109422200Y-107241800D02*
X109042200Y-107241800D01*
D10*
X92671780Y-94684800D02*
X92055030Y-94684800D01*
X92671780Y-94684800D02*
X92671780Y-95684800D01*
X90113530Y-99111800D02*
X89496780Y-99111800D01*
X89496780Y-99111800D02*
X89496780Y-98111800D01*
X92087030Y-99111800D02*
X92703780Y-99111800D01*
X92703780Y-99111800D02*
X92703780Y-98111800D01*
X90124280Y-94665800D02*
X89489280Y-95300800D01*
D15*
X89462280Y-94511800D02*
G75*
G03X89462280Y-94511800I-100000J0D01*
G01*
D14*
X99092278Y-104342000D02*
X98575122Y-104342000D01*
X99092278Y-102922000D02*
X98575122Y-102922000D01*
D16*
X91109800Y-102565200D02*
X91109800Y-100634800D01*
X92395040Y-100634800D02*
X93075760Y-100634800D01*
X94361000Y-100634800D02*
X94361000Y-102565200D01*
X87383620Y-102565200D02*
X87383620Y-100634800D01*
X88668860Y-100634800D02*
X89349580Y-100634800D01*
X90634820Y-100634800D02*
X90634820Y-102565200D01*
D17*
X99070000Y-92907180D02*
G75*
G03X99070000Y-92907180I-200000J0D01*
G01*
D12*
X98670000Y-93107180D02*
X94970000Y-93107180D01*
X94970000Y-93107180D02*
X94970000Y-96307180D01*
X94970000Y-96307180D02*
X98670000Y-96307180D01*
X98670000Y-96307180D02*
X98670000Y-93107180D01*
X108589838Y-103864349D02*
X108251171Y-104372349D01*
X108251171Y-103864349D02*
X108589838Y-104372349D01*
X107791552Y-104372349D02*
X108081838Y-104372349D01*
X107936695Y-104372349D02*
X107936695Y-103864349D01*
X107985076Y-103936920D01*
X108033457Y-103985301D01*
X108081838Y-104009492D01*
X91111009Y-93135752D02*
X91522247Y-93135752D01*
X91570628Y-93159942D01*
X91594819Y-93184133D01*
X91619009Y-93232514D01*
X91619009Y-93329276D01*
X91594819Y-93377657D01*
X91570628Y-93401847D01*
X91522247Y-93426038D01*
X91111009Y-93426038D01*
X91111009Y-93619561D02*
X91111009Y-93958228D01*
X91619009Y-93740514D01*
X99398666Y-102541009D02*
X99640571Y-102541009D01*
X99640571Y-102033009D01*
X98963238Y-102541009D02*
X99253523Y-102541009D01*
X99108380Y-102541009D02*
X99108380Y-102033009D01*
X99156761Y-102105580D01*
X99205142Y-102153961D01*
X99253523Y-102178152D01*
X86952666Y-97867409D02*
X87122000Y-97625504D01*
X87242952Y-97867409D02*
X87242952Y-97359409D01*
X87049428Y-97359409D01*
X87001047Y-97383600D01*
X86976857Y-97407790D01*
X86952666Y-97456171D01*
X86952666Y-97528742D01*
X86976857Y-97577123D01*
X87001047Y-97601314D01*
X87049428Y-97625504D01*
X87242952Y-97625504D01*
X86662380Y-97577123D02*
X86710761Y-97552933D01*
X86734952Y-97528742D01*
X86759142Y-97480361D01*
X86759142Y-97456171D01*
X86734952Y-97407790D01*
X86710761Y-97383600D01*
X86662380Y-97359409D01*
X86565619Y-97359409D01*
X86517238Y-97383600D01*
X86493047Y-97407790D01*
X86468857Y-97456171D01*
X86468857Y-97480361D01*
X86493047Y-97528742D01*
X86517238Y-97552933D01*
X86565619Y-97577123D01*
X86662380Y-97577123D01*
X86710761Y-97601314D01*
X86734952Y-97625504D01*
X86759142Y-97673885D01*
X86759142Y-97770647D01*
X86734952Y-97819028D01*
X86710761Y-97843219D01*
X86662380Y-97867409D01*
X86565619Y-97867409D01*
X86517238Y-97843219D01*
X86493047Y-97819028D01*
X86468857Y-97770647D01*
X86468857Y-97673885D01*
X86493047Y-97625504D01*
X86517238Y-97601314D01*
X86565619Y-97577123D01*
X93544571Y-104270628D02*
X93568761Y-104294819D01*
X93641333Y-104319009D01*
X93689714Y-104319009D01*
X93762285Y-104294819D01*
X93810666Y-104246438D01*
X93834857Y-104198057D01*
X93859047Y-104101295D01*
X93859047Y-104028723D01*
X93834857Y-103931961D01*
X93810666Y-103883580D01*
X93762285Y-103835200D01*
X93689714Y-103811009D01*
X93641333Y-103811009D01*
X93568761Y-103835200D01*
X93544571Y-103859390D01*
X93351047Y-103859390D02*
X93326857Y-103835200D01*
X93278476Y-103811009D01*
X93157523Y-103811009D01*
X93109142Y-103835200D01*
X93084952Y-103859390D01*
X93060761Y-103907771D01*
X93060761Y-103956152D01*
X93084952Y-104028723D01*
X93375238Y-104319009D01*
X93060761Y-104319009D01*
X92818857Y-104319009D02*
X92722095Y-104319009D01*
X92673714Y-104294819D01*
X92649523Y-104270628D01*
X92601142Y-104198057D01*
X92576952Y-104101295D01*
X92576952Y-103907771D01*
X92601142Y-103859390D01*
X92625333Y-103835200D01*
X92673714Y-103811009D01*
X92770476Y-103811009D01*
X92818857Y-103835200D01*
X92843047Y-103859390D01*
X92867238Y-103907771D01*
X92867238Y-104028723D01*
X92843047Y-104077104D01*
X92818857Y-104101295D01*
X92770476Y-104125485D01*
X92673714Y-104125485D01*
X92625333Y-104101295D01*
X92601142Y-104077104D01*
X92576952Y-104028723D01*
X93302666Y-107163809D02*
X93472000Y-106921904D01*
X93592952Y-107163809D02*
X93592952Y-106655809D01*
X93399428Y-106655809D01*
X93351047Y-106680000D01*
X93326857Y-106704190D01*
X93302666Y-106752571D01*
X93302666Y-106825142D01*
X93326857Y-106873523D01*
X93351047Y-106897714D01*
X93399428Y-106921904D01*
X93592952Y-106921904D01*
X93060761Y-107163809D02*
X92964000Y-107163809D01*
X92915619Y-107139619D01*
X92891428Y-107115428D01*
X92843047Y-107042857D01*
X92818857Y-106946095D01*
X92818857Y-106752571D01*
X92843047Y-106704190D01*
X92867238Y-106680000D01*
X92915619Y-106655809D01*
X93012380Y-106655809D01*
X93060761Y-106680000D01*
X93084952Y-106704190D01*
X93109142Y-106752571D01*
X93109142Y-106873523D01*
X93084952Y-106921904D01*
X93060761Y-106946095D01*
X93012380Y-106970285D01*
X92915619Y-106970285D01*
X92867238Y-106946095D01*
X92843047Y-106921904D01*
X92818857Y-106873523D01*
X92457209Y-101212952D02*
X92868447Y-101212952D01*
X92916828Y-101237142D01*
X92941019Y-101261333D01*
X92965209Y-101309714D01*
X92965209Y-101406476D01*
X92941019Y-101454857D01*
X92916828Y-101479047D01*
X92868447Y-101503238D01*
X92457209Y-101503238D01*
X92965209Y-101769333D02*
X92965209Y-101866095D01*
X92941019Y-101914476D01*
X92916828Y-101938666D01*
X92844257Y-101987047D01*
X92747495Y-102011238D01*
X92553971Y-102011238D01*
X92505590Y-101987047D01*
X92481400Y-101962857D01*
X92457209Y-101914476D01*
X92457209Y-101817714D01*
X92481400Y-101769333D01*
X92505590Y-101745142D01*
X92553971Y-101720952D01*
X92674923Y-101720952D01*
X92723304Y-101745142D01*
X92747495Y-101769333D01*
X92771685Y-101817714D01*
X92771685Y-101914476D01*
X92747495Y-101962857D01*
X92723304Y-101987047D01*
X92674923Y-102011238D01*
D10*
X94435680Y-103073200D02*
X94673776Y-103073200D01*
X94578538Y-102835104D02*
X94673776Y-103073200D01*
X94578538Y-103311295D01*
X94864252Y-102930342D02*
X94673776Y-103073200D01*
X94864252Y-103216057D01*
D12*
X88731029Y-101212952D02*
X89142267Y-101212952D01*
X89190648Y-101237142D01*
X89214839Y-101261333D01*
X89239029Y-101309714D01*
X89239029Y-101406476D01*
X89214839Y-101454857D01*
X89190648Y-101479047D01*
X89142267Y-101503238D01*
X88731029Y-101503238D01*
X88948743Y-101817714D02*
X88924553Y-101769333D01*
X88900362Y-101745142D01*
X88851981Y-101720952D01*
X88827791Y-101720952D01*
X88779410Y-101745142D01*
X88755220Y-101769333D01*
X88731029Y-101817714D01*
X88731029Y-101914476D01*
X88755220Y-101962857D01*
X88779410Y-101987047D01*
X88827791Y-102011238D01*
X88851981Y-102011238D01*
X88900362Y-101987047D01*
X88924553Y-101962857D01*
X88948743Y-101914476D01*
X88948743Y-101817714D01*
X88972934Y-101769333D01*
X88997124Y-101745142D01*
X89045505Y-101720952D01*
X89142267Y-101720952D01*
X89190648Y-101745142D01*
X89214839Y-101769333D01*
X89239029Y-101817714D01*
X89239029Y-101914476D01*
X89214839Y-101962857D01*
X89190648Y-101987047D01*
X89142267Y-102011238D01*
X89045505Y-102011238D01*
X88997124Y-101987047D01*
X88972934Y-101962857D01*
X88948743Y-101914476D01*
D10*
X90709500Y-103073200D02*
X90947596Y-103073200D01*
X90852358Y-102835104D02*
X90947596Y-103073200D01*
X90852358Y-103311295D01*
X91138072Y-102930342D02*
X90947596Y-103073200D01*
X91138072Y-103216057D01*
D12*
X93958228Y-96536933D02*
X93982419Y-96512742D01*
X94006609Y-96440171D01*
X94006609Y-96391790D01*
X93982419Y-96319219D01*
X93934038Y-96270838D01*
X93885657Y-96246647D01*
X93788895Y-96222457D01*
X93716323Y-96222457D01*
X93619561Y-96246647D01*
X93571180Y-96270838D01*
X93522800Y-96319219D01*
X93498609Y-96391790D01*
X93498609Y-96440171D01*
X93522800Y-96512742D01*
X93546990Y-96536933D01*
X93498609Y-96706266D02*
X93498609Y-97020742D01*
X93692133Y-96851409D01*
X93692133Y-96923980D01*
X93716323Y-96972361D01*
X93740514Y-96996552D01*
X93788895Y-97020742D01*
X93909847Y-97020742D01*
X93958228Y-96996552D01*
X93982419Y-96972361D01*
X94006609Y-96923980D01*
X94006609Y-96778838D01*
X93982419Y-96730457D01*
X93958228Y-96706266D01*
X100593071Y-105337428D02*
X100617261Y-105361619D01*
X100689833Y-105385809D01*
X100738214Y-105385809D01*
X100810785Y-105361619D01*
X100859166Y-105313238D01*
X100883357Y-105264857D01*
X100907547Y-105168095D01*
X100907547Y-105095523D01*
X100883357Y-104998761D01*
X100859166Y-104950380D01*
X100810785Y-104902000D01*
X100738214Y-104877809D01*
X100689833Y-104877809D01*
X100617261Y-104902000D01*
X100593071Y-104926190D01*
X100423738Y-104877809D02*
X100109261Y-104877809D01*
X100278595Y-105071333D01*
X100206023Y-105071333D01*
X100157642Y-105095523D01*
X100133452Y-105119714D01*
X100109261Y-105168095D01*
X100109261Y-105289047D01*
X100133452Y-105337428D01*
X100157642Y-105361619D01*
X100206023Y-105385809D01*
X100351166Y-105385809D01*
X100399547Y-105361619D01*
X100423738Y-105337428D01*
X99673833Y-105047142D02*
X99673833Y-105385809D01*
X99794785Y-104853619D02*
X99915738Y-105216476D01*
X99601261Y-105216476D01*
X96181091Y-104473828D02*
X96205281Y-104498019D01*
X96277853Y-104522209D01*
X96326234Y-104522209D01*
X96398805Y-104498019D01*
X96447186Y-104449638D01*
X96471377Y-104401257D01*
X96495567Y-104304495D01*
X96495567Y-104231923D01*
X96471377Y-104135161D01*
X96447186Y-104086780D01*
X96398805Y-104038400D01*
X96326234Y-104014209D01*
X96277853Y-104014209D01*
X96205281Y-104038400D01*
X96181091Y-104062590D01*
X96011758Y-104014209D02*
X95697281Y-104014209D01*
X95866615Y-104207733D01*
X95794043Y-104207733D01*
X95745662Y-104231923D01*
X95721472Y-104256114D01*
X95697281Y-104304495D01*
X95697281Y-104425447D01*
X95721472Y-104473828D01*
X95745662Y-104498019D01*
X95794043Y-104522209D01*
X95939186Y-104522209D01*
X95987567Y-104498019D01*
X96011758Y-104473828D01*
X95527948Y-104014209D02*
X95213472Y-104014209D01*
X95382805Y-104207733D01*
X95310234Y-104207733D01*
X95261853Y-104231923D01*
X95237662Y-104256114D01*
X95213472Y-104304495D01*
X95213472Y-104425447D01*
X95237662Y-104473828D01*
X95261853Y-104498019D01*
X95310234Y-104522209D01*
X95455377Y-104522209D01*
X95503758Y-104498019D01*
X95527948Y-104473828D01*
X102594228Y-101984628D02*
X102618419Y-101960438D01*
X102642609Y-101887866D01*
X102642609Y-101839485D01*
X102618419Y-101766914D01*
X102570038Y-101718533D01*
X102521657Y-101694342D01*
X102424895Y-101670152D01*
X102352323Y-101670152D01*
X102255561Y-101694342D01*
X102207180Y-101718533D01*
X102158800Y-101766914D01*
X102134609Y-101839485D01*
X102134609Y-101887866D01*
X102158800Y-101960438D01*
X102182990Y-101984628D01*
X102134609Y-102153961D02*
X102134609Y-102468438D01*
X102328133Y-102299104D01*
X102328133Y-102371676D01*
X102352323Y-102420057D01*
X102376514Y-102444247D01*
X102424895Y-102468438D01*
X102545847Y-102468438D01*
X102594228Y-102444247D01*
X102618419Y-102420057D01*
X102642609Y-102371676D01*
X102642609Y-102226533D01*
X102618419Y-102178152D01*
X102594228Y-102153961D01*
X102642609Y-102952247D02*
X102642609Y-102661961D01*
X102642609Y-102807104D02*
X102134609Y-102807104D01*
X102207180Y-102758723D01*
X102255561Y-102710342D01*
X102279752Y-102661961D01*
X105733711Y-101178788D02*
X105757901Y-101202979D01*
X105830473Y-101227169D01*
X105878854Y-101227169D01*
X105951425Y-101202979D01*
X105999806Y-101154598D01*
X106023997Y-101106217D01*
X106048187Y-101009455D01*
X106048187Y-100936883D01*
X106023997Y-100840121D01*
X105999806Y-100791740D01*
X105951425Y-100743360D01*
X105878854Y-100719169D01*
X105830473Y-100719169D01*
X105757901Y-100743360D01*
X105733711Y-100767550D01*
X105540187Y-100767550D02*
X105515997Y-100743360D01*
X105467616Y-100719169D01*
X105346663Y-100719169D01*
X105298282Y-100743360D01*
X105274092Y-100767550D01*
X105249901Y-100815931D01*
X105249901Y-100864312D01*
X105274092Y-100936883D01*
X105564378Y-101227169D01*
X105249901Y-101227169D01*
X104766092Y-101227169D02*
X105056378Y-101227169D01*
X104911235Y-101227169D02*
X104911235Y-100719169D01*
X104959616Y-100791740D01*
X105007997Y-100840121D01*
X105056378Y-100864312D01*
X108473211Y-102063828D02*
X108497401Y-102088019D01*
X108569973Y-102112209D01*
X108618354Y-102112209D01*
X108690925Y-102088019D01*
X108739306Y-102039638D01*
X108763497Y-101991257D01*
X108787687Y-101894495D01*
X108787687Y-101821923D01*
X108763497Y-101725161D01*
X108739306Y-101676780D01*
X108690925Y-101628400D01*
X108618354Y-101604209D01*
X108569973Y-101604209D01*
X108497401Y-101628400D01*
X108473211Y-101652590D01*
X107989401Y-102112209D02*
X108279687Y-102112209D01*
X108134544Y-102112209D02*
X108134544Y-101604209D01*
X108182925Y-101676780D01*
X108231306Y-101725161D01*
X108279687Y-101749352D01*
X107747497Y-102112209D02*
X107650735Y-102112209D01*
X107602354Y-102088019D01*
X107578163Y-102063828D01*
X107529782Y-101991257D01*
X107505592Y-101894495D01*
X107505592Y-101700971D01*
X107529782Y-101652590D01*
X107553973Y-101628400D01*
X107602354Y-101604209D01*
X107699116Y-101604209D01*
X107747497Y-101628400D01*
X107771687Y-101652590D01*
X107795878Y-101700971D01*
X107795878Y-101821923D01*
X107771687Y-101870304D01*
X107747497Y-101894495D01*
X107699116Y-101918685D01*
X107602354Y-101918685D01*
X107553973Y-101894495D01*
X107529782Y-101870304D01*
X107505592Y-101821923D01*
X99347866Y-91469028D02*
X99372057Y-91493219D01*
X99444628Y-91517409D01*
X99493009Y-91517409D01*
X99565580Y-91493219D01*
X99613961Y-91444838D01*
X99638152Y-91396457D01*
X99662342Y-91299695D01*
X99662342Y-91227123D01*
X99638152Y-91130361D01*
X99613961Y-91081980D01*
X99565580Y-91033600D01*
X99493009Y-91009409D01*
X99444628Y-91009409D01*
X99372057Y-91033600D01*
X99347866Y-91057790D01*
X98912438Y-91009409D02*
X99009200Y-91009409D01*
X99057580Y-91033600D01*
X99081771Y-91057790D01*
X99130152Y-91130361D01*
X99154342Y-91227123D01*
X99154342Y-91420647D01*
X99130152Y-91469028D01*
X99105961Y-91493219D01*
X99057580Y-91517409D01*
X98960819Y-91517409D01*
X98912438Y-91493219D01*
X98888247Y-91469028D01*
X98864057Y-91420647D01*
X98864057Y-91299695D01*
X98888247Y-91251314D01*
X98912438Y-91227123D01*
X98960819Y-91202933D01*
X99057580Y-91202933D01*
X99105961Y-91227123D01*
X99130152Y-91251314D01*
X99154342Y-91299695D01*
X95233066Y-91469028D02*
X95257257Y-91493219D01*
X95329828Y-91517409D01*
X95378209Y-91517409D01*
X95450780Y-91493219D01*
X95499161Y-91444838D01*
X95523352Y-91396457D01*
X95547542Y-91299695D01*
X95547542Y-91227123D01*
X95523352Y-91130361D01*
X95499161Y-91081980D01*
X95450780Y-91033600D01*
X95378209Y-91009409D01*
X95329828Y-91009409D01*
X95257257Y-91033600D01*
X95233066Y-91057790D01*
X94773447Y-91009409D02*
X95015352Y-91009409D01*
X95039542Y-91251314D01*
X95015352Y-91227123D01*
X94966971Y-91202933D01*
X94846019Y-91202933D01*
X94797638Y-91227123D01*
X94773447Y-91251314D01*
X94749257Y-91299695D01*
X94749257Y-91420647D01*
X94773447Y-91469028D01*
X94797638Y-91493219D01*
X94846019Y-91517409D01*
X94966971Y-91517409D01*
X95015352Y-91493219D01*
X95039542Y-91469028D01*
X102187828Y-92930133D02*
X102212019Y-92905942D01*
X102236209Y-92833371D01*
X102236209Y-92784990D01*
X102212019Y-92712419D01*
X102163638Y-92664038D01*
X102115257Y-92639847D01*
X102018495Y-92615657D01*
X101945923Y-92615657D01*
X101849161Y-92639847D01*
X101800780Y-92664038D01*
X101752400Y-92712419D01*
X101728209Y-92784990D01*
X101728209Y-92833371D01*
X101752400Y-92905942D01*
X101776590Y-92930133D01*
X101897542Y-93365561D02*
X102236209Y-93365561D01*
X101704019Y-93244609D02*
X102066876Y-93123657D01*
X102066876Y-93438133D01*
X94517028Y-94149333D02*
X94541219Y-94125142D01*
X94565409Y-94052571D01*
X94565409Y-94004190D01*
X94541219Y-93931619D01*
X94492838Y-93883238D01*
X94444457Y-93859047D01*
X94347695Y-93834857D01*
X94275123Y-93834857D01*
X94178361Y-93859047D01*
X94129980Y-93883238D01*
X94081600Y-93931619D01*
X94057409Y-94004190D01*
X94057409Y-94052571D01*
X94081600Y-94125142D01*
X94105790Y-94149333D01*
X94565409Y-94633142D02*
X94565409Y-94342857D01*
X94565409Y-94488000D02*
X94057409Y-94488000D01*
X94129980Y-94439619D01*
X94178361Y-94391238D01*
X94202552Y-94342857D01*
X97095007Y-96749809D02*
X97095007Y-97161047D01*
X97070817Y-97209428D01*
X97046626Y-97233619D01*
X96998245Y-97257809D01*
X96901483Y-97257809D01*
X96853102Y-97233619D01*
X96828912Y-97209428D01*
X96804721Y-97161047D01*
X96804721Y-96749809D01*
X96611198Y-96749809D02*
X96296721Y-96749809D01*
X96466055Y-96943333D01*
X96393483Y-96943333D01*
X96345102Y-96967523D01*
X96320912Y-96991714D01*
X96296721Y-97040095D01*
X96296721Y-97161047D01*
X96320912Y-97209428D01*
X96345102Y-97233619D01*
X96393483Y-97257809D01*
X96538626Y-97257809D01*
X96587007Y-97233619D01*
X96611198Y-97209428D01*
M02*
