%TF.GenerationSoftware,KiCad,Pcbnew,(6.0.0-rc1-dev-1614-ge850a482d)*%
%TF.CreationDate,2019-02-15T08:23:26-08:00*%
%TF.ProjectId,spriteSAMD,73707269-7465-4534-914d-442e6b696361,rev?*%
%TF.SameCoordinates,Original*%
%TF.FileFunction,Profile,NP*%
%FSLAX46Y46*%
G04 Gerber Fmt 4.6, Leading zero omitted, Abs format (unit mm)*
G04 Created by KiCad (PCBNEW (6.0.0-rc1-dev-1614-ge850a482d)) date 2019-02-15 08:23:26*
%MOMM*%
%LPD*%
G04 APERTURE LIST*
%ADD10C,0.150000*%
G04 APERTURE END LIST*
D10*
X116701044Y-84099400D02*
G75*
G02X117842556Y-84099400I570756J0D01*
G01*
X117842556Y-81635600D02*
G75*
G02X116701044Y-81635600I-570756J0D01*
G01*
X116701044Y-94513400D02*
G75*
G02X117842556Y-94513400I570756J0D01*
G01*
X117842556Y-92049600D02*
G75*
G02X116701044Y-92049600I-570756J0D01*
G01*
X116700300Y-104775000D02*
X112522000Y-109041600D01*
X117843300Y-84099400D02*
X117843300Y-92049600D01*
X117843300Y-74041000D02*
X117843300Y-81610200D01*
X117843300Y-94513400D02*
X117843300Y-102108000D01*
X116700300Y-104775000D02*
X116700300Y-94538800D01*
X116700300Y-92024200D02*
X116700300Y-84124800D01*
X116700300Y-81635600D02*
X116700300Y-74041000D01*
X124891800Y-102108000D02*
X117856000Y-102108000D01*
X128955800Y-98044000D02*
X124891800Y-102108000D01*
X128955800Y-74041600D02*
X128955800Y-98044000D01*
X117843300Y-74041000D02*
X128955800Y-74041000D01*
X82550000Y-98044000D02*
X81725100Y-97536000D01*
X82550000Y-105156000D02*
X81725100Y-105664000D01*
X81725100Y-105664000D02*
X81725100Y-109041600D01*
X82550000Y-98044000D02*
X82550000Y-105156000D01*
X81725100Y-109041600D02*
X112522000Y-109041600D01*
X116700300Y-74041600D02*
X81725100Y-74041600D01*
X81725100Y-74041600D02*
X81725100Y-97536000D01*
M02*
